<mxfile host="65bd71144e" pages="5">
    <diagram id="fmKDFD1o7MwxVLsBdMy5" name="sql-structure">
        <mxGraphModel dx="1150" dy="792" grid="1" gridSize="10" guides="1" tooltips="1" connect="1" arrows="1" fold="1" page="1" pageScale="1" pageWidth="1100" pageHeight="850" math="0" shadow="0">
            <root>
                <mxCell id="Cf6UX8D4QVb32xjDKQT0-0"/>
                <mxCell id="Cf6UX8D4QVb32xjDKQT0-1" parent="Cf6UX8D4QVb32xjDKQT0-0"/>
                <mxCell id="QRxN1dF-z2wzpEu5Powq-2" value="" style="rounded=0;whiteSpace=wrap;html=1;fontFamily=Nunito Sans;fontSource=https%3A%2F%2Ffonts.googleapis.com%2Fcss%3Ffamily%3DNunito%2BSans;" parent="Cf6UX8D4QVb32xjDKQT0-1" vertex="1">
                    <mxGeometry x="850" y="10" width="430" height="130" as="geometry"/>
                </mxCell>
                <mxCell id="BuUC7ainakoKZwmJFY1T-25" value="release" style="edgeStyle=orthogonalEdgeStyle;rounded=0;orthogonalLoop=1;jettySize=auto;html=1;startArrow=ERmany;startFill=0;endArrow=none;endFill=0;fontFamily=Nunito Sans;fontSource=https%3A%2F%2Ffonts.googleapis.com%2Fcss%3Ffamily%3DNunito%2BSans;" parent="Cf6UX8D4QVb32xjDKQT0-1" source="JegkshS4daWjYpWBeodG-38" target="BuUC7ainakoKZwmJFY1T-24" edge="1">
                    <mxGeometry relative="1" as="geometry"/>
                </mxCell>
                <mxCell id="JegkshS4daWjYpWBeodG-38" value="&lt;u&gt;forecast_variables&lt;br&gt;&lt;/u&gt;PK: varname&lt;br&gt;&lt;br&gt;&lt;div&gt;&lt;span style=&quot;font-weight: normal ; line-height: 1.2&quot;&gt;* Variables and identifiers to be displayed on website&lt;/span&gt;&lt;/div&gt;" style="rounded=0;whiteSpace=wrap;html=1;glass=0;shadow=0;sketch=0;fontStyle=1;align=center;strokeColor=#0392FF;fontFamily=Nunito Sans;fontSource=https%3A%2F%2Ffonts.googleapis.com%2Fcss%3Ffamily%3DNunito%2BSans;" parent="Cf6UX8D4QVb32xjDKQT0-1" vertex="1">
                    <mxGeometry x="820" y="520" width="200" height="120" as="geometry"/>
                </mxCell>
                <mxCell id="3-ZTnkCWrhlHVKZbNQng-15" value="forecast" style="edgeStyle=orthogonalEdgeStyle;rounded=0;orthogonalLoop=1;jettySize=auto;html=1;startArrow=none;startFill=0;endArrow=ERmany;endFill=0;fontFamily=Nunito Sans;fontSource=https%3A%2F%2Ffonts.googleapis.com%2Fcss%3Ffamily%3DNunito%2BSans;" parent="Cf6UX8D4QVb32xjDKQT0-1" source="3-ZTnkCWrhlHVKZbNQng-5" target="3-ZTnkCWrhlHVKZbNQng-7" edge="1">
                    <mxGeometry relative="1" as="geometry"/>
                </mxCell>
                <mxCell id="3-ZTnkCWrhlHVKZbNQng-5" value="&lt;u&gt;forecasts&lt;br&gt;&lt;/u&gt;PK: id&lt;br&gt;&lt;br&gt;&lt;div&gt;&lt;span style=&quot;font-weight: 400&quot;&gt;* Forecast identifiers and short descriptors&lt;/span&gt;&lt;/div&gt;" style="rounded=0;whiteSpace=wrap;html=1;glass=0;shadow=0;sketch=0;fontStyle=1;align=center;strokeColor=#0392FF;fontFamily=Nunito Sans;fontSource=https%3A%2F%2Ffonts.googleapis.com%2Fcss%3Ffamily%3DNunito%2BSans;" parent="Cf6UX8D4QVb32xjDKQT0-1" vertex="1">
                    <mxGeometry x="590" y="520" width="200" height="120" as="geometry"/>
                </mxCell>
                <mxCell id="3-ZTnkCWrhlHVKZbNQng-7" value="&lt;u&gt;forecast_values_v2&lt;br&gt;&lt;/u&gt;PK: (mdate, forecast, vdate, form, freq, varname, date)&amp;nbsp;&lt;br&gt;&lt;br&gt;&lt;span style=&quot;font-weight: normal;&quot;&gt;* mdate = model run date&lt;br&gt;* forecast = forecast name&lt;br&gt;* vdate = vintage date&lt;br&gt;* form = transform form (d1 or d2 forms only!)&lt;br&gt;* freq = forecast frequency&lt;br&gt;* varname = variable&lt;br&gt;* date = observation date&lt;br&gt;&lt;/span&gt;&lt;div&gt;&lt;span style=&quot;font-weight: 400; background-color: initial;&quot;&gt;* Takes inputs from other forecasts&lt;/span&gt;&lt;br&gt;&lt;/div&gt;&lt;div&gt;&lt;span style=&quot;font-weight: 400; background-color: initial;&quot;&gt;* This table can become *huge* because of mdate. For example, each re-pull of the same data can cause this database to grow bigger.&lt;/span&gt;&lt;/div&gt;" style="rounded=1;whiteSpace=wrap;html=1;glass=0;shadow=0;sketch=0;fontStyle=1;align=center;fillColor=#f5f5f5;fontColor=#333333;strokeColor=#666666;fontFamily=Nunito Sans;fontSource=https%3A%2F%2Ffonts.googleapis.com%2Fcss%3Ffamily%3DNunito%2BSans;" parent="Cf6UX8D4QVb32xjDKQT0-1" vertex="1">
                    <mxGeometry x="580" y="160" width="240" height="280" as="geometry"/>
                </mxCell>
                <mxCell id="3-ZTnkCWrhlHVKZbNQng-11" value="&lt;u&gt;forecast_hist_values_v2&lt;br&gt;&lt;/u&gt;PK: (vdate, form, freq, varname, date)&lt;br&gt;&amp;nbsp;&lt;br&gt;&lt;div&gt;&lt;span style=&quot;font-weight: 400&quot;&gt;* Stores realized data for all forecast variables&lt;/span&gt;&lt;/div&gt;&lt;div&gt;&lt;span style=&quot;font-weight: 400&quot;&gt;* No duplicates - earliest vdates only&lt;/span&gt;&lt;/div&gt;&lt;div&gt;&lt;span style=&quot;font-weight: 400&quot;&gt;*(base, d1, d2) forms only&lt;/span&gt;&lt;/div&gt;" style="rounded=1;whiteSpace=wrap;html=1;glass=0;shadow=0;sketch=0;fontStyle=1;align=center;fillColor=#f5f5f5;fontColor=#333333;strokeColor=#666666;fontFamily=Nunito Sans;fontSource=https%3A%2F%2Ffonts.googleapis.com%2Fcss%3Ffamily%3DNunito%2BSans;" parent="Cf6UX8D4QVb32xjDKQT0-1" vertex="1">
                    <mxGeometry x="840" y="300" width="220" height="140" as="geometry"/>
                </mxCell>
                <mxCell id="3-ZTnkCWrhlHVKZbNQng-13" value="varname" style="edgeStyle=elbowEdgeStyle;rounded=0;orthogonalLoop=1;jettySize=auto;elbow=vertical;html=1;startArrow=none;startFill=0;endArrow=ERmany;endFill=0;exitX=0.25;exitY=0;exitDx=0;exitDy=0;entryX=0.75;entryY=1;entryDx=0;entryDy=0;fontFamily=Nunito Sans;fontSource=https%3A%2F%2Ffonts.googleapis.com%2Fcss%3Ffamily%3DNunito%2BSans;" parent="Cf6UX8D4QVb32xjDKQT0-1" source="JegkshS4daWjYpWBeodG-38" target="3-ZTnkCWrhlHVKZbNQng-7" edge="1">
                    <mxGeometry relative="1" as="geometry">
                        <mxPoint x="830" y="320" as="sourcePoint"/>
                        <mxPoint x="1010" y="359.9999999999998" as="targetPoint"/>
                    </mxGeometry>
                </mxCell>
                <mxCell id="3-ZTnkCWrhlHVKZbNQng-14" value="varname" style="edgeStyle=elbowEdgeStyle;rounded=0;orthogonalLoop=1;jettySize=auto;elbow=vertical;html=1;startArrow=none;startFill=0;endArrow=ERmany;endFill=0;exitX=0.5;exitY=0;exitDx=0;exitDy=0;fontFamily=Nunito Sans;fontSource=https%3A%2F%2Ffonts.googleapis.com%2Fcss%3Ffamily%3DNunito%2BSans;" parent="Cf6UX8D4QVb32xjDKQT0-1" source="JegkshS4daWjYpWBeodG-38" target="3-ZTnkCWrhlHVKZbNQng-11" edge="1">
                    <mxGeometry relative="1" as="geometry">
                        <mxPoint x="820" y="520" as="sourcePoint"/>
                        <mxPoint x="900" y="509.9999999999998" as="targetPoint"/>
                    </mxGeometry>
                </mxCell>
                <mxCell id="3-ZTnkCWrhlHVKZbNQng-20" value="varname" style="edgeStyle=orthogonalEdgeStyle;rounded=0;orthogonalLoop=1;jettySize=auto;html=1;entryX=0;entryY=0.5;entryDx=0;entryDy=0;startArrow=ERmany;startFill=0;endArrow=none;endFill=0;fontFamily=Nunito Sans;fontSource=https%3A%2F%2Ffonts.googleapis.com%2Fcss%3Ffamily%3DNunito%2BSans;" parent="Cf6UX8D4QVb32xjDKQT0-1" source="3-ZTnkCWrhlHVKZbNQng-17" target="3-ZTnkCWrhlHVKZbNQng-18" edge="1">
                    <mxGeometry relative="1" as="geometry"/>
                </mxCell>
                <mxCell id="3-ZTnkCWrhlHVKZbNQng-17" value="&lt;u&gt;nowcast_model_input_values&lt;br&gt;&lt;/u&gt;PK: (vdate, form, freq, varname, date)&lt;br&gt;&lt;div&gt;&lt;br&gt;&lt;/div&gt;&lt;div&gt;&lt;span style=&quot;font-weight: 400&quot;&gt;* Non-critical suppplmental table&lt;/span&gt;&lt;/div&gt;&lt;div&gt;&lt;span style=&quot;font-weight: 400&quot;&gt;* Storage of input values&lt;/span&gt;&lt;/div&gt;" style="rounded=1;whiteSpace=wrap;html=1;glass=0;shadow=0;sketch=0;fontStyle=1;align=center;fillColor=#f5f5f5;fontColor=#333333;strokeColor=#666666;fontFamily=Nunito Sans;fontSource=https%3A%2F%2Ffonts.googleapis.com%2Fcss%3Ffamily%3DNunito%2BSans;" parent="Cf6UX8D4QVb32xjDKQT0-1" vertex="1">
                    <mxGeometry x="10" y="420" width="220" height="100" as="geometry"/>
                </mxCell>
                <mxCell id="3-ZTnkCWrhlHVKZbNQng-27" value="release" style="edgeStyle=orthogonalEdgeStyle;rounded=0;orthogonalLoop=1;jettySize=auto;html=1;startArrow=ERmany;startFill=0;endArrow=none;endFill=0;fontFamily=Nunito Sans;fontSource=https%3A%2F%2Ffonts.googleapis.com%2Fcss%3Ffamily%3DNunito%2BSans;" parent="Cf6UX8D4QVb32xjDKQT0-1" source="3-ZTnkCWrhlHVKZbNQng-18" target="3-ZTnkCWrhlHVKZbNQng-21" edge="1">
                    <mxGeometry relative="1" as="geometry"/>
                </mxCell>
                <mxCell id="3-ZTnkCWrhlHVKZbNQng-18" value="&lt;u&gt;nowcast_model_variables&lt;br&gt;&lt;/u&gt;PK: varname&lt;br&gt;&lt;div&gt;&lt;br&gt;&lt;/div&gt;&lt;div&gt;&lt;span style=&quot;font-weight: 400&quot;&gt;* Variable definitions for inputs/outputs of nowcast model&lt;/span&gt;&lt;/div&gt;" style="rounded=0;whiteSpace=wrap;html=1;glass=0;shadow=0;sketch=0;fontStyle=1;align=center;strokeColor=#0392FF;fontFamily=Nunito Sans;fontSource=https%3A%2F%2Ffonts.googleapis.com%2Fcss%3Ffamily%3DNunito%2BSans;" parent="Cf6UX8D4QVb32xjDKQT0-1" vertex="1">
                    <mxGeometry x="300" y="410" width="200" height="120" as="geometry"/>
                </mxCell>
                <mxCell id="3-ZTnkCWrhlHVKZbNQng-21" value="&lt;u&gt;nowcast_model_input_releases&lt;br&gt;&lt;/u&gt;PK: id&lt;br&gt;&lt;div&gt;&lt;br&gt;&lt;/div&gt;&lt;div&gt;&lt;span style=&quot;font-weight: 400&quot;&gt;* Release descriptions of nowcast inputs&lt;/span&gt;&lt;/div&gt;" style="rounded=0;whiteSpace=wrap;html=1;glass=0;shadow=0;sketch=0;fontStyle=1;align=center;strokeColor=#0392FF;fontFamily=Nunito Sans;fontSource=https%3A%2F%2Ffonts.googleapis.com%2Fcss%3Ffamily%3DNunito%2BSans;" parent="Cf6UX8D4QVb32xjDKQT0-1" vertex="1">
                    <mxGeometry x="300" y="570" width="200" height="100" as="geometry"/>
                </mxCell>
                <mxCell id="3-ZTnkCWrhlHVKZbNQng-26" value="release" style="edgeStyle=orthogonalEdgeStyle;rounded=0;orthogonalLoop=1;jettySize=auto;html=1;entryX=0.5;entryY=1;entryDx=0;entryDy=0;startArrow=ERmany;startFill=0;endArrow=none;endFill=0;fontFamily=Nunito Sans;fontSource=https%3A%2F%2Ffonts.googleapis.com%2Fcss%3Ffamily%3DNunito%2BSans;" parent="Cf6UX8D4QVb32xjDKQT0-1" source="3-ZTnkCWrhlHVKZbNQng-24" target="3-ZTnkCWrhlHVKZbNQng-21" edge="1">
                    <mxGeometry relative="1" as="geometry"/>
                </mxCell>
                <mxCell id="3-ZTnkCWrhlHVKZbNQng-24" value="&lt;u&gt;nowcast_model_input_release_dates&lt;br&gt;&lt;/u&gt;PK: (release, date)&lt;br&gt;&lt;div&gt;&lt;br&gt;&lt;/div&gt;&lt;div&gt;&lt;span style=&quot;font-weight: 400&quot;&gt;* Release dates for all releases&lt;/span&gt;&lt;/div&gt;" style="rounded=1;whiteSpace=wrap;html=1;glass=0;shadow=0;sketch=0;fontStyle=1;align=center;fillColor=#f5f5f5;fontColor=#333333;strokeColor=#666666;fontFamily=Nunito Sans;fontSource=https%3A%2F%2Ffonts.googleapis.com%2Fcss%3Ffamily%3DNunito%2BSans;" parent="Cf6UX8D4QVb32xjDKQT0-1" vertex="1">
                    <mxGeometry x="290" y="720" width="220" height="100" as="geometry"/>
                </mxCell>
                <mxCell id="BuUC7ainakoKZwmJFY1T-15" value="varname" style="edgeStyle=orthogonalEdgeStyle;rounded=0;orthogonalLoop=1;jettySize=auto;html=1;exitX=1;exitY=0.5;exitDx=0;exitDy=0;entryX=0;entryY=0.5;entryDx=0;entryDy=0;startArrow=ERmany;startFill=0;endArrow=none;endFill=0;fontFamily=Nunito Sans;fontSource=https%3A%2F%2Ffonts.googleapis.com%2Fcss%3Ffamily%3DNunito%2BSans;" parent="Cf6UX8D4QVb32xjDKQT0-1" source="BuUC7ainakoKZwmJFY1T-3" target="BuUC7ainakoKZwmJFY1T-4" edge="1">
                    <mxGeometry relative="1" as="geometry"/>
                </mxCell>
                <mxCell id="BuUC7ainakoKZwmJFY1T-3" value="&lt;u&gt;interest_rate_model_input_values&lt;br&gt;&lt;/u&gt;PK: (vdate, form, freq, varname, date)&lt;br&gt;&lt;br&gt;* Non-critical supplemental table&lt;br&gt;&lt;div&gt;&lt;span style=&quot;font-weight: 400&quot;&gt;* Storage of input values&lt;/span&gt;&lt;/div&gt;" style="rounded=1;whiteSpace=wrap;html=1;glass=0;shadow=0;sketch=0;fontStyle=1;align=center;fillColor=#f5f5f5;fontColor=#333333;strokeColor=#666666;fontFamily=Nunito Sans;fontSource=https%3A%2F%2Ffonts.googleapis.com%2Fcss%3Ffamily%3DNunito%2BSans;" parent="Cf6UX8D4QVb32xjDKQT0-1" vertex="1">
                    <mxGeometry x="10" y="240" width="220" height="100" as="geometry"/>
                </mxCell>
                <mxCell id="BuUC7ainakoKZwmJFY1T-4" value="&lt;u&gt;interest_rate_model_variables&lt;br&gt;&lt;/u&gt;PK: varname&lt;br&gt;&lt;br&gt;&lt;div&gt;&lt;span style=&quot;font-weight: 400&quot;&gt;* Variable definitions&lt;/span&gt;&lt;/div&gt;" style="rounded=0;whiteSpace=wrap;html=1;glass=0;shadow=0;sketch=0;fontStyle=1;align=center;strokeColor=#0392FF;fontFamily=Nunito Sans;fontSource=https%3A%2F%2Ffonts.googleapis.com%2Fcss%3Ffamily%3DNunito%2BSans;" parent="Cf6UX8D4QVb32xjDKQT0-1" vertex="1">
                    <mxGeometry x="300" y="230" width="200" height="120" as="geometry"/>
                </mxCell>
                <mxCell id="BuUC7ainakoKZwmJFY1T-9" value="&lt;u&gt;external_import_variables&lt;br&gt;&lt;/u&gt;PK: varname&lt;br&gt;&lt;div&gt;&lt;br&gt;&lt;/div&gt;&lt;div&gt;&lt;span style=&quot;font-weight: 400&quot;&gt;* External import variable definitions (both input &amp;amp; output)&lt;/span&gt;&lt;/div&gt;" style="rounded=0;whiteSpace=wrap;html=1;glass=0;shadow=0;sketch=0;fontStyle=1;align=center;strokeColor=#0392FF;fontFamily=Nunito Sans;fontSource=https%3A%2F%2Ffonts.googleapis.com%2Fcss%3Ffamily%3DNunito%2BSans;" parent="Cf6UX8D4QVb32xjDKQT0-1" vertex="1">
                    <mxGeometry x="300" y="50" width="200" height="120" as="geometry"/>
                </mxCell>
                <mxCell id="BuUC7ainakoKZwmJFY1T-11" value="" style="edgeStyle=orthogonalEdgeStyle;rounded=0;orthogonalLoop=1;jettySize=auto;html=1;exitX=1.017;exitY=0.59;exitDx=0;exitDy=0;startArrow=none;startFill=0;endArrow=block;endFill=1;curved=1;dashed=1;fillColor=#008a00;strokeColor=#005700;exitPerimeter=0;fontFamily=Nunito Sans;fontSource=https%3A%2F%2Ffonts.googleapis.com%2Fcss%3Ffamily%3DNunito%2BSans;" parent="Cf6UX8D4QVb32xjDKQT0-1" source="BuUC7ainakoKZwmJFY1T-9" target="3-ZTnkCWrhlHVKZbNQng-7" edge="1">
                    <mxGeometry x="0.2608" y="-30" relative="1" as="geometry">
                        <mxPoint x="480" y="500" as="sourcePoint"/>
                        <mxPoint x="560" y="140" as="targetPoint"/>
                        <mxPoint y="1" as="offset"/>
                    </mxGeometry>
                </mxCell>
                <mxCell id="BuUC7ainakoKZwmJFY1T-17" value="" style="edgeStyle=orthogonalEdgeStyle;rounded=0;orthogonalLoop=1;jettySize=auto;html=1;exitX=1;exitY=0.5;exitDx=0;exitDy=0;startArrow=none;startFill=0;endArrow=block;endFill=1;curved=1;dashed=1;fillColor=#008a00;strokeColor=#005700;entryX=0;entryY=0.5;entryDx=0;entryDy=0;fontFamily=Nunito Sans;fontSource=https%3A%2F%2Ffonts.googleapis.com%2Fcss%3Ffamily%3DNunito%2BSans;" parent="Cf6UX8D4QVb32xjDKQT0-1" source="BuUC7ainakoKZwmJFY1T-4" target="3-ZTnkCWrhlHVKZbNQng-7" edge="1">
                    <mxGeometry relative="1" as="geometry">
                        <mxPoint x="493.39999999999986" y="150.79999999999995" as="sourcePoint"/>
                        <mxPoint x="560" y="320" as="targetPoint"/>
                    </mxGeometry>
                </mxCell>
                <mxCell id="BuUC7ainakoKZwmJFY1T-18" value="" style="edgeStyle=orthogonalEdgeStyle;rounded=0;orthogonalLoop=1;jettySize=auto;html=1;startArrow=none;startFill=0;endArrow=block;endFill=1;curved=1;dashed=1;fillColor=#008a00;strokeColor=#005700;entryX=0.25;entryY=1;entryDx=0;entryDy=0;fontFamily=Nunito Sans;fontSource=https%3A%2F%2Ffonts.googleapis.com%2Fcss%3Ffamily%3DNunito%2BSans;" parent="Cf6UX8D4QVb32xjDKQT0-1" source="3-ZTnkCWrhlHVKZbNQng-18" target="3-ZTnkCWrhlHVKZbNQng-7" edge="1">
                    <mxGeometry relative="1" as="geometry">
                        <mxPoint x="500" y="320" as="sourcePoint"/>
                        <mxPoint x="600" y="420" as="targetPoint"/>
                    </mxGeometry>
                </mxCell>
                <mxCell id="BuUC7ainakoKZwmJFY1T-28" value="release" style="edgeStyle=orthogonalEdgeStyle;rounded=0;orthogonalLoop=1;jettySize=auto;html=1;startArrow=ERmany;startFill=0;endArrow=none;endFill=0;exitX=0.5;exitY=0;exitDx=0;exitDy=0;entryX=0.995;entryY=0.167;entryDx=0;entryDy=0;entryPerimeter=0;fontFamily=Nunito Sans;fontSource=https%3A%2F%2Ffonts.googleapis.com%2Fcss%3Ffamily%3DNunito%2BSans;" parent="Cf6UX8D4QVb32xjDKQT0-1" source="BuUC7ainakoKZwmJFY1T-22" target="BuUC7ainakoKZwmJFY1T-24" edge="1">
                    <mxGeometry relative="1" as="geometry">
                        <mxPoint x="940" y="660" as="targetPoint"/>
                        <Array as="points">
                            <mxPoint x="970" y="690"/>
                            <mxPoint x="829" y="690"/>
                        </Array>
                    </mxGeometry>
                </mxCell>
                <mxCell id="BuUC7ainakoKZwmJFY1T-22" value="&lt;u&gt;forecast_hist_release_dates&lt;br&gt;&lt;/u&gt;PK: (release, date)&lt;br&gt;&lt;div&gt;&lt;br&gt;&lt;/div&gt;&lt;div&gt;&lt;span style=&quot;font-weight: 400&quot;&gt;* Release dates for all releases&lt;/span&gt;&lt;/div&gt;" style="rounded=1;whiteSpace=wrap;html=1;glass=0;shadow=0;sketch=0;fontStyle=1;align=center;fillColor=#f5f5f5;fontColor=#333333;strokeColor=#666666;fontFamily=Nunito Sans;fontSource=https%3A%2F%2Ffonts.googleapis.com%2Fcss%3Ffamily%3DNunito%2BSans;" parent="Cf6UX8D4QVb32xjDKQT0-1" vertex="1">
                    <mxGeometry x="860" y="700" width="220" height="100" as="geometry"/>
                </mxCell>
                <mxCell id="BuUC7ainakoKZwmJFY1T-24" value="&lt;u&gt;forecast_hist_releases&lt;/u&gt;&lt;br&gt;PK: id&lt;br&gt;&lt;span style=&quot;font-weight: normal&quot;&gt;&lt;br&gt;* Releases for all variables listed in forecast_variables&lt;/span&gt;" style="rounded=0;whiteSpace=wrap;html=1;glass=0;shadow=0;sketch=0;fontStyle=1;align=center;strokeColor=#0392FF;fontFamily=Nunito Sans;fontSource=https%3A%2F%2Ffonts.googleapis.com%2Fcss%3Ffamily%3DNunito%2BSans;" parent="Cf6UX8D4QVb32xjDKQT0-1" vertex="1">
                    <mxGeometry x="630" y="680" width="200" height="120" as="geometry"/>
                </mxCell>
                <mxCell id="BuUC7ainakoKZwmJFY1T-30" value="" style="endArrow=none;dashed=1;html=1;dashPattern=1 3;strokeWidth=2;rounded=0;fontFamily=Nunito Sans;fontSource=https%3A%2F%2Ffonts.googleapis.com%2Fcss%3Ffamily%3DNunito%2BSans;" parent="Cf6UX8D4QVb32xjDKQT0-1" edge="1">
                    <mxGeometry width="50" height="50" relative="1" as="geometry">
                        <mxPoint x="20" y="400" as="sourcePoint"/>
                        <mxPoint x="550" y="400" as="targetPoint"/>
                    </mxGeometry>
                </mxCell>
                <mxCell id="BuUC7ainakoKZwmJFY1T-31" value="" style="endArrow=none;dashed=1;html=1;dashPattern=1 3;strokeWidth=2;rounded=0;fontFamily=Nunito Sans;fontSource=https%3A%2F%2Ffonts.googleapis.com%2Fcss%3Ffamily%3DNunito%2BSans;" parent="Cf6UX8D4QVb32xjDKQT0-1" edge="1">
                    <mxGeometry width="50" height="50" relative="1" as="geometry">
                        <mxPoint x="550" y="830" as="sourcePoint"/>
                        <mxPoint x="540" y="30" as="targetPoint"/>
                    </mxGeometry>
                </mxCell>
                <mxCell id="BuUC7ainakoKZwmJFY1T-32" value="" style="endArrow=none;dashed=1;html=1;dashPattern=1 3;strokeWidth=2;rounded=0;fontFamily=Nunito Sans;fontSource=https%3A%2F%2Ffonts.googleapis.com%2Fcss%3Ffamily%3DNunito%2BSans;" parent="Cf6UX8D4QVb32xjDKQT0-1" edge="1">
                    <mxGeometry width="50" height="50" relative="1" as="geometry">
                        <mxPoint x="20" y="210" as="sourcePoint"/>
                        <mxPoint x="540" y="210" as="targetPoint"/>
                    </mxGeometry>
                </mxCell>
                <mxCell id="QRxN1dF-z2wzpEu5Powq-10" value="data flow" style="edgeStyle=orthogonalEdgeStyle;rounded=0;orthogonalLoop=1;jettySize=auto;html=1;entryX=0.75;entryY=0;entryDx=0;entryDy=0;strokeColor=#82b366;dashed=1;curved=1;fillColor=#d5e8d4;fontFamily=Nunito Sans;fontSource=https%3A%2F%2Ffonts.googleapis.com%2Fcss%3Ffamily%3DNunito%2BSans;" parent="Cf6UX8D4QVb32xjDKQT0-1" source="QRxN1dF-z2wzpEu5Powq-0" target="QRxN1dF-z2wzpEu5Powq-1" edge="1">
                    <mxGeometry relative="1" as="geometry"/>
                </mxCell>
                <mxCell id="QRxN1dF-z2wzpEu5Powq-0" value="&lt;u&gt;timescaledb&lt;br&gt;hypertable&lt;br&gt;&lt;/u&gt;" style="rounded=1;whiteSpace=wrap;html=1;fillColor=#eeeeee;strokeColor=#36393d;glass=0;shadow=0;sketch=0;fontStyle=1;align=center;fontFamily=Nunito Sans;fontSource=https%3A%2F%2Ffonts.googleapis.com%2Fcss%3Ffamily%3DNunito%2BSans;" parent="Cf6UX8D4QVb32xjDKQT0-1" vertex="1">
                    <mxGeometry x="915" y="20" width="155" height="30" as="geometry"/>
                </mxCell>
                <mxCell id="QRxN1dF-z2wzpEu5Powq-1" value="&lt;u&gt;postgresql table&lt;/u&gt;" style="rounded=0;whiteSpace=wrap;html=1;glass=0;shadow=0;sketch=0;fontStyle=1;align=center;strokeColor=#0392FF;fontFamily=Nunito Sans;fontSource=https%3A%2F%2Ffonts.googleapis.com%2Fcss%3Ffamily%3DNunito%2BSans;" parent="Cf6UX8D4QVb32xjDKQT0-1" vertex="1">
                    <mxGeometry x="915" y="100" width="155" height="30" as="geometry"/>
                </mxCell>
                <mxCell id="QRxN1dF-z2wzpEu5Powq-9" value="foreign key" style="endArrow=none;dashed=1;html=1;rounded=0;strokeColor=default;entryX=0;entryY=1;entryDx=0;entryDy=0;exitX=0.25;exitY=0;exitDx=0;exitDy=0;edgeStyle=orthogonalEdgeStyle;fontFamily=Nunito Sans;fontSource=https%3A%2F%2Ffonts.googleapis.com%2Fcss%3Ffamily%3DNunito%2BSans;" parent="Cf6UX8D4QVb32xjDKQT0-1" source="QRxN1dF-z2wzpEu5Powq-1" target="QRxN1dF-z2wzpEu5Powq-0" edge="1">
                    <mxGeometry width="50" height="50" relative="1" as="geometry">
                        <mxPoint x="890" y="80" as="sourcePoint"/>
                        <mxPoint x="700" y="310" as="targetPoint"/>
                    </mxGeometry>
                </mxCell>
                <mxCell id="QRxN1dF-z2wzpEu5Powq-13" value="&lt;b&gt;&lt;font style=&quot;font-size: 24px&quot;&gt;SQL Structure&lt;/font&gt;&lt;/b&gt;" style="text;html=1;strokeColor=none;fillColor=none;align=center;verticalAlign=middle;whiteSpace=wrap;rounded=0;fontFamily=Nunito Sans;fontSource=https%3A%2F%2Ffonts.googleapis.com%2Fcss%3Ffamily%3DNunito%2BSans;" parent="Cf6UX8D4QVb32xjDKQT0-1" vertex="1">
                    <mxGeometry x="611" y="20" width="180" height="30" as="geometry"/>
                </mxCell>
                <mxCell id="LiHC8JmTG9Uw9_XcXLYk-0" value="Updated 8/11/23" style="text;html=1;strokeColor=none;fillColor=none;align=center;verticalAlign=middle;whiteSpace=wrap;rounded=0;fontSize=12;fontFamily=Nunito Sans;fontSource=https%3A%2F%2Ffonts.googleapis.com%2Fcss%3Ffamily%3DNunito%2BSans;" parent="Cf6UX8D4QVb32xjDKQT0-1" vertex="1">
                    <mxGeometry x="641" y="50" width="120" height="30" as="geometry"/>
                </mxCell>
                <mxCell id="Yktkts1AGWyO3nEfBsnC-0" value="" style="edgeStyle=orthogonalEdgeStyle;rounded=0;orthogonalLoop=1;jettySize=auto;html=1;exitX=1;exitY=0.167;exitDx=0;exitDy=0;startArrow=none;startFill=0;endArrow=block;endFill=1;curved=1;dashed=1;fillColor=#008a00;strokeColor=#005700;fontFamily=Nunito Sans;fontSource=https%3A%2F%2Ffonts.googleapis.com%2Fcss%3Ffamily%3DNunito%2BSans;exitPerimeter=0;entryX=-0.006;entryY=0.43;entryDx=0;entryDy=0;entryPerimeter=0;" parent="Cf6UX8D4QVb32xjDKQT0-1" source="3-ZTnkCWrhlHVKZbNQng-7" target="G1YM0whupxtLq1lWn_vy-0" edge="1">
                    <mxGeometry x="0.2608" y="-30" relative="1" as="geometry">
                        <mxPoint x="710.0000000000001" y="500.79999999999995" as="sourcePoint"/>
                        <mxPoint x="810" y="250" as="targetPoint"/>
                        <mxPoint y="1" as="offset"/>
                    </mxGeometry>
                </mxCell>
                <mxCell id="Yktkts1AGWyO3nEfBsnC-1" value="" style="edgeStyle=orthogonalEdgeStyle;rounded=0;orthogonalLoop=1;jettySize=auto;html=1;exitX=1;exitY=0.267;exitDx=0;exitDy=0;startArrow=none;startFill=0;endArrow=block;endFill=1;curved=1;dashed=1;fillColor=#008a00;strokeColor=#005700;fontFamily=Nunito Sans;fontSource=https%3A%2F%2Ffonts.googleapis.com%2Fcss%3Ffamily%3DNunito%2BSans;exitPerimeter=0;entryX=0;entryY=0.25;entryDx=0;entryDy=0;" parent="Cf6UX8D4QVb32xjDKQT0-1" source="3-ZTnkCWrhlHVKZbNQng-7" target="UROjGkMkR3BltAXOLuoT-4" edge="1">
                    <mxGeometry x="0.2608" y="-30" relative="1" as="geometry">
                        <mxPoint x="932.5" y="330" as="sourcePoint"/>
                        <mxPoint x="920" y="300" as="targetPoint"/>
                        <mxPoint y="1" as="offset"/>
                        <Array as="points">
                            <mxPoint x="1090" y="235"/>
                            <mxPoint x="1090" y="337"/>
                        </Array>
                    </mxGeometry>
                </mxCell>
                <mxCell id="G1YM0whupxtLq1lWn_vy-0" value="&lt;u&gt;forecast_values_v2_latest&lt;/u&gt;&lt;br&gt;&lt;br&gt;&lt;span style=&quot;font-weight: normal;&quot;&gt;- Gets the forecasts corresponding to the last vdate for each (forecast, freq, varname) -&amp;gt; so latest mdates can cause multiple runs!&lt;br&gt;- Unique on (forecast, freq, varname, date)&lt;br&gt;&lt;/span&gt;" style="rounded=1;whiteSpace=wrap;html=1;glass=0;shadow=0;sketch=0;fontStyle=1;align=center;fillColor=#d5e8d4;strokeColor=#82b366;fontFamily=Nunito Sans;fontSource=https%3A%2F%2Ffonts.googleapis.com%2Fcss%3Ffamily%3DNunito%2BSans;" parent="Cf6UX8D4QVb32xjDKQT0-1" vertex="1">
                    <mxGeometry x="1110" y="160" width="260" height="110" as="geometry"/>
                </mxCell>
                <mxCell id="UROjGkMkR3BltAXOLuoT-3" value="&lt;span&gt;materialized view&lt;/span&gt;" style="rounded=0;whiteSpace=wrap;html=1;glass=0;shadow=0;sketch=0;fontStyle=5;align=center;strokeColor=#82b366;fillColor=#d5e8d4;fontFamily=Nunito Sans;fontSource=https%3A%2F%2Ffonts.googleapis.com%2Fcss%3Ffamily%3DNunito%2BSans;" parent="Cf6UX8D4QVb32xjDKQT0-1" vertex="1">
                    <mxGeometry x="1100" y="20" width="155" height="30" as="geometry"/>
                </mxCell>
                <mxCell id="UROjGkMkR3BltAXOLuoT-4" value="&lt;u&gt;forecast_values_v2_all&lt;/u&gt;&lt;br&gt;&lt;br&gt;&lt;span style=&quot;font-weight: normal;&quot;&gt;- Aggregates out mdates by selecting the first mdate for each (forecast, vdate, form, freq, varname)&lt;br&gt;- Pivots out d1 and d2&lt;br&gt;- Unique on (forecast, vdate, freq, varname), date&amp;nbsp;&lt;br&gt;&lt;/span&gt;" style="rounded=1;whiteSpace=wrap;html=1;glass=0;shadow=0;sketch=0;fontStyle=1;align=center;fillColor=#d5e8d4;strokeColor=#82b366;fontFamily=Nunito Sans;fontSource=https%3A%2F%2Ffonts.googleapis.com%2Fcss%3Ffamily%3DNunito%2BSans;" parent="Cf6UX8D4QVb32xjDKQT0-1" vertex="1">
                    <mxGeometry x="1110" y="305" width="260" height="130" as="geometry"/>
                </mxCell>
            </root>
        </mxGraphModel>
    </diagram>
    <diagram id="F8V6cguKELJqiWX7uWc7" name="interest-rates-model">
        <mxGraphModel dx="2091" dy="1300" grid="1" gridSize="10" guides="1" tooltips="1" connect="1" arrows="1" fold="1" page="1" pageScale="1" pageWidth="1100" pageHeight="850" math="0" shadow="0">
            <root>
                <mxCell id="f7GBS1QvWfyxKcQ8NaDb-0"/>
                <mxCell id="f7GBS1QvWfyxKcQ8NaDb-1" parent="f7GBS1QvWfyxKcQ8NaDb-0"/>
                <mxCell id="LiqQDQ33SRliXtywbM7d-6" style="edgeStyle=orthogonalEdgeStyle;rounded=0;orthogonalLoop=1;jettySize=auto;html=1;" parent="f7GBS1QvWfyxKcQ8NaDb-1" source="LiqQDQ33SRliXtywbM7d-4" target="LiqQDQ33SRliXtywbM7d-7" edge="1">
                    <mxGeometry relative="1" as="geometry">
                        <mxPoint x="1069.9999999999995" y="325" as="targetPoint"/>
                    </mxGeometry>
                </mxCell>
                <mxCell id="LiqQDQ33SRliXtywbM7d-4" value="" style="rounded=0;whiteSpace=wrap;html=1;align=left;" parent="f7GBS1QvWfyxKcQ8NaDb-1" vertex="1">
                    <mxGeometry x="130" y="240" width="860" height="170" as="geometry"/>
                </mxCell>
                <mxCell id="LaHYsw1can1mL6rMii8X-27" value="&lt;h1&gt;Data Flow (Rates)&lt;/h1&gt;&lt;div&gt;Updated 2/15/22&lt;/div&gt;" style="text;html=1;strokeColor=none;fillColor=none;spacing=5;spacingTop=-20;whiteSpace=wrap;overflow=hidden;rounded=0;align=center;" parent="f7GBS1QvWfyxKcQ8NaDb-1" vertex="1">
                    <mxGeometry x="285" y="21" width="285" height="69" as="geometry"/>
                </mxCell>
                <mxCell id="vjHih0Vtm73UF9hfl7I5-0" value="" style="rounded=0;whiteSpace=wrap;html=1;" parent="f7GBS1QvWfyxKcQ8NaDb-1" vertex="1">
                    <mxGeometry x="850" y="10" width="230" height="170" as="geometry"/>
                </mxCell>
                <mxCell id="vjHih0Vtm73UF9hfl7I5-2" value="&lt;u&gt;external data source&lt;br&gt;&lt;/u&gt;" style="rounded=1;whiteSpace=wrap;html=1;fillColor=#f8cecc;strokeColor=#b85450;glass=0;shadow=0;sketch=0;fontStyle=1;align=center;" parent="f7GBS1QvWfyxKcQ8NaDb-1" vertex="1">
                    <mxGeometry x="887.5" y="30" width="155" height="30" as="geometry"/>
                </mxCell>
                <mxCell id="vjHih0Vtm73UF9hfl7I5-3" value="&lt;u&gt;calculation&lt;/u&gt;" style="rounded=0;whiteSpace=wrap;html=1;glass=0;shadow=0;sketch=0;fontStyle=1;align=center;strokeColor=#6c8ebf;fillColor=#dae8fc;" parent="f7GBS1QvWfyxKcQ8NaDb-1" vertex="1">
                    <mxGeometry x="887.5" y="80" width="155" height="30" as="geometry"/>
                </mxCell>
                <mxCell id="PXKFyvKP80mSMXVI4Lar-0" value="&lt;u&gt;FRED&lt;br&gt;&lt;/u&gt;" style="rounded=1;whiteSpace=wrap;html=1;fillColor=#f8cecc;strokeColor=#b85450;glass=0;shadow=0;sketch=0;fontStyle=1;align=center;" parent="f7GBS1QvWfyxKcQ8NaDb-1" vertex="1">
                    <mxGeometry x="190" y="340" width="160" height="40" as="geometry"/>
                </mxCell>
                <mxCell id="PXKFyvKP80mSMXVI4Lar-1" value="&lt;u&gt;internal data source&lt;br&gt;&lt;/u&gt;" style="rounded=1;whiteSpace=wrap;html=1;fillColor=#fff2cc;strokeColor=#d6b656;glass=0;shadow=0;sketch=0;fontStyle=1;align=center;" parent="f7GBS1QvWfyxKcQ8NaDb-1" vertex="1">
                    <mxGeometry x="887.5" y="130" width="155" height="30" as="geometry"/>
                </mxCell>
                <mxCell id="PXKFyvKP80mSMXVI4Lar-2" value="&lt;u&gt;Bloomberg&lt;br&gt;&lt;/u&gt;" style="rounded=1;whiteSpace=wrap;html=1;fillColor=#f8cecc;strokeColor=#b85450;glass=0;shadow=0;sketch=0;fontStyle=1;align=center;" parent="f7GBS1QvWfyxKcQ8NaDb-1" vertex="1">
                    <mxGeometry x="390" y="340" width="160" height="40" as="geometry"/>
                </mxCell>
                <mxCell id="F10ocakWG-Za9e7yQWgX-0" style="edgeStyle=orthogonalEdgeStyle;rounded=0;orthogonalLoop=1;jettySize=auto;html=1;entryX=0.5;entryY=0;entryDx=0;entryDy=0;exitX=0.5;exitY=1;exitDx=0;exitDy=0;" parent="f7GBS1QvWfyxKcQ8NaDb-1" source="PXKFyvKP80mSMXVI4Lar-4" target="PXKFyvKP80mSMXVI4Lar-0" edge="1">
                    <mxGeometry relative="1" as="geometry"/>
                </mxCell>
                <mxCell id="F10ocakWG-Za9e7yQWgX-1" style="edgeStyle=orthogonalEdgeStyle;rounded=0;orthogonalLoop=1;jettySize=auto;html=1;" parent="f7GBS1QvWfyxKcQ8NaDb-1" source="PXKFyvKP80mSMXVI4Lar-4" target="PXKFyvKP80mSMXVI4Lar-2" edge="1">
                    <mxGeometry relative="1" as="geometry"/>
                </mxCell>
                <mxCell id="LiqQDQ33SRliXtywbM7d-1" style="edgeStyle=orthogonalEdgeStyle;rounded=0;orthogonalLoop=1;jettySize=auto;html=1;exitX=0.5;exitY=1;exitDx=0;exitDy=0;entryX=0.5;entryY=0;entryDx=0;entryDy=0;" parent="f7GBS1QvWfyxKcQ8NaDb-1" source="PXKFyvKP80mSMXVI4Lar-4" target="LiqQDQ33SRliXtywbM7d-0" edge="1">
                    <mxGeometry relative="1" as="geometry"/>
                </mxCell>
                <mxCell id="LiqQDQ33SRliXtywbM7d-3" style="edgeStyle=orthogonalEdgeStyle;rounded=0;orthogonalLoop=1;jettySize=auto;html=1;exitX=0.5;exitY=1;exitDx=0;exitDy=0;" parent="f7GBS1QvWfyxKcQ8NaDb-1" source="PXKFyvKP80mSMXVI4Lar-4" target="LiqQDQ33SRliXtywbM7d-2" edge="1">
                    <mxGeometry relative="1" as="geometry"/>
                </mxCell>
                <mxCell id="PXKFyvKP80mSMXVI4Lar-4" value="&lt;u&gt;interest_rate_model_variables&lt;/u&gt;&lt;br&gt;&lt;i&gt;&lt;br&gt;* Extract variables to pull historical data&lt;/i&gt;" style="rounded=1;whiteSpace=wrap;html=1;fillColor=#fff2cc;strokeColor=#d6b656;glass=0;shadow=0;sketch=0;fontStyle=1;align=center;" parent="f7GBS1QvWfyxKcQ8NaDb-1" vertex="1">
                    <mxGeometry x="450" y="140" width="200" height="80" as="geometry"/>
                </mxCell>
                <mxCell id="LiqQDQ33SRliXtywbM7d-0" value="&lt;u&gt;AFX&lt;br&gt;&lt;/u&gt;" style="rounded=1;whiteSpace=wrap;html=1;fillColor=#f8cecc;strokeColor=#b85450;glass=0;shadow=0;sketch=0;fontStyle=1;align=center;" parent="f7GBS1QvWfyxKcQ8NaDb-1" vertex="1">
                    <mxGeometry x="589" y="340" width="160" height="40" as="geometry"/>
                </mxCell>
                <mxCell id="LiqQDQ33SRliXtywbM7d-2" value="&lt;u&gt;BOE&lt;br&gt;&lt;/u&gt;" style="rounded=1;whiteSpace=wrap;html=1;fillColor=#f8cecc;strokeColor=#b85450;glass=0;shadow=0;sketch=0;fontStyle=1;align=center;" parent="f7GBS1QvWfyxKcQ8NaDb-1" vertex="1">
                    <mxGeometry x="789" y="340" width="160" height="40" as="geometry"/>
                </mxCell>
                <mxCell id="LiqQDQ33SRliXtywbM7d-5" value="Historical Data Pull Submodule" style="text;html=1;strokeColor=none;fillColor=none;align=center;verticalAlign=middle;whiteSpace=wrap;rounded=0;" parent="f7GBS1QvWfyxKcQ8NaDb-1" vertex="1">
                    <mxGeometry x="140" y="250" width="90" height="30" as="geometry"/>
                </mxCell>
                <mxCell id="LiqQDQ33SRliXtywbM7d-7" value="&lt;u&gt;interest_rate_model_input_values&lt;/u&gt;&lt;br&gt;&lt;i&gt;&lt;br&gt;* Stores all input values for debugging&lt;/i&gt;" style="rounded=1;whiteSpace=wrap;html=1;fillColor=#fff2cc;strokeColor=#d6b656;glass=0;shadow=0;sketch=0;fontStyle=1;align=center;" parent="f7GBS1QvWfyxKcQ8NaDb-1" vertex="1">
                    <mxGeometry x="1050" y="285" width="200" height="80" as="geometry"/>
                </mxCell>
                <mxCell id="LiqQDQ33SRliXtywbM7d-9" value="" style="rounded=0;whiteSpace=wrap;html=1;align=left;" parent="f7GBS1QvWfyxKcQ8NaDb-1" vertex="1">
                    <mxGeometry x="130" y="470" width="330" height="240" as="geometry"/>
                </mxCell>
            </root>
        </mxGraphModel>
    </diagram>
    <diagram id="p1DeSHevdcy6hIb0FohG" name="model-flow">
        <mxGraphModel dx="1150" dy="715" grid="1" gridSize="10" guides="1" tooltips="1" connect="1" arrows="1" fold="1" page="1" pageScale="1" pageWidth="850" pageHeight="1100" math="0" shadow="0">
            <root>
                <mxCell id="0"/>
                <mxCell id="1" parent="0"/>
                <mxCell id="Vg95mpsj4_t47pI6RXcd-4" style="edgeStyle=orthogonalEdgeStyle;rounded=0;orthogonalLoop=1;jettySize=auto;html=1;entryX=0.5;entryY=0;entryDx=0;entryDy=0;exitX=0.5;exitY=1;exitDx=0;exitDy=0;" parent="1" source="Vg95mpsj4_t47pI6RXcd-1" target="Vg95mpsj4_t47pI6RXcd-3" edge="1">
                    <mxGeometry relative="1" as="geometry"/>
                </mxCell>
                <mxCell id="Vg95mpsj4_t47pI6RXcd-1" value="CMEFI Nowcast Model" style="rounded=0;whiteSpace=wrap;html=1;" parent="1" vertex="1">
                    <mxGeometry x="492.5" y="470" width="120" height="60" as="geometry"/>
                </mxCell>
                <mxCell id="Ht6yPTFx4Y3ZodgXniVt-2" style="edgeStyle=orthogonalEdgeStyle;rounded=0;orthogonalLoop=1;jettySize=auto;html=1;exitX=0.5;exitY=1;exitDx=0;exitDy=0;" parent="1" source="Vg95mpsj4_t47pI6RXcd-2" target="Vg95mpsj4_t47pI6RXcd-3" edge="1">
                    <mxGeometry relative="1" as="geometry"/>
                </mxCell>
                <mxCell id="Vg95mpsj4_t47pI6RXcd-2" value="CMEFI Structural Model" style="rounded=0;whiteSpace=wrap;html=1;" parent="1" vertex="1">
                    <mxGeometry x="337.5" y="470" width="120" height="60" as="geometry"/>
                </mxCell>
                <mxCell id="Vg95mpsj4_t47pI6RXcd-3" value="CMEFI Composite Model" style="rounded=0;whiteSpace=wrap;html=1;" parent="1" vertex="1">
                    <mxGeometry x="397.5" y="660" width="120" height="60" as="geometry"/>
                </mxCell>
                <mxCell id="Ht6yPTFx4Y3ZodgXniVt-30" style="edgeStyle=orthogonalEdgeStyle;rounded=0;orthogonalLoop=1;jettySize=auto;html=1;entryX=0.5;entryY=0;entryDx=0;entryDy=0;" parent="1" source="Vg95mpsj4_t47pI6RXcd-7" target="Vg95mpsj4_t47pI6RXcd-2" edge="1">
                    <mxGeometry relative="1" as="geometry"/>
                </mxCell>
                <mxCell id="Ht6yPTFx4Y3ZodgXniVt-4" style="edgeStyle=orthogonalEdgeStyle;rounded=0;orthogonalLoop=1;jettySize=auto;html=1;exitX=0.5;exitY=1;exitDx=0;exitDy=0;entryX=0.5;entryY=0;entryDx=0;entryDy=0;" parent="1" source="Vg95mpsj4_t47pI6RXcd-11" target="Vg95mpsj4_t47pI6RXcd-3" edge="1">
                    <mxGeometry relative="1" as="geometry"/>
                </mxCell>
                <mxCell id="Vg95mpsj4_t47pI6RXcd-11" value="External Forecasts" style="rounded=0;whiteSpace=wrap;html=1;" parent="1" vertex="1">
                    <mxGeometry x="177.5" y="470" width="120" height="60" as="geometry"/>
                </mxCell>
                <mxCell id="Ht6yPTFx4Y3ZodgXniVt-5" style="edgeStyle=orthogonalEdgeStyle;rounded=0;orthogonalLoop=1;jettySize=auto;html=1;entryX=0.5;entryY=0;entryDx=0;entryDy=0;exitX=0.5;exitY=1;exitDx=0;exitDy=0;" parent="1" source="Ht6yPTFx4Y3ZodgXniVt-1" target="Vg95mpsj4_t47pI6RXcd-3" edge="1">
                    <mxGeometry relative="1" as="geometry"/>
                </mxCell>
                <mxCell id="Ht6yPTFx4Y3ZodgXniVt-1" value="CMEFI Consensus Futures Model" style="rounded=0;whiteSpace=wrap;html=1;" parent="1" vertex="1">
                    <mxGeometry x="657.5" y="470" width="120" height="60" as="geometry"/>
                </mxCell>
                <mxCell id="Ht6yPTFx4Y3ZodgXniVt-31" style="edgeStyle=orthogonalEdgeStyle;rounded=0;orthogonalLoop=1;jettySize=auto;html=1;exitX=0.5;exitY=1;exitDx=0;exitDy=0;" parent="1" source="Ht6yPTFx4Y3ZodgXniVt-10" target="Vg95mpsj4_t47pI6RXcd-1" edge="1">
                    <mxGeometry relative="1" as="geometry"/>
                </mxCell>
                <mxCell id="Ht6yPTFx4Y3ZodgXniVt-32" style="edgeStyle=orthogonalEdgeStyle;rounded=0;orthogonalLoop=1;jettySize=auto;html=1;entryX=0.5;entryY=0;entryDx=0;entryDy=0;startArrow=none;" parent="1" source="Vg95mpsj4_t47pI6RXcd-7" target="Vg95mpsj4_t47pI6RXcd-2" edge="1">
                    <mxGeometry relative="1" as="geometry"/>
                </mxCell>
                <mxCell id="Ht6yPTFx4Y3ZodgXniVt-35" style="edgeStyle=orthogonalEdgeStyle;rounded=0;orthogonalLoop=1;jettySize=auto;html=1;entryX=1;entryY=0;entryDx=0;entryDy=0;" parent="1" source="Ht6yPTFx4Y3ZodgXniVt-10" target="Vg95mpsj4_t47pI6RXcd-2" edge="1">
                    <mxGeometry relative="1" as="geometry"/>
                </mxCell>
                <mxCell id="Ht6yPTFx4Y3ZodgXniVt-10" value="Yahoo" style="ellipse;whiteSpace=wrap;html=1;" parent="1" vertex="1">
                    <mxGeometry x="517.5" y="230" width="70" height="50" as="geometry"/>
                </mxCell>
                <mxCell id="Ht6yPTFx4Y3ZodgXniVt-15" style="edgeStyle=orthogonalEdgeStyle;rounded=0;orthogonalLoop=1;jettySize=auto;html=1;entryX=0.5;entryY=0;entryDx=0;entryDy=0;exitX=0;exitY=0.5;exitDx=0;exitDy=0;" parent="1" source="Ht6yPTFx4Y3ZodgXniVt-12" target="Ht6yPTFx4Y3ZodgXniVt-1" edge="1">
                    <mxGeometry relative="1" as="geometry">
                        <mxPoint x="707.5" y="430" as="targetPoint"/>
                    </mxGeometry>
                </mxCell>
                <mxCell id="Ht6yPTFx4Y3ZodgXniVt-12" value="CME" style="ellipse;whiteSpace=wrap;html=1;" parent="1" vertex="1">
                    <mxGeometry x="760" y="270" width="70" height="50" as="geometry"/>
                </mxCell>
                <mxCell id="Ht6yPTFx4Y3ZodgXniVt-16" value="Bloom" style="ellipse;whiteSpace=wrap;html=1;" parent="1" vertex="1">
                    <mxGeometry x="760" y="150" width="70" height="50" as="geometry"/>
                </mxCell>
                <mxCell id="Ht6yPTFx4Y3ZodgXniVt-17" value="AMX" style="ellipse;whiteSpace=wrap;html=1;" parent="1" vertex="1">
                    <mxGeometry x="760" y="210" width="70" height="50" as="geometry"/>
                </mxCell>
                <mxCell id="Ht6yPTFx4Y3ZodgXniVt-18" style="edgeStyle=orthogonalEdgeStyle;rounded=0;orthogonalLoop=1;jettySize=auto;html=1;entryX=0.5;entryY=0;entryDx=0;entryDy=0;exitX=0;exitY=0.5;exitDx=0;exitDy=0;" parent="1" source="Ht6yPTFx4Y3ZodgXniVt-17" target="Ht6yPTFx4Y3ZodgXniVt-1" edge="1">
                    <mxGeometry relative="1" as="geometry">
                        <mxPoint x="767.5" y="405" as="sourcePoint"/>
                        <mxPoint x="707.5" y="430" as="targetPoint"/>
                    </mxGeometry>
                </mxCell>
                <mxCell id="Ht6yPTFx4Y3ZodgXniVt-19" style="edgeStyle=orthogonalEdgeStyle;rounded=0;orthogonalLoop=1;jettySize=auto;html=1;exitX=0;exitY=0.5;exitDx=0;exitDy=0;entryX=0.5;entryY=0;entryDx=0;entryDy=0;" parent="1" source="Ht6yPTFx4Y3ZodgXniVt-16" target="Ht6yPTFx4Y3ZodgXniVt-1" edge="1">
                    <mxGeometry relative="1" as="geometry">
                        <mxPoint x="647.5" y="330" as="sourcePoint"/>
                        <mxPoint x="707.5" y="430" as="targetPoint"/>
                    </mxGeometry>
                </mxCell>
                <mxCell id="Ht6yPTFx4Y3ZodgXniVt-28" style="edgeStyle=orthogonalEdgeStyle;rounded=0;orthogonalLoop=1;jettySize=auto;html=1;exitX=1;exitY=0.5;exitDx=0;exitDy=0;entryX=0.5;entryY=0;entryDx=0;entryDy=0;startArrow=none;" parent="1" source="Ht6yPTFx4Y3ZodgXniVt-45" target="Vg95mpsj4_t47pI6RXcd-11" edge="1">
                    <mxGeometry relative="1" as="geometry"/>
                </mxCell>
                <mxCell id="Ht6yPTFx4Y3ZodgXniVt-47" style="edgeStyle=orthogonalEdgeStyle;rounded=0;orthogonalLoop=1;jettySize=auto;html=1;" parent="1" source="Ht6yPTFx4Y3ZodgXniVt-26" target="Ht6yPTFx4Y3ZodgXniVt-45" edge="1">
                    <mxGeometry relative="1" as="geometry"/>
                </mxCell>
                <mxCell id="Ht6yPTFx4Y3ZodgXniVt-26" value="EINF" style="ellipse;whiteSpace=wrap;html=1;" parent="1" vertex="1">
                    <mxGeometry x="30" y="205" width="70" height="50" as="geometry"/>
                </mxCell>
                <mxCell id="Ht6yPTFx4Y3ZodgXniVt-36" style="edgeStyle=orthogonalEdgeStyle;rounded=0;orthogonalLoop=1;jettySize=auto;html=1;entryX=0.5;entryY=0;entryDx=0;entryDy=0;" parent="1" source="Vg95mpsj4_t47pI6RXcd-7" target="Ht6yPTFx4Y3ZodgXniVt-45" edge="1">
                    <mxGeometry relative="1" as="geometry"/>
                </mxCell>
                <mxCell id="Ht6yPTFx4Y3ZodgXniVt-37" style="edgeStyle=orthogonalEdgeStyle;rounded=0;orthogonalLoop=1;jettySize=auto;html=1;exitX=1;exitY=1;exitDx=0;exitDy=0;entryX=0;entryY=0;entryDx=0;entryDy=0;" parent="1" source="Vg95mpsj4_t47pI6RXcd-7" target="Vg95mpsj4_t47pI6RXcd-1" edge="1">
                    <mxGeometry relative="1" as="geometry"/>
                </mxCell>
                <mxCell id="Ht6yPTFx4Y3ZodgXniVt-38" style="edgeStyle=orthogonalEdgeStyle;rounded=0;orthogonalLoop=1;jettySize=auto;html=1;entryX=0.25;entryY=0;entryDx=0;entryDy=0;" parent="1" source="Vg95mpsj4_t47pI6RXcd-7" target="Ht6yPTFx4Y3ZodgXniVt-1" edge="1">
                    <mxGeometry relative="1" as="geometry"/>
                </mxCell>
                <mxCell id="Vg95mpsj4_t47pI6RXcd-7" value="FRED" style="ellipse;whiteSpace=wrap;html=1;" parent="1" vertex="1">
                    <mxGeometry x="362.5" y="150" width="70" height="50" as="geometry"/>
                </mxCell>
                <mxCell id="Ht6yPTFx4Y3ZodgXniVt-43" value="&lt;h1&gt;Model Flow&lt;/h1&gt;&lt;div&gt;Updated 2/15/22&lt;/div&gt;" style="text;html=1;strokeColor=none;fillColor=none;spacing=5;spacingTop=-20;whiteSpace=wrap;overflow=hidden;rounded=0;align=center;" parent="1" vertex="1">
                    <mxGeometry x="285" y="21" width="285" height="69" as="geometry"/>
                </mxCell>
                <mxCell id="Ht6yPTFx4Y3ZodgXniVt-45" value="EINF" style="rounded=0;whiteSpace=wrap;html=1;" parent="1" vertex="1">
                    <mxGeometry x="130" y="205" width="70" height="50" as="geometry"/>
                </mxCell>
                <mxCell id="Ht6yPTFx4Y3ZodgXniVt-58" style="edgeStyle=orthogonalEdgeStyle;rounded=0;orthogonalLoop=1;jettySize=auto;html=1;exitX=1;exitY=0.5;exitDx=0;exitDy=0;" parent="1" source="Ht6yPTFx4Y3ZodgXniVt-49" target="Vg95mpsj4_t47pI6RXcd-11" edge="1">
                    <mxGeometry relative="1" as="geometry"/>
                </mxCell>
                <mxCell id="Ht6yPTFx4Y3ZodgXniVt-49" value="CBO" style="rounded=0;whiteSpace=wrap;html=1;" parent="1" vertex="1">
                    <mxGeometry x="130" y="270" width="70" height="50" as="geometry"/>
                </mxCell>
                <mxCell id="Ht6yPTFx4Y3ZodgXniVt-60" style="edgeStyle=orthogonalEdgeStyle;rounded=0;orthogonalLoop=1;jettySize=auto;html=1;exitX=1;exitY=0.5;exitDx=0;exitDy=0;" parent="1" source="Ht6yPTFx4Y3ZodgXniVt-50" target="Vg95mpsj4_t47pI6RXcd-11" edge="1">
                    <mxGeometry relative="1" as="geometry"/>
                </mxCell>
                <mxCell id="Ht6yPTFx4Y3ZodgXniVt-50" value="WSJ" style="rounded=0;whiteSpace=wrap;html=1;" parent="1" vertex="1">
                    <mxGeometry x="130" y="340" width="70" height="50" as="geometry"/>
                </mxCell>
                <mxCell id="Ht6yPTFx4Y3ZodgXniVt-61" style="edgeStyle=orthogonalEdgeStyle;rounded=0;orthogonalLoop=1;jettySize=auto;html=1;exitX=1;exitY=0.5;exitDx=0;exitDy=0;" parent="1" source="Ht6yPTFx4Y3ZodgXniVt-51" target="Vg95mpsj4_t47pI6RXcd-11" edge="1">
                    <mxGeometry relative="1" as="geometry"/>
                </mxCell>
                <mxCell id="Ht6yPTFx4Y3ZodgXniVt-51" value="FNMA" style="rounded=0;whiteSpace=wrap;html=1;" parent="1" vertex="1">
                    <mxGeometry x="130" y="410" width="70" height="50" as="geometry"/>
                </mxCell>
                <mxCell id="Ht6yPTFx4Y3ZodgXniVt-53" style="edgeStyle=orthogonalEdgeStyle;rounded=0;orthogonalLoop=1;jettySize=auto;html=1;exitX=1;exitY=0.5;exitDx=0;exitDy=0;entryX=0;entryY=0.5;entryDx=0;entryDy=0;" parent="1" source="Ht6yPTFx4Y3ZodgXniVt-52" target="Ht6yPTFx4Y3ZodgXniVt-51" edge="1">
                    <mxGeometry relative="1" as="geometry"/>
                </mxCell>
                <mxCell id="Ht6yPTFx4Y3ZodgXniVt-52" value="FNMA" style="ellipse;whiteSpace=wrap;html=1;" parent="1" vertex="1">
                    <mxGeometry x="30" y="410" width="70" height="50" as="geometry"/>
                </mxCell>
                <mxCell id="Ht6yPTFx4Y3ZodgXniVt-55" style="edgeStyle=orthogonalEdgeStyle;rounded=0;orthogonalLoop=1;jettySize=auto;html=1;entryX=0;entryY=0.5;entryDx=0;entryDy=0;" parent="1" source="Ht6yPTFx4Y3ZodgXniVt-54" target="Ht6yPTFx4Y3ZodgXniVt-50" edge="1">
                    <mxGeometry relative="1" as="geometry"/>
                </mxCell>
                <mxCell id="Ht6yPTFx4Y3ZodgXniVt-54" value="WSJ" style="ellipse;whiteSpace=wrap;html=1;" parent="1" vertex="1">
                    <mxGeometry x="30" y="340" width="70" height="50" as="geometry"/>
                </mxCell>
                <mxCell id="Ht6yPTFx4Y3ZodgXniVt-57" style="edgeStyle=orthogonalEdgeStyle;rounded=0;orthogonalLoop=1;jettySize=auto;html=1;entryX=0;entryY=0.5;entryDx=0;entryDy=0;" parent="1" source="Ht6yPTFx4Y3ZodgXniVt-56" target="Ht6yPTFx4Y3ZodgXniVt-49" edge="1">
                    <mxGeometry relative="1" as="geometry"/>
                </mxCell>
                <mxCell id="Ht6yPTFx4Y3ZodgXniVt-56" value="CBO" style="ellipse;whiteSpace=wrap;html=1;" parent="1" vertex="1">
                    <mxGeometry x="30" y="270" width="70" height="50" as="geometry"/>
                </mxCell>
            </root>
        </mxGraphModel>
    </diagram>
    <diagram id="olMGy6kiQGfFCUMwu1_Q" name="sentiment-analysis">
        <mxGraphModel dx="1150" dy="715" grid="1" gridSize="10" guides="1" tooltips="1" connect="1" arrows="1" fold="1" page="1" pageScale="1" pageWidth="1100" pageHeight="850" math="0" shadow="0">
            <root>
                <mxCell id="V8c6PqsVBuVOBjDPSUmE-0"/>
                <mxCell id="V8c6PqsVBuVOBjDPSUmE-1" parent="V8c6PqsVBuVOBjDPSUmE-0"/>
                <mxCell id="V8c6PqsVBuVOBjDPSUmE-3" style="edgeStyle=orthogonalEdgeStyle;rounded=0;orthogonalLoop=1;jettySize=auto;html=1;entryX=0.5;entryY=0;entryDx=0;entryDy=0;" parent="V8c6PqsVBuVOBjDPSUmE-1" source="V8c6PqsVBuVOBjDPSUmE-2" target="V8c6PqsVBuVOBjDPSUmE-4" edge="1">
                    <mxGeometry relative="1" as="geometry">
                        <mxPoint x="170" y="340" as="targetPoint"/>
                    </mxGeometry>
                </mxCell>
                <mxCell id="V8c6PqsVBuVOBjDPSUmE-7" style="edgeStyle=orthogonalEdgeStyle;rounded=0;orthogonalLoop=1;jettySize=auto;html=1;" parent="V8c6PqsVBuVOBjDPSUmE-1" source="V8c6PqsVBuVOBjDPSUmE-2" target="V8c6PqsVBuVOBjDPSUmE-5" edge="1">
                    <mxGeometry relative="1" as="geometry"/>
                </mxCell>
                <mxCell id="V8c6PqsVBuVOBjDPSUmE-8" style="edgeStyle=orthogonalEdgeStyle;rounded=0;orthogonalLoop=1;jettySize=auto;html=1;" parent="V8c6PqsVBuVOBjDPSUmE-1" source="V8c6PqsVBuVOBjDPSUmE-2" target="V8c6PqsVBuVOBjDPSUmE-6" edge="1">
                    <mxGeometry relative="1" as="geometry"/>
                </mxCell>
                <mxCell id="V8c6PqsVBuVOBjDPSUmE-2" value="Data Scraping" style="rounded=0;whiteSpace=wrap;html=1;" parent="V8c6PqsVBuVOBjDPSUmE-1" vertex="1">
                    <mxGeometry x="230" y="210" width="110" height="50" as="geometry"/>
                </mxCell>
                <mxCell id="V8c6PqsVBuVOBjDPSUmE-10" style="edgeStyle=orthogonalEdgeStyle;rounded=0;orthogonalLoop=1;jettySize=auto;html=1;" parent="V8c6PqsVBuVOBjDPSUmE-1" source="V8c6PqsVBuVOBjDPSUmE-4" edge="1">
                    <mxGeometry relative="1" as="geometry">
                        <mxPoint x="165" y="410" as="targetPoint"/>
                    </mxGeometry>
                </mxCell>
                <mxCell id="V8c6PqsVBuVOBjDPSUmE-4" value="DistilBERT Scoring" style="rounded=0;whiteSpace=wrap;html=1;" parent="V8c6PqsVBuVOBjDPSUmE-1" vertex="1">
                    <mxGeometry x="110" y="320" width="110" height="50" as="geometry"/>
                </mxCell>
                <mxCell id="V8c6PqsVBuVOBjDPSUmE-11" style="edgeStyle=orthogonalEdgeStyle;rounded=0;orthogonalLoop=1;jettySize=auto;html=1;" parent="V8c6PqsVBuVOBjDPSUmE-1" source="V8c6PqsVBuVOBjDPSUmE-5" edge="1">
                    <mxGeometry relative="1" as="geometry">
                        <mxPoint x="285" y="410" as="targetPoint"/>
                    </mxGeometry>
                </mxCell>
                <mxCell id="V8c6PqsVBuVOBjDPSUmE-5" value="RoBERTa Scoring" style="rounded=0;whiteSpace=wrap;html=1;" parent="V8c6PqsVBuVOBjDPSUmE-1" vertex="1">
                    <mxGeometry x="230" y="320" width="110" height="50" as="geometry"/>
                </mxCell>
                <mxCell id="V8c6PqsVBuVOBjDPSUmE-13" style="edgeStyle=orthogonalEdgeStyle;rounded=0;orthogonalLoop=1;jettySize=auto;html=1;exitX=0.5;exitY=1;exitDx=0;exitDy=0;" parent="V8c6PqsVBuVOBjDPSUmE-1" source="V8c6PqsVBuVOBjDPSUmE-6" edge="1">
                    <mxGeometry relative="1" as="geometry">
                        <mxPoint x="405" y="410" as="targetPoint"/>
                    </mxGeometry>
                </mxCell>
                <mxCell id="V8c6PqsVBuVOBjDPSUmE-6" value="Dictionary Scoring" style="rounded=0;whiteSpace=wrap;html=1;" parent="V8c6PqsVBuVOBjDPSUmE-1" vertex="1">
                    <mxGeometry x="350" y="320" width="110" height="50" as="geometry"/>
                </mxCell>
                <mxCell id="V8c6PqsVBuVOBjDPSUmE-17" style="edgeStyle=orthogonalEdgeStyle;rounded=0;orthogonalLoop=1;jettySize=auto;html=1;entryX=0;entryY=0.5;entryDx=0;entryDy=0;exitX=0.5;exitY=1;exitDx=0;exitDy=0;" parent="V8c6PqsVBuVOBjDPSUmE-1" source="V8c6PqsVBuVOBjDPSUmE-9" target="V8c6PqsVBuVOBjDPSUmE-15" edge="1">
                    <mxGeometry relative="1" as="geometry">
                        <Array as="points">
                            <mxPoint x="165" y="525"/>
                        </Array>
                    </mxGeometry>
                </mxCell>
                <mxCell id="V8c6PqsVBuVOBjDPSUmE-9" value="Category Aggregation" style="rounded=0;whiteSpace=wrap;html=1;" parent="V8c6PqsVBuVOBjDPSUmE-1" vertex="1">
                    <mxGeometry x="110" y="410" width="110" height="50" as="geometry"/>
                </mxCell>
                <mxCell id="V8c6PqsVBuVOBjDPSUmE-18" style="edgeStyle=orthogonalEdgeStyle;rounded=0;orthogonalLoop=1;jettySize=auto;html=1;entryX=0.5;entryY=0;entryDx=0;entryDy=0;" parent="V8c6PqsVBuVOBjDPSUmE-1" source="V8c6PqsVBuVOBjDPSUmE-12" target="V8c6PqsVBuVOBjDPSUmE-15" edge="1">
                    <mxGeometry relative="1" as="geometry"/>
                </mxCell>
                <mxCell id="V8c6PqsVBuVOBjDPSUmE-12" value="Category Aggregation" style="rounded=0;whiteSpace=wrap;html=1;" parent="V8c6PqsVBuVOBjDPSUmE-1" vertex="1">
                    <mxGeometry x="230" y="410" width="110" height="50" as="geometry"/>
                </mxCell>
                <mxCell id="V8c6PqsVBuVOBjDPSUmE-19" style="edgeStyle=orthogonalEdgeStyle;rounded=0;orthogonalLoop=1;jettySize=auto;html=1;entryX=1;entryY=0.5;entryDx=0;entryDy=0;exitX=0.5;exitY=1;exitDx=0;exitDy=0;" parent="V8c6PqsVBuVOBjDPSUmE-1" source="V8c6PqsVBuVOBjDPSUmE-14" target="V8c6PqsVBuVOBjDPSUmE-15" edge="1">
                    <mxGeometry relative="1" as="geometry"/>
                </mxCell>
                <mxCell id="V8c6PqsVBuVOBjDPSUmE-14" value="Category Aggregation" style="rounded=0;whiteSpace=wrap;html=1;" parent="V8c6PqsVBuVOBjDPSUmE-1" vertex="1">
                    <mxGeometry x="350" y="410" width="110" height="50" as="geometry"/>
                </mxCell>
                <mxCell id="V8c6PqsVBuVOBjDPSUmE-15" value="Model Stacking" style="rounded=0;whiteSpace=wrap;html=1;" parent="V8c6PqsVBuVOBjDPSUmE-1" vertex="1">
                    <mxGeometry x="230" y="500" width="110" height="50" as="geometry"/>
                </mxCell>
                <mxCell id="V8c6PqsVBuVOBjDPSUmE-20" style="edgeStyle=orthogonalEdgeStyle;rounded=0;orthogonalLoop=1;jettySize=auto;html=1;entryX=0.5;entryY=0;entryDx=0;entryDy=0;exitX=0.5;exitY=1;exitDx=0;exitDy=0;" parent="V8c6PqsVBuVOBjDPSUmE-1" source="V8c6PqsVBuVOBjDPSUmE-15" target="V8c6PqsVBuVOBjDPSUmE-21" edge="1">
                    <mxGeometry relative="1" as="geometry">
                        <mxPoint x="340" y="590" as="sourcePoint"/>
                        <mxPoint x="275" y="655" as="targetPoint"/>
                    </mxGeometry>
                </mxCell>
                <mxCell id="V8c6PqsVBuVOBjDPSUmE-21" value="Deseasonalize &amp;amp; Normalize" style="rounded=0;whiteSpace=wrap;html=1;" parent="V8c6PqsVBuVOBjDPSUmE-1" vertex="1">
                    <mxGeometry x="230" y="570" width="110" height="50" as="geometry"/>
                </mxCell>
            </root>
        </mxGraphModel>
    </diagram>
    <diagram id="w3noKNt2cgnj-M3CIWz5" name="sentiment-analysis-full">
        <mxGraphModel dx="1150" dy="715" grid="1" gridSize="10" guides="1" tooltips="1" connect="1" arrows="1" fold="1" page="1" pageScale="1" pageWidth="1100" pageHeight="850" math="0" shadow="0">
            <root>
                <mxCell id="rJtn-HCqNBm__StW7rE7-0"/>
                <mxCell id="rJtn-HCqNBm__StW7rE7-1" parent="rJtn-HCqNBm__StW7rE7-0"/>
                <mxCell id="K7ZEWpTRo4DuKBCqre1R-0" style="edgeStyle=orthogonalEdgeStyle;rounded=0;orthogonalLoop=1;jettySize=auto;html=1;entryX=0.5;entryY=0;entryDx=0;entryDy=0;exitX=0.5;exitY=1;exitDx=0;exitDy=0;" parent="rJtn-HCqNBm__StW7rE7-1" source="K7ZEWpTRo4DuKBCqre1R-1" target="K7ZEWpTRo4DuKBCqre1R-4" edge="1">
                    <mxGeometry relative="1" as="geometry"/>
                </mxCell>
                <mxCell id="K7ZEWpTRo4DuKBCqre1R-1" value="CMEFI Nowcast Model" style="rounded=0;whiteSpace=wrap;html=1;" parent="rJtn-HCqNBm__StW7rE7-1" vertex="1">
                    <mxGeometry x="492.5" y="470" width="120" height="60" as="geometry"/>
                </mxCell>
                <mxCell id="K7ZEWpTRo4DuKBCqre1R-2" style="edgeStyle=orthogonalEdgeStyle;rounded=0;orthogonalLoop=1;jettySize=auto;html=1;exitX=0.5;exitY=1;exitDx=0;exitDy=0;" parent="rJtn-HCqNBm__StW7rE7-1" source="K7ZEWpTRo4DuKBCqre1R-3" target="K7ZEWpTRo4DuKBCqre1R-4" edge="1">
                    <mxGeometry relative="1" as="geometry"/>
                </mxCell>
                <mxCell id="K7ZEWpTRo4DuKBCqre1R-3" value="CMEFI Structural Model" style="rounded=0;whiteSpace=wrap;html=1;" parent="rJtn-HCqNBm__StW7rE7-1" vertex="1">
                    <mxGeometry x="337.5" y="470" width="120" height="60" as="geometry"/>
                </mxCell>
                <mxCell id="K7ZEWpTRo4DuKBCqre1R-4" value="CMEFI Composite Model" style="rounded=0;whiteSpace=wrap;html=1;" parent="rJtn-HCqNBm__StW7rE7-1" vertex="1">
                    <mxGeometry x="420" y="650" width="120" height="60" as="geometry"/>
                </mxCell>
                <mxCell id="K7ZEWpTRo4DuKBCqre1R-5" style="edgeStyle=orthogonalEdgeStyle;rounded=0;orthogonalLoop=1;jettySize=auto;html=1;entryX=0.5;entryY=0;entryDx=0;entryDy=0;" parent="rJtn-HCqNBm__StW7rE7-1" source="K7ZEWpTRo4DuKBCqre1R-26" target="K7ZEWpTRo4DuKBCqre1R-3" edge="1">
                    <mxGeometry relative="1" as="geometry"/>
                </mxCell>
                <mxCell id="K7ZEWpTRo4DuKBCqre1R-6" style="edgeStyle=orthogonalEdgeStyle;rounded=0;orthogonalLoop=1;jettySize=auto;html=1;exitX=0.5;exitY=1;exitDx=0;exitDy=0;entryX=0.5;entryY=0;entryDx=0;entryDy=0;" parent="rJtn-HCqNBm__StW7rE7-1" source="K7ZEWpTRo4DuKBCqre1R-7" target="K7ZEWpTRo4DuKBCqre1R-4" edge="1">
                    <mxGeometry relative="1" as="geometry"/>
                </mxCell>
                <mxCell id="K7ZEWpTRo4DuKBCqre1R-7" value="External Forecasts" style="rounded=0;whiteSpace=wrap;html=1;" parent="rJtn-HCqNBm__StW7rE7-1" vertex="1">
                    <mxGeometry x="177.5" y="470" width="120" height="60" as="geometry"/>
                </mxCell>
                <mxCell id="K7ZEWpTRo4DuKBCqre1R-8" style="edgeStyle=orthogonalEdgeStyle;rounded=0;orthogonalLoop=1;jettySize=auto;html=1;entryX=0.5;entryY=0;entryDx=0;entryDy=0;exitX=0.5;exitY=1;exitDx=0;exitDy=0;" parent="rJtn-HCqNBm__StW7rE7-1" source="K7ZEWpTRo4DuKBCqre1R-9" target="K7ZEWpTRo4DuKBCqre1R-4" edge="1">
                    <mxGeometry relative="1" as="geometry"/>
                </mxCell>
                <mxCell id="K7ZEWpTRo4DuKBCqre1R-9" value="CMEFI Consensus Futures Model" style="rounded=0;whiteSpace=wrap;html=1;" parent="rJtn-HCqNBm__StW7rE7-1" vertex="1">
                    <mxGeometry x="657.5" y="470" width="120" height="60" as="geometry"/>
                </mxCell>
                <mxCell id="K7ZEWpTRo4DuKBCqre1R-10" style="edgeStyle=orthogonalEdgeStyle;rounded=0;orthogonalLoop=1;jettySize=auto;html=1;exitX=0.5;exitY=1;exitDx=0;exitDy=0;" parent="rJtn-HCqNBm__StW7rE7-1" source="K7ZEWpTRo4DuKBCqre1R-13" target="K7ZEWpTRo4DuKBCqre1R-1" edge="1">
                    <mxGeometry relative="1" as="geometry"/>
                </mxCell>
                <mxCell id="K7ZEWpTRo4DuKBCqre1R-11" style="edgeStyle=orthogonalEdgeStyle;rounded=0;orthogonalLoop=1;jettySize=auto;html=1;entryX=0.5;entryY=0;entryDx=0;entryDy=0;startArrow=none;" parent="rJtn-HCqNBm__StW7rE7-1" source="K7ZEWpTRo4DuKBCqre1R-26" target="K7ZEWpTRo4DuKBCqre1R-3" edge="1">
                    <mxGeometry relative="1" as="geometry"/>
                </mxCell>
                <mxCell id="K7ZEWpTRo4DuKBCqre1R-12" style="edgeStyle=orthogonalEdgeStyle;rounded=0;orthogonalLoop=1;jettySize=auto;html=1;entryX=1;entryY=0;entryDx=0;entryDy=0;" parent="rJtn-HCqNBm__StW7rE7-1" source="K7ZEWpTRo4DuKBCqre1R-13" target="K7ZEWpTRo4DuKBCqre1R-3" edge="1">
                    <mxGeometry relative="1" as="geometry"/>
                </mxCell>
                <mxCell id="K7ZEWpTRo4DuKBCqre1R-13" value="Yahoo" style="ellipse;whiteSpace=wrap;html=1;" parent="rJtn-HCqNBm__StW7rE7-1" vertex="1">
                    <mxGeometry x="517.5" y="230" width="70" height="50" as="geometry"/>
                </mxCell>
                <mxCell id="K7ZEWpTRo4DuKBCqre1R-14" style="edgeStyle=orthogonalEdgeStyle;rounded=0;orthogonalLoop=1;jettySize=auto;html=1;entryX=0.5;entryY=0;entryDx=0;entryDy=0;exitX=0;exitY=0.5;exitDx=0;exitDy=0;" parent="rJtn-HCqNBm__StW7rE7-1" source="K7ZEWpTRo4DuKBCqre1R-15" target="K7ZEWpTRo4DuKBCqre1R-9" edge="1">
                    <mxGeometry relative="1" as="geometry">
                        <mxPoint x="707.5" y="430" as="targetPoint"/>
                    </mxGeometry>
                </mxCell>
                <mxCell id="K7ZEWpTRo4DuKBCqre1R-15" value="CME" style="ellipse;whiteSpace=wrap;html=1;" parent="rJtn-HCqNBm__StW7rE7-1" vertex="1">
                    <mxGeometry x="757.5" y="370" width="70" height="50" as="geometry"/>
                </mxCell>
                <mxCell id="K7ZEWpTRo4DuKBCqre1R-16" value="Bloom" style="ellipse;whiteSpace=wrap;html=1;" parent="rJtn-HCqNBm__StW7rE7-1" vertex="1">
                    <mxGeometry x="757.5" y="250" width="70" height="50" as="geometry"/>
                </mxCell>
                <mxCell id="K7ZEWpTRo4DuKBCqre1R-17" value="AMX" style="ellipse;whiteSpace=wrap;html=1;" parent="rJtn-HCqNBm__StW7rE7-1" vertex="1">
                    <mxGeometry x="757.5" y="310" width="70" height="50" as="geometry"/>
                </mxCell>
                <mxCell id="K7ZEWpTRo4DuKBCqre1R-18" style="edgeStyle=orthogonalEdgeStyle;rounded=0;orthogonalLoop=1;jettySize=auto;html=1;entryX=0.5;entryY=0;entryDx=0;entryDy=0;exitX=0;exitY=0.5;exitDx=0;exitDy=0;" parent="rJtn-HCqNBm__StW7rE7-1" source="K7ZEWpTRo4DuKBCqre1R-17" target="K7ZEWpTRo4DuKBCqre1R-9" edge="1">
                    <mxGeometry relative="1" as="geometry">
                        <mxPoint x="767.5" y="405" as="sourcePoint"/>
                        <mxPoint x="707.5" y="430" as="targetPoint"/>
                    </mxGeometry>
                </mxCell>
                <mxCell id="K7ZEWpTRo4DuKBCqre1R-19" style="edgeStyle=orthogonalEdgeStyle;rounded=0;orthogonalLoop=1;jettySize=auto;html=1;exitX=0;exitY=0.5;exitDx=0;exitDy=0;entryX=0.5;entryY=0;entryDx=0;entryDy=0;" parent="rJtn-HCqNBm__StW7rE7-1" source="K7ZEWpTRo4DuKBCqre1R-16" target="K7ZEWpTRo4DuKBCqre1R-9" edge="1">
                    <mxGeometry relative="1" as="geometry">
                        <mxPoint x="647.5" y="330" as="sourcePoint"/>
                        <mxPoint x="707.5" y="430" as="targetPoint"/>
                    </mxGeometry>
                </mxCell>
                <mxCell id="K7ZEWpTRo4DuKBCqre1R-20" style="edgeStyle=orthogonalEdgeStyle;rounded=0;orthogonalLoop=1;jettySize=auto;html=1;exitX=1;exitY=0.5;exitDx=0;exitDy=0;entryX=0.5;entryY=0;entryDx=0;entryDy=0;startArrow=none;" parent="rJtn-HCqNBm__StW7rE7-1" source="K7ZEWpTRo4DuKBCqre1R-28" target="K7ZEWpTRo4DuKBCqre1R-7" edge="1">
                    <mxGeometry relative="1" as="geometry"/>
                </mxCell>
                <mxCell id="K7ZEWpTRo4DuKBCqre1R-21" style="edgeStyle=orthogonalEdgeStyle;rounded=0;orthogonalLoop=1;jettySize=auto;html=1;" parent="rJtn-HCqNBm__StW7rE7-1" source="K7ZEWpTRo4DuKBCqre1R-22" target="K7ZEWpTRo4DuKBCqre1R-28" edge="1">
                    <mxGeometry relative="1" as="geometry"/>
                </mxCell>
                <mxCell id="K7ZEWpTRo4DuKBCqre1R-22" value="EINF" style="ellipse;whiteSpace=wrap;html=1;" parent="rJtn-HCqNBm__StW7rE7-1" vertex="1">
                    <mxGeometry x="30" y="205" width="70" height="50" as="geometry"/>
                </mxCell>
                <mxCell id="K7ZEWpTRo4DuKBCqre1R-23" style="edgeStyle=orthogonalEdgeStyle;rounded=0;orthogonalLoop=1;jettySize=auto;html=1;entryX=0.5;entryY=0;entryDx=0;entryDy=0;" parent="rJtn-HCqNBm__StW7rE7-1" source="K7ZEWpTRo4DuKBCqre1R-26" target="K7ZEWpTRo4DuKBCqre1R-28" edge="1">
                    <mxGeometry relative="1" as="geometry"/>
                </mxCell>
                <mxCell id="K7ZEWpTRo4DuKBCqre1R-24" style="edgeStyle=orthogonalEdgeStyle;rounded=0;orthogonalLoop=1;jettySize=auto;html=1;exitX=1;exitY=1;exitDx=0;exitDy=0;entryX=0;entryY=0;entryDx=0;entryDy=0;" parent="rJtn-HCqNBm__StW7rE7-1" source="K7ZEWpTRo4DuKBCqre1R-26" target="K7ZEWpTRo4DuKBCqre1R-1" edge="1">
                    <mxGeometry relative="1" as="geometry"/>
                </mxCell>
                <mxCell id="K7ZEWpTRo4DuKBCqre1R-25" style="edgeStyle=orthogonalEdgeStyle;rounded=0;orthogonalLoop=1;jettySize=auto;html=1;entryX=0.25;entryY=0;entryDx=0;entryDy=0;" parent="rJtn-HCqNBm__StW7rE7-1" source="K7ZEWpTRo4DuKBCqre1R-26" target="K7ZEWpTRo4DuKBCqre1R-9" edge="1">
                    <mxGeometry relative="1" as="geometry"/>
                </mxCell>
                <mxCell id="K7ZEWpTRo4DuKBCqre1R-26" value="FRED" style="ellipse;whiteSpace=wrap;html=1;" parent="rJtn-HCqNBm__StW7rE7-1" vertex="1">
                    <mxGeometry x="362.5" y="150" width="70" height="50" as="geometry"/>
                </mxCell>
                <mxCell id="K7ZEWpTRo4DuKBCqre1R-27" value="&lt;h1&gt;Model Flow&lt;/h1&gt;&lt;div&gt;Updated 5/21/22&lt;/div&gt;" style="text;html=1;strokeColor=none;fillColor=none;spacing=5;spacingTop=-20;whiteSpace=wrap;overflow=hidden;rounded=0;align=center;" parent="rJtn-HCqNBm__StW7rE7-1" vertex="1">
                    <mxGeometry x="285" y="21" width="285" height="69" as="geometry"/>
                </mxCell>
                <mxCell id="K7ZEWpTRo4DuKBCqre1R-28" value="EINF" style="rounded=0;whiteSpace=wrap;html=1;" parent="rJtn-HCqNBm__StW7rE7-1" vertex="1">
                    <mxGeometry x="130" y="205" width="70" height="50" as="geometry"/>
                </mxCell>
                <mxCell id="K7ZEWpTRo4DuKBCqre1R-29" style="edgeStyle=orthogonalEdgeStyle;rounded=0;orthogonalLoop=1;jettySize=auto;html=1;exitX=1;exitY=0.5;exitDx=0;exitDy=0;" parent="rJtn-HCqNBm__StW7rE7-1" source="K7ZEWpTRo4DuKBCqre1R-30" target="K7ZEWpTRo4DuKBCqre1R-7" edge="1">
                    <mxGeometry relative="1" as="geometry"/>
                </mxCell>
                <mxCell id="K7ZEWpTRo4DuKBCqre1R-30" value="CBO" style="rounded=0;whiteSpace=wrap;html=1;" parent="rJtn-HCqNBm__StW7rE7-1" vertex="1">
                    <mxGeometry x="130" y="270" width="70" height="50" as="geometry"/>
                </mxCell>
                <mxCell id="K7ZEWpTRo4DuKBCqre1R-31" style="edgeStyle=orthogonalEdgeStyle;rounded=0;orthogonalLoop=1;jettySize=auto;html=1;exitX=1;exitY=0.5;exitDx=0;exitDy=0;" parent="rJtn-HCqNBm__StW7rE7-1" source="K7ZEWpTRo4DuKBCqre1R-32" target="K7ZEWpTRo4DuKBCqre1R-7" edge="1">
                    <mxGeometry relative="1" as="geometry"/>
                </mxCell>
                <mxCell id="K7ZEWpTRo4DuKBCqre1R-32" value="WSJ" style="rounded=0;whiteSpace=wrap;html=1;" parent="rJtn-HCqNBm__StW7rE7-1" vertex="1">
                    <mxGeometry x="130" y="340" width="70" height="50" as="geometry"/>
                </mxCell>
                <mxCell id="K7ZEWpTRo4DuKBCqre1R-33" style="edgeStyle=orthogonalEdgeStyle;rounded=0;orthogonalLoop=1;jettySize=auto;html=1;exitX=1;exitY=0.5;exitDx=0;exitDy=0;" parent="rJtn-HCqNBm__StW7rE7-1" source="K7ZEWpTRo4DuKBCqre1R-34" target="K7ZEWpTRo4DuKBCqre1R-7" edge="1">
                    <mxGeometry relative="1" as="geometry"/>
                </mxCell>
                <mxCell id="K7ZEWpTRo4DuKBCqre1R-34" value="FNMA" style="rounded=0;whiteSpace=wrap;html=1;" parent="rJtn-HCqNBm__StW7rE7-1" vertex="1">
                    <mxGeometry x="130" y="410" width="70" height="50" as="geometry"/>
                </mxCell>
                <mxCell id="K7ZEWpTRo4DuKBCqre1R-35" style="edgeStyle=orthogonalEdgeStyle;rounded=0;orthogonalLoop=1;jettySize=auto;html=1;exitX=1;exitY=0.5;exitDx=0;exitDy=0;entryX=0;entryY=0.5;entryDx=0;entryDy=0;" parent="rJtn-HCqNBm__StW7rE7-1" source="K7ZEWpTRo4DuKBCqre1R-36" target="K7ZEWpTRo4DuKBCqre1R-34" edge="1">
                    <mxGeometry relative="1" as="geometry"/>
                </mxCell>
                <mxCell id="K7ZEWpTRo4DuKBCqre1R-36" value="FNMA" style="ellipse;whiteSpace=wrap;html=1;" parent="rJtn-HCqNBm__StW7rE7-1" vertex="1">
                    <mxGeometry x="30" y="410" width="70" height="50" as="geometry"/>
                </mxCell>
                <mxCell id="K7ZEWpTRo4DuKBCqre1R-37" style="edgeStyle=orthogonalEdgeStyle;rounded=0;orthogonalLoop=1;jettySize=auto;html=1;entryX=0;entryY=0.5;entryDx=0;entryDy=0;" parent="rJtn-HCqNBm__StW7rE7-1" source="K7ZEWpTRo4DuKBCqre1R-38" target="K7ZEWpTRo4DuKBCqre1R-32" edge="1">
                    <mxGeometry relative="1" as="geometry"/>
                </mxCell>
                <mxCell id="K7ZEWpTRo4DuKBCqre1R-38" value="WSJ" style="ellipse;whiteSpace=wrap;html=1;" parent="rJtn-HCqNBm__StW7rE7-1" vertex="1">
                    <mxGeometry x="30" y="340" width="70" height="50" as="geometry"/>
                </mxCell>
                <mxCell id="K7ZEWpTRo4DuKBCqre1R-39" style="edgeStyle=orthogonalEdgeStyle;rounded=0;orthogonalLoop=1;jettySize=auto;html=1;entryX=0;entryY=0.5;entryDx=0;entryDy=0;" parent="rJtn-HCqNBm__StW7rE7-1" source="K7ZEWpTRo4DuKBCqre1R-40" target="K7ZEWpTRo4DuKBCqre1R-30" edge="1">
                    <mxGeometry relative="1" as="geometry"/>
                </mxCell>
                <mxCell id="K7ZEWpTRo4DuKBCqre1R-40" value="CBO" style="ellipse;whiteSpace=wrap;html=1;" parent="rJtn-HCqNBm__StW7rE7-1" vertex="1">
                    <mxGeometry x="30" y="270" width="70" height="50" as="geometry"/>
                </mxCell>
                <mxCell id="hbEfuimitvtJPxYePETt-0" value="" style="shape=image;verticalLabelPosition=bottom;labelBackgroundColor=#ffffff;verticalAlign=top;aspect=fixed;imageAspect=0;image=data:image/png,iVBORw0KGgoAAAANSUhEUgAAB3cAAAO/CAMAAADrj7x/AAABFFBMVEUAAAAAADoAAGYAOmYAOpAAZmYAZpAAZrYAv8QzMzM6AAA6ADo6AGY6OmY6OpA6ZrY6kJA6kLY6kNtNTU1NTW5NTY5NbqtNjshmAABmADpmAGZmOgBmOjpmOpBmZgBmZmZmkJBmtv9uTU1uTW5uTY5ubo5ubqtuq8huq+R8rgCOTU2OTW6OTY6Obk2OyP+QOgCQOjqQOmaQZgCQkDqQkGaQtpCQ27aQ2/+rbk2rbm6rbo6ryKur5OSr5P+2ZgC2Zjq225C22/+2/7a2/9u2///HfP/Ijk3I///bkDrb25Db/7bb///kq27k///r6+vy8vL4dm3/tmb/yI7/25D/27b/29v/5Kv//7b//8j//9v//+T///8k+s/PAAAACXBIWXMAAA7DAAAOwwHHb6hkAAAgAElEQVR4nOy9C/fsxnXldyUrI5j2OIk4I3PszCSccbzctiM6WZNIkxUzyYSwmEhCWmYWH+rv/z1yuxuPep56Fwrn7E3ef6PRQFXtA6B+qEIB+PCAIAiCIKiXPpxdAAiCIAgSJHAXgiAIgvoJ3IUgCIKgfgJ3IQiCIKifwF0IgiAI6idwF4IgCIL6KZ27S13VTm9gybEqxymsspQcq3KcOqw2AGqkwN1+kmNVjlNYZSk5VuU4BXfpYLCVHKtynMIqS8mxKscpuEsHg63kWJXjFFZZSo5VOU7BXToYbCXHqhynsMpScqzKcQru0sFgKzlW5TiFVZaSY1WOU3CXDgZbybEqxymsspQcq3Kcgrt0MNhKjlU5TmGVpeRYleMU3KWDwVZyrMpxCqssJceqHKfgLh0MtpJjVY5TWGUpOVblOAV36WCwlRyrcpzCKkvJsSrHKbhLB4Ot5FiV4xRWWUqOVTlOwV06GGwlx6ocp7DKUnKsynEK7tLBYCs5VuU4hVWWkmNVjlNwlw4GW8mxKscprLKUHKtynIK7dDDYSo5VOU5hlaXkWJXjFNylg8FWcqzKcQqrLCXHqhynV+Hu93/76c9/95r67aeffvqvf73Obh4MtpJjVY5TWGUpOVblOL0Id//wq188fvvnr8l/+oUyv3kw2EqOVTlOYZWl5FiV4/Qi3P3+73/9+Pavnq3cP/ynf1TmNw8GW8mxKscprLKUHKtynF6Eu9/+9e8e3//dk7jf/+2nn376avL+8Uf1KhkEQRAE8ZOfu//884273/6Hf1TavM1PQthKjlU5TmGVpeRYleP0cu3dl/ZrvM2DwVZyrMpxCqssJceqHKcX4e5xffclcLdYcqzKcQqrLCXHqhynF+HuH371N+t45meP8x/+V9xHVCo5VuU4hVWWkmNVjtOLcHe9f/fZ5P3tp5/+q73DuXkw2EqOVTlOYZWl5FiV4/Qq3PWoeTDYSo5VOU5hlaXkWJXjFNylg8FWcqzKcQqrLCXHqhyn4C4dDLaSY1WOU1hlKTlW5TgFd+lgsJUcq3KcwipLybEqxym4SweDreRYleMUVllKjlU5TsFdOhhsJceqHKewylJyrMpxCu7SwWArOVblOIVVlpJjVY5TcJcOBlvJsSrHKayylByrcpyCu3Qw2EqOVTlOYZWl5FiV4xTcpYPBVnKsynEKqywlx6ocp+AuHQy2kmNVjlNYZSk5VuU4BXfpYLCVHKtynMIqS8mxKscpuEsHg63kWJXjFFZZSo5VOU7BXToYbCXHqhynsMpScqzKcQru0sFgKzlW5TiFVZaSY1WOU3CXDka65gppdJCcXVyOU1hlKTlW5TgFd+lgpAvcHUxynMIqS8mxKscpuEsHI1kzuDuY5DiFVZaSY1WOU3CXDkaywN3RJMcprLKUHKtynIK7dDCSBe6OJjlOYZWl5FiV4xTcpYORqhnXd0eTHKewylJyrMpxCu7SwUjT/GztXgO8cnZxOU5hlaXkWJXjFNylg5Gmef8zvOTs4nKcwipLybEqxym4SwcjTeDugJLjFFZZSo5VOU7BXToYaQJ3B5Qcp7DKUnKsynEK7tLBSBO4O6DkOG1kdcgdGluVoeQ4BXfpYCRpVv6OLjm7uByn4C5LybEqxym4SwcjSeDuiJLjFNxlKTlW5TgFd+lgJAncHVFynIK7LCXHqhyn4C4djCTN2sfYkrOLy3Hairsj7tDYqgwlxym4SwcjSeDuiJLjFNxlKTlW5TgFd+lgJAncHVFynLaxOuajT7FVGUqOU3CXDkaSwN0RJccpuMtScqzKcQru0sFIErg7ouQ4BXdZSo5VOU7BXToYScrnbv+aTc4uLscpuMtScqzKcQru0sFIErg7ouQ4bcXdEcGLrcpQcpyCu3QwkjQbn+lr9pOcXVyOU3CXpeRYleMU3KWDkSRwd0TJcQruspQcq3Kcgrt0MJIE7o4oOU7BXZaSY1WOU3CXDkaSdu4m11PgbjvJcQruspQcq3Kcgrt0MJI0WxOxK4K77STHKbjLUnKsynEK7tLBSBK4W6Y2URjRaSOBuxwlx6ocp+AuHYwk5XO3f8024i4O7haqhdV5AXfPlRyrcpyCu3QwkgTuFqlRq39Ap63UirsDghdblaHkOAV36WAkCdwt0Qzulgrc5Sg5VuU4BXfpYCQJ3C1Qs8uIwzltJ3CXo+RYleMU3KWDkSRwt0DNriMO57SdwF2OkmNVjlNwlw5GkvK4O7uaes0ruuF2cXC3XOAuR8mxKscpuEsHI0WzYypqtdmq3drfWDTcLg7ulgvc5Sg5VuU4BXfpYKQol7s7cQ7agrv1NJzTdgJ3OUqOVTlOwV06GCmqx90OjyoYbhcHd8vVwOqs/B1J2KoMJccpuEsHI0XZ/czHn+MNvnK5W9v5cE7bqRl3xwMvtipDyXEK7tLBSNHsnIxbDdxduTtXH9s9nNN2Anc5So5VOU7BXToYKQJ3S6REoK734Zy2E7jLUXKsynEK7tLBSFEd7m7tvqKihDXaLr5dRwR3C1Tf6mx8DiNsVYaS4xTcpYMRKfPCZEI1dQxcef870NtUo+3i4G4FgbscJceqHKfgLh2MSBVz98CtbO42GD47mtOGAnc5So5VOU7BXToYkarH3Xm7ytu4phttFwd3Kwjc5Sg5VuU4BXfpYEQK3C3UfIRhAXdzBe5ylByrcpyCu3Qw4jRX4+4C7i7gbq7AXY6SY1WOU3CXDkacKnJ3cXK3frU32C4O7tYQuMtRcqzKcQru0sGIE7hbqrmd3cGctlR1q7NjagxhqzKUHKfgLh2MOFXlrqvNB+7mazCnLQXucpQcq3Kcgrt0MOI0H5dltxkJ624f8dx1JZ9YMQ62i0cYzNVgTlsK3OUoOVblOAV36WDEaX6NQy7irsJtirv+659X4q5VVnMGuJslcJej5FiV4xTcpYMRpzd0s7h7EJVq8s0Ek5OzfAncZShwl6PkWJXjFNylgxGn2aRmbC0109y1f1yvJDvSvxB37eKDu1XUlru+jXIKkrFVGUqOU3CXDkaU5kBrlVoznrsKccHdBIk+mAsF7g4gOVblOAV36WBEyVEnpXPXNbRIu/ZLc9eFYkoDcTc/fFESfTAXSrt0Au6eIzlW5TgFd+lgRKkJd/URzjt33zwGd+Ml+mAu06xNe7l7BnixVRlKjlNwlw5GlJzgiKqMZqLO0u8sWi8hbwR29NSm1X6nctcarB3seC6Q6IO5TBp3vbsquNtWcqzKcQru0sGIkvNqayR3qVTVUczz/mra+ercNYvvKjq4m6O6VnXSgrtnSY5VOU7BXToYUXLe1lODu1vKzLnr6javl53og7lA0V044G5bybEqxym4SwcjSj24u3DmrnOZWqrp9JQhRPE6hbvESOeGEl1Fc5Ucp+AuHYwYOWudKO6Sy5Dczb2gvGtw7lasysHdLEWfDIG7jSXHqhyn4C4djBh5q6PMNbcfZ427CxPu2s1193lLtQzB3SyBu6NIjlU5TsFdOhgx8l32yl7z+DGau8mVX2Ho8mtai7v5py1xAnezBO6OIjlW5TgFd+lgxKgRd5UF9o/XxKxzd17/9ORuwVCa2TxrAHerCdzlKDlW5TgFd+lgxKg5d+f923DcNT8jVwV3m6ii1fhr7uBuY8mxKscpuEsHI0K+Sqcdd/V1X89uvix3iVGylVQTRuCucy6421JyrMpxCu7SwYhQS+6qoPVwd17/uwx39cX9d4XmlMslcDdH4O4wkmNVjlNwlw5GhE7n7vayhHB+iobhro9l43HXetvjcGrMXe9McLel5FiV4xTcpYMRlrfOacZdfd3ZBHGcCrnrHvEVt+pyVe7OqTdr9Ra4y1FyrMpxCu7SwQhrAO5G56eonLuz0gBM5a5aanC3muodDwkX3cHdxpJjVY5TcJcOBqVA72417qqNQ3vds7j7/n/HaD53yeV8XxNUs58Z3HXOBHdbSo5VOU7BXToYlKRzd1lmYdw9CzKxAnc5So5VOU7BXToYlCK4G6iQ4tA8JnfX8hRyN/q0BdyNUGvuOmeDu40lx6ocp+AuHQxK53LXGNmUzd2sOlPh7ax+j1pVzfV63B15TDO4y1FyrMpxCu7SwaAUAOvWPAosEsrEOZhKmS7kbh5GjFOBlKo3lru61wLagbsZSuPuCeAVXUVzlRyn4C4dDErF3I2qrS7C3ejsL8tdvWd9SIG7DXT69pZDIzlOwV06GISsBw1bC6yto9ihQ/5UqLXP4K6JfzncHfsCb9WmfewPzLl7/omWHBrJcQru0sEgFHw4I7jrX/ey3F3AXccccLeh5NBIjlNwlw4GoTjuLo256+mEDmrnbk61MhtfErhrADeOu0VXVcHdZPmjLY6782kOd8mhkRyn4C4dDEK9uOtbShR3Cyo+cDdZ4O4ucLej5DgFd+lgEIri7vvTu0BcPtT8EbhrV0z+NHXu0uHTJsHdsCpZjdwqygxwt6Hk0EiOU3CXDgahMHdDbTqe3KUhqdML3K0qcLe6UocvNJAcGslxCu7SwSAUzd0AOcP5UPOH5G7MvVPgbn115e66AcHd1pJDIzlOwV06GIQi+pnNCd8CgXyo+by5O1uT6QJ3UxXeqfcNwpC7s7F3g7vdJMcpuEsHw6sZ3NVTONzO1F0/Sdxdb5Euq9qrc3dc8Pbi7nHr+jyXbZxsdeLu5u7Mp5TJoZEcpxfn7nma54//Pv4XtWzS7OjFZuPXyPTMRDJWm/UvekHekQmvOpsJOYo2v5IzjZ6j2THFS7P2QSwzr9vmuXXG2Dj1pB8Qm7uZkUMI0nSh9u78fiBGUYu19BTafGBWTns30GT35ax/0Zo8gfaP1mqks16fOjJIezc30D1VaHXWPohl5mW/R45de1c/qNHe7Sk5Ti/e3m0eDJ/WTmYO3M0oh85dvcPb6v72rRrm7kbdWc0nWeBurGK5O++XWRhe3wV3z5Mcp+AuHQyfwF3zWyPuKlEGd0PqwN3l2Cjgbh/JoZEcp+AuHQyf0ppg7sVqcNeqI2J1PneDpy1K04pOkxa4G6ng/ebbr/uGMTZ6TzXkrrWpE06xW0gOjeQ4BXfpYHi01VAl3C0+kOfFcW4eqwG4GwrfbC6WFzFwN1JzYNMt28/gblfJoZEcp+AuHQyPhuCumf8A3J2DbaYM17M1kSRwN1JxfcYHl8DdPpJDIzlOwV06GB6Nwt38BEu4O7u+6nU2uHuG+nJXhVH3kLSqoo0DAtztKTlOwV06GB6Bu+6ZM71MTmaDcDe/Z6Gj+nB3dk52FrjLUHKcgrt0MDwahLsFCbbmri/Vy3DX2agvKkh7FR0Ps70N3csx5q714s55nwvutpccp+AuHQyPUg9C1/LDcLeKG3dLIXbduOzA3YB6c3dmx133vXnmnQN9JYdGcpyCu3QwPAJ33XObcLdwXXA3SvvmC5rrsjOH1IG7xyS420dynIK7dDA8qkCq+sexP0XHL+BuKDPi4jlX7u4P5QwvGTGvqdr3MyuwBXf7SI5TcJcOhkfgrnvuHFqqyDW4G1DB8bC38fK88eDurH6Au90lxym4SwfDoyG5608S3M3IDNxNX72fOnD3CAa420dynIK7dDA8Sj4I7RUG4m5aWXxVs1k3XZu7pktwN2b1fmrO3VkJhnlK2VdyaCTHKbhLB8OjdO5aa4C7yTqRuwSEBxK4W6ZZ+QR3+0uOU3CXDoZHornrHzEV5G6Z6b7c1WIjhbu5L95hyV3tTRHgbnvJcQru0sHwKOMgNFcZgruz93cil9O4m7d6+k6yN3eOPGd7iQFVg7tlq3cTuMtQcpyCu3Qw3Mo5BjvU3L6eXRcpwV1/LhZ3rd5XdtydrYnM9XupNXft063TtrkcGslxCu7SwXCLCXez3mzrvQII7p6u87jbPSJ9uOv6sbvk0EiOU3CXDoZbWYdg+0uETiR25G74tYSX4e7Rs/j+Joa7pyWQqBZVtHLy4T6QzpEcGslxCu7SwXDratx1zH8sysOJ0rjr+2F23/Jasa/uJO7aT3ECd6snkChwl6HkOAV36WC4Be66fvDc8npZ7q5/wN0uCSSq9qGvDZ0Cd8+RHKfgLh0MtwblrqtD2dlNujThrnuGWqZS06dw9/WwfN7cNXsqcpJQ/vZQA+46X3CoLXGO5NBIjlNwlw6GW7ncndUvDeSoL8DdHO4qFBEwrqqGm+0cpVqCAVU99M1jBNw9R3Kcgrt0MNy6IHfNHx7q3Crc9SwJ7vYTuJunWd9Nwd2TJMcpuEsHw61s7io9WS3k4u77P6sjEdwlcpnB3Zw0jn/t49OUu87yg7vNJccpuEsHw60y7mpDOKrKzd3ZdQHvoVY27bg7G/13ZerC3SMu4G5aGi7utopUpUN/39CzY7Zr0RP0GHZ/qy1w9xTx5u7ejmrHXXU8kJapu5/5mJlQnDO5m5UAuBtSFTfzlblLvn2KnNlBw3O3WunA3VPEn7t7pd6Su+alKjd3tVKkdh7HLmqcBpS7zkghn7vHGZKjG2FEnctd52kKK+6es9VH5275YPhN4O4pEsPddkew1aesNrJV9eRuTrO6PPtNOdxVcuPP3TpeNO4eEbwId2P6M8Bdt8DdDIG7ZDDcKuOu4zkM1WS1bT1jp2Zwl8hiNifB3YhULstd8wmn3mXP4m6zKFYRuJshcJcMhluZ3N364Co8psCbh1rp7TPeE9py4C6RBUfu+ktcycseKXWjg7vlGp677iomQ+DuKRLBXasnuK7meYnirt592oS7Vt1bwTW4S2kg7i7Htm8Sq1rcXc+FB+fuoPvbW+BuhsBdMhhuFXDX7gmuK5u75sT7i4Hh+PQTy3J8XIi7yiS4GysHd+ercDeqjOCuW+BuhsBdMhhulXC3IIHYTGK4q1sFd51ZUNwdsSY8lbt7Yhfi7ryAu6U6tji4Gy9wlwyGWyNzV0/ek2VX7u6nw5y4O+QlN5K73gLXdaK2fmZruEE1ncHdk/AH7jIUuEsGw63MHazHwTMUd/XPKqhKTyNxJ3H2x9u5DlkVDsbd47a5+uLNXS2fR6tzlzoCd3ME7pLBcOuK3DV6n3tydysUJ+4OWRUOwd3jbOtC3E1YuofAXe4Cd8lgOJW7f3U7eELcnU2r0SVLssCHu3VK0lxZ3K3s4+DuOo5weO4m7PyncDfl1KCXjHrl/Q/cjRe4SwbDqdEOAkuDcFdfq07UwF1CQ3H3+A7uJsp+OdJoO5uTu8WlBHdPEbhbScncTehqyytPtSprHO4OuBuAu4kalbvGRaHx9jVwt1DgLhkMp0Y7CCwNx916lS+4S4iw6ndSm7vm99G5mzK24TTujrazgbuFAnfJYDg12DFgK527sZ7Yc9durdUsS2MNyd02cRLD3XlM7upVDLibKnCXDIZTgx0Dto7j1snd51Rf7taLGbhLiOSur7jtudsiUHVeeZh6AaQ/d+dRubvfwQ7u5gjcJYPh1GDHgC3nk9tO5G7JisXpBDeq9gwMFzbqlaWxRuCuK/lRufsq2+jcnR8dc47V8Ryy7W+N7QzuniJwt5Kct52qp9DgrpYkwd26ZWkscDekQu522uRqf9XB3RF2N7UfDdwtELhLBsOhIZ9UpCvA3ecfy2qcqdOtN+bugJVwgkbkbqMsxHB3uQR39xdMFAncPUXX4O7gb8N8anuxmZO770/p3FUrtlzunh8NQ/79l3g/gSzuqhdgMi6ctg7WXqR5p9pY3PXGD9xNErhLBuOaAncVgbsLuLtKH/gwJHdnN3cH6Wbb9iN3/MDdaIG7ZDCuKcbcTS8BuLuAu6tG5+58Ee4qXczua1l54lL/RgjcJYNxUbluPgB3tWT2Clgj0lC1cLLA3YAc3E1NoKnmebtxSDmCwV2GAnfJYFxUam+QOvP4AHe35GRwdwF3F4O7WaVqO7hjXo47isfk7vuuO3C3VOAuGYyLau2pqs7dAQ79utw138wO7rbQINxVnpIxMHetJvljy3iA3c3irrOKyRWb+jcscJcMxkW1HrPg7gLuvnQudxvkkcvd7YYXf797II2W4VI7cY9NNhZ3F4q7hUVkU/+GBe6SwbiowN1DKdxNTXyAeKgCdwOlGJ+7+rcRuaufGoC7eQJ3yWBcVAR313ng7vYB7rbXiNzNLFPDcNkMU7g7xAXere9756711sei5C9R/9bZCuAuGYyL6n18WMeEUvvaVmP2p/OP/Erc3QevyODufq3Q81Nr1W8lZhyq83EAXIK7WxkH5q5doqIyXqH+rbQrg7tkMC4qcPeQh7t7n4DaFOTJXfKVNuK4+972c26RwF39ErRriVxdof4Fdx/gLimLuzO4q6RSg7sjBEQRzV13YUVwdz0P3fo4SooD7pKXxrlzt9ZWAHfJYFxZ4O5LPbg7QFyeGpa7lXJRUsnhLhWGnDLUFs3dEfayMHeLCnmB+pc2Hy9wlwzGpQXuPgXu7g0954/NSlM/lzrcrVaG2rKSnsHd0QTuPlUjAmQwLi1c332K4O4+vKaEuyq3Txa461mPB3fP383G4e5Joah2sIO7ZDAuLZbcTS4Dxd2j2ZuVNLgbrSrIy+buupGqeG0XMJu7r79X425+KeM36rEr9I0JuPtSjQiQwbi07B3kOGTA3UrcrfLC70oCd32ZzyFcpCTWSp6UR+MujVZwN0rgLhmMS6uUuzFz+qsWd1dmKqfwGe7mvU4fQeOOqzqVu3PBBnam1ka+hMfjLlWOLtw9Mskbmp69Erj7Uo0IkMG4tKpz9/Tj/qmhuLs9eCO7wVxV4K4v74rnRuAuzbqCm7QSuLt3USXkVthI3plbYzOAu2QwLq1k7s7WnFCCJwjc9crLXf3T+WNjVchGa0mBu72lvA/hbO4qrc6E3EqP07nOjWhvgbtkMC4tF3e3eVHcNRNgxt1ZJVLmc+fn8uO5nsBdX97gbrGOhzFfl7s5rWRlfWqcRKLAXTIYzJTEXRtE7LirfC3hrvK051MF7vry5sHdMw/AaGoVXOBN525KZuXcRXt3VYUA0MFgJibcTTpsXBv13bmscjf3Sflaw3lM7s7WhPPXtgJ3sxMeh7vb5NW5m3+o6xMFAnfJYDATzV39eHI0AJlw175Ok8/d19rgblAnc7eEBo7UmogJdwtK2Z6725+MIs6OqXyBu2QwmCmWu1s37GwuMoDAXa8C3HUaBHeTi9FI4G4yd5O6McBdj8Dd1qK4q7wabR6Zu6lXYjtxd049H2igNO7Wu1gVofJslMtzS/ojBblwt/seNhufSzgC4G5Y4C4ZDGZK4u7Cnbv6nHLuJtUCLTQwd8vzUTsXM7hbzWergHnT1bnbew8bkLvHXpByxCm7e9aBCu4eqhAAOhjMFMfd40HOQ3I3kZDgrmNq/9atwOBubrrgrjP9fO46evKi19en8gXuksFgphjuqo8+NJpE4K6vQK/gDc9dvXjgbnY5GsifrNHP3HcXO/rA1FIE1snNLIe70bnlrWWur0/lC9wlg8FMqdw16uZBuJtWEAd37Up4LuZu7ml0TUVw16w+wd2sglQXkegQ3FVzvTJ3t6oN3D0E7rYWzd2jhuLOXdesgpp5LjicayrIXe0ZXd25W5ZXGXcrGj2Ru/27VHKejXgN7iY04I2FwN0KAaCDwU07XK7N3ZSSdODuchnuLqdytyjECndncLeXJHA3ardMxXRA4C4ZDG6iufveI9XdUqubx8Fufe6mpWnrgtztW+DZaGPkJADudt/HhuauceZI56tzV3taHbmifWSDuxUCQAeDm/ZdhuDuexrczRG46xPN3YhigLvLRbibXcIk7u79c5HZmtzVp3yLv382FqmwBcBdMhjcRHF3AXeLBe76NJOdpO25W0/gbnilPMVtVH0HVgCZzV1XgfVkZ/dv+QJ3yWBwUx53j112FJVx150eJ+56e8WOl5mdzN3kmuxV2n1/BHf7SIFT0kpZSuOuOUKB4O5sLzbvh4KTu+r5qb8E+QJ3yWBwE7jrXlkMd9UteyZ39WeBJ3H35SD+UK3usEXIqDRNq2dwNy3PK3D3OAUFd5PXKPcfCAY3RXNXRe2w3I0aiBjFXWJ2kq7G3X7lDXDXWZDZ+jICd1sEbVTurhVCYpZNuWvu2gpGqXWc3PX7A3cplfsPBIObcri7X0cZjbtxJbKc+lZixV0da4rO4u6iP8/LuJ8pzN1jh2TCXfukwqPoHbiB8o78XtzVvoO7uQJ3myvMXb0lCe6maTTuuh+J+f7szV27dXLsXQHuHiXdig3udhEP7mpvUpmNvWpva5iJKlVgoAgZAnfJYHBTLHfVj/15GoNx13nA2AJ3NV2Iu2YNeUyBu51Uwt30+qKEu9TOrL/BzMFdZ6Lgrlfl/gPBYCtw15lmqS7DXW8HWzNlcFdZ+tghZw7cNZ+PBu4+FbNRnU3TJZe76uFgflLcLd4E4C4ZDLYKcfeYsYzaz1ybuzU0DHe9dd8w3N2I+/5/dpzYadeAuXB3P5YuxN3UDE/grrPVui/ifxpzkLvujhhwt6bAXZK7AwncdSmGu4sWvGG4a73NaT5MaBXnnMjdBg7zMLQoe+y1uJtpuCd393I686Qevm7tlvsnuOtVqftgMNhKLHfbNtsH467/EXj9uzBmrR7Tubu1eFVGqSBWubtci7uap+UIvB77Qbk7ax+Jq43CXeskh0hV3UkJ7pZvAnCXDAZbRXJXqx8H0qwdG6QkcpcOzzjcnY8dzGyA8+Hu9rCPed49Ws37MblrtgLT1kvfu7K4q7dNXdydw+cAx4527Hfgrlel7oPBYCsm3I0oFrhrahTuHrxVuGvwdf8yuxKLzrWqUpKc107JeT78Hp97cknc7bHVtN0nOb/Mvaucu67NbV7BoFLVzv4Ch1CRwF0yGGx1ce7uB3U6d9sOyz41TCZ3PVbP4a62wTYU6eXUubsv7Noto7mbX94qac7av/nwOBPudJ3B3cJjvjd390jW4K5et3jWLN0E4C4ZDLaSyt3wpZ4ygbtemdxdtgcG+cnjAQcAACAASURBVLl7/L0od/eqWzGi9TcvLne6wF0zZWtWZe7O6pfociQJ3CWDwVbgbhuNxV3PcrNRwfQUzd150berd997RBZ9BO5qrmblRVDEc/kVncPdYLECq+esX8xdJ+qjai8VtdoXcNehQvPhYLCVx6q14xKPMD1V4K5DKnep5ga4W6b4RDczR3tqVuAwAnedaQX2n6hEz+Cuc4EE7mr0VXfHmHIkCdwlg8FWPu6a+xM/7rZ1Au4GRHF37RJUKsoE7rq9jMZd/Q6irdE7IndL9o6u3A3dCR1VCldtAu4+vv/bT3/+u3X6D7/6xTa70Hw4GGwllLsx13qKdBHursE7o7Sz+kcf5LxxV23BXJq7movXlN7f8opAOndrumLP3bhCeLjrPYhkcPeJ2t/++frlt5+Cu8W6PHf1LiFCqtOjzm+lS3H3lNJq28DNXbWAZdxtYzAy1VnrP19naSuz5e68+DYcpVzukguAuyH5ufv93//68e1f/fo1/e1//z+Au8XyXt+1ZozN3XC5LO42Fbgbkn7uE+Kur68virutxmvHVuVx3A0VsyV3PXfVxfYl+dPtyV16gTLu+taWwd1v//p3j+//7h+fk3/4T//bu5/5jz+qU8HkaLZnzO/Z1i8nazY+k1ZqpzHC9N5m3rLsP51R2tmR8b4x53fhjgLO3n3PnOlYiAhBkeJSPQo+qwZnbZHXf8mlrGZrnp3hLU9/rzeCyyWkGbM9HTVYVNquZalqL32jDSs/d//55zt3f/s3uL5bQbFW44Zcnii0dw/p7V1/Ufret2tlvnjDtI+rUtrDnvauNdPht9UzUlKaUO+p2Z75/hrx8OCG7V3reZX10t9uUqYyN5cIVEr+Xl8zVXIGsZq5dYi1C0N0tfbuxylwt4LA3TYah7tEUcbl7lKTu83uGavK3eCF1LbcdZ2cVEk+jbuvzxB3Y7ZnZe620jW4e1zf/e2nT/3NOr95MNhKJHc7eLgEd88ZyLzlvf+J+S2au45ziWZ77encreXrnXsb7gZT0lrEZ3PXuVuK5+4ffvU3x3hmtHcrKM3qqQ0kWuDuIXDXTG0M7moI1pcJtgq93K1hbaW+1XVQIelwShncbdfPDO469b5/993kBXcrCNxto4G4S+hM7gY7IMMdyIvJ3dnH3TaKSnh2Tlfjbo1O9HktwkncXY6h3HMkdzNyBHdDwvOq+inR6qkVNSlw91A8dxsXJJh5be46b8Zp5zIi5cBDlNQfMrkbDGRQW+7tuetKcTzudjwswF0yGGwF7rYRuBtUqLtQHHcD6sRdpcDVuevchOCuPuc0gbv9BO62EbgbVOh2kEjuqsvt98NEwa5cw3C37LjcW9uvf+24697gbbhrndaBuyGBu/3EhrvBg0Ugd4OFOHdrJnLXubSbu3GwK1cqd4vk5a5pOFmzOtGUu64kZ+UUrCp35xzuhvbKygJ3yWCwVapVDtzt4uHMIWiCubuAu+nSSHskVTNws/LP/gncVeacJnC3n+Rxt9NxdQnunqsaIbK4u4ji7nFJtiQbi7uzMbtcXu5qLxRbv9ThrvUI7Dj17dIDd8lgsBUfq+DuLuHcVRJufLUuhrvVMgtwtyAjvadeR2El+bg7K5ntg8Rqcdexa8SsGL1kBYG7ZDDYio/VUC2+Oo16uGsFtc/Gn/5FuFujfB7uKlMCuPuayM9IbxY24+7sSvN4StZcm7tLJne7Ctwlg8FWfKyCu7tEclepZ2fHVBONxN38nDTuzkdSHbirXBKYZ3D3Nec0gbv9xMhq1ONtC3vkEkoD7gbViruLQO4W5HQx7iYUC9xNEbjbT4ysRnO3R2GWuTnf/enPxueoqsNdhRKiuZudlYe7VQPnYXkH7iqnZQMK3CWDwVacrI7F3eYN3utzt4Jo7pYO9A0plHbVfSB4qObmNhtf5rkXd9Xep/nYhNW4q3B90GMB3CWDwVasrJLHlhjuzmK5a3Urtt4IY3E3t4fF5q55cbRceyTMzMyN9lwQ3D1F4G4/sbIax90+as5dL17BXWVe285+M3H7O7i7JRvL3RncPUngbj+xsjoSd+vWuWT64O5T+olOH+7aoTe+18w+4lCtw93F97LjAp3N3VEPBXCXDAZbsbIqjLvKRUxnxqPWNTW1c9d4E9Ep3DXfhlQ3+zjuZmRordKAu852p+syct1+5n2DjHosgLtkMNiKlVVwV8t41LqmpoLcbZu9xd35dO4m52iv0IS7jtxc3F3A3bME7vYTK6tCuWv03c2DX9KqKh93j5lNZXJXH0HdnbtZowrA3RMF7pLBYCtWVgfjbtvMwN2nRuOuullO5G7aNVDnvAG46y5CasGSA9JT4C4ZDLZiZXUo7rbOzM3dF34eY5/j19Rrq755Z3O3fQBm+8tGvrk2vZK4m5Dvydx1LAruniJwt594WaWOrkdogfpqzV29gbXOfXO3D3bOl5+7rfsbli1n48ve4qzdWxvJ3bWhHZ+uc9FmPQWzc1JfhOBuRkiHPhTAXTIYbMXL6nDcbZhfkLvD1jU1NQh356NyP5e7SzJ3PY3KVrEDdzWBu2Qw2IqX1cG42/QuFpK7JoXYysvdPmceKnfnbdbG3crZJ3E33ju4e6bAXTIYbMXLKrh7cHfYqqaq3lt1nkfjboPKPvZQZcNdVxnA3XYCd/uJl9XRuNu6n3mvY+dj7srdcauaqtqq6FcYxuDuzIG7zWI3O6bMRdSNaq8O7jYSuNtPvKwK5a5CnFdd9RDS2F1o7nYIAsndyornbkoBvI3OyPVTBe5qAnfJYLAVL6vDcbdhhu+U11e2HdydX9xtluto0rir/SKcu7ElOO9MtBd3+/R8ZArcJYPBVrysgruvKYHcdbCuR6N/v6arQKLVYPJK3DV6Bc47IsDdBdwNBIOteFmVx93Fyd1mmQ4ncNdRKIq79uizzpqNT8cSJHfTSzzy0H5wlwwGWzGzShxgnLm7SOeuK85yuav8dfw4BneJrTPvj5azlsl6qzW4Gydwt5+YWSWOZqbc1b+8qxhmG5USfatnc/m42yLvRO66y2DC7GrczTqbGniYIbhLBoOtmFklXjTOmrtHXQvuLv5Z1XVcZFdZC+4SWktAZDwrD0OxVgZ3mwnc7SdmVokajxl3zYuZ6mAaZhuV0jjcndW5p3J3L4Vn3hxYqK3m8CM891JW4i76maME7vYTM6vEEQ3uchT96prmujp3Twjb+z2VQe66x4axew4buEsGg62YWZXL3Vk2d8/S0TRTadZkq3PhLnmUbouAu/0F7vYTP6vgLsON6tXZVg9ENKcZE+4uhdxtVKaTBO6SwWArflbH526VU3b0M790tlUnd9uID3dDwQJ3TxG420/8rA7P3Tp1B7j70tlWj9E/w3HXO9YM3B1H4C4ZDLZiaNVzZJ7DXUeOTbi7gLunCNzNUZi7npiCuw0F7vYTQ6sEd88ZRmLNaMTdGdztLnA3R4Fsj0PEXJAZdcHdQDDYiqHV8blboxzg7ktnWx2au+4+EaWkZ2EskO9jBndPELjbTwytCubuOpPhRvXpbKv+pll1pVsdlrsBPfZTBnC3o8DdfmJo1X1sPh8+d8a9fz25O4O7vVXpqkGMqnF3nz8qxR6+k5lRC5wvcJcMBlsxtCqUu8qzqRluVJ/Otnph7o47RulwCu52FLjbTwytOg/O+VTumg9VaMTdbYrhRvXpbKtX5u6wFAN3TxG4208MrXq5e8oJ/huz4G4jnW0V3G0gcPcUgbv9xNCq6+Ccl7O4+66Zu3B3n2K4UX062+rQ3PUNS+o0ADtbHu4SL/m8rMBdMhhsxdAquMtwo/p0utV+O1U97tbaB1vJx93uBWkvcJcMBlsxtEpw9xQZrz0Dd2vqdKuX5G7PZnqGdO6qhWYncJcMBltxtOo4Pq/OXYqy9hyOG9Wj062Cu/WlcXf23szLQeAuGQy24mh1MO7qldy8/0lMwpgEd1863Sq4W18Gd4e/Hl0gcJcMBltxtOrk7onDN6tyd/ZWQuDuGeq3W5VzV9sLB8aYg7szx0FVC7gbCAZbcbQ6GncXi7vJlZ66vo/c4O4ZuiZ3B76JaLG5+9rphy5xtsBdMhhsxdHqgNw1B4eAu5V0ulVwt74Up+/dfR58AHa+wF0yGGzF0Spz7oZHZnHcqB6dbvWq3C0rS1u5uctS4C4ZDLbiaJUjd80RMeDuW6dbBXfry+IuX4G7ZDDYiqPVcbmbOzZzXsBdt863OjJ3jcJdBWHg7ikCd/uJo1X3LTbnHr8rbuca3A2ORuW4UT063yq4W10qd69S5kyBu2Qw2Iqj1TG5u16nKuTuNqgK3H3rfKvgbnWBu6cI3O0njlYH5i5x+2147X3FUOcbx43qEaySAncHF7hLBoOtOFp1c/dcp7POfnC3kmCV1Kx+XAZh4O4pAnf7iaPVQbk7g7v1BaukLs/d6xQ6T+AuGQy24miVPXdDrQCOG9UjWCW1cXdWvowvcPcUgbv9xNHqsNzVnn6RuLa2YmB1jhvVI1glBe4OLnCXDAZbsbRq9cOCu1wFq6T2fubzRxYmCNw9ReBuP7G0OiJ356UGd/UPn1huVLdgldSxv1zpxQKiN2oDoEYK3O0nllatd4YNwV214kurAudY4K5iuVHdglVSym5zGeoK36gNgBopcLefWFodkLtLOXdDT8s4xHKjugWrpC42kHmV6I3aAKiRAnf7iaVVjbvbuf5Q3E2rCsFdr2CVFLg7uMBdMhhsxdKqNYRpDO4uBdx9X+IFd03BKq1rDWReJXqjNgBqpMDdfmJpVbtTdiDu+r+G151ncNchWKUF7o4tcJcMBluxtKo/oWJmwt34AaksN6pbsEoL3B1b4C4ZDLZiaZUZd991J7jrEqzSAnfHFrhLBoOtuFrVuPv6MpbTLO7GrjCW1aaCVVrg7tgCd8lgsBVXq8rzna7BXaJuBHf9glVaF7tz9y3RG7UBUCMF7vYTV6scuRutsaw2FazSAnfHFrhLBoOtuFpVn2c8s+BuQuJjWW0qWKUF7o4tcJcMBluxtao+IQ/cZStYpQXuji1wlwwGW7G1ejnu+mtHcNcvWA0o/q7vcSR6ozYAaqTA3X5ia1V5Qt7FuZtebY5ltalgNSBwd2iBu2Qw2Iqt1dn8O5hTszIEd7MEqwElDIMfRqI3agOgRgrc7Se2Vq0nwg/mFNytIlgN6Tqv3d0leqM2AGqkwN1+YmsV3BUhWA0J3B1Z4C4ZDLZia/Vi3CW6A8FdQrAaErg7ssBdMhhsxdYqG+5mVJuDWW0pWA0K3B1Y4C4ZDLbia9W8c3Ewp/Z7Etz1Y06tOZjVloLVoMDdgQXuksFgK75Wr8ndlOdpeDWY1ZaCVYaS4xTcpYPBVnytXpK71sW4rMbKYFZbClYZSo5TcJcOBlvxtTobFBvMKbhbRbDKUHKcgrt0MNiKr1XziulgTp3ctUdXgbu0YJWh5DgFd+lgsBVfq4Nz1yAquJsnWGUoOU7BXToYbMXY6nwx7r47me12cLpGs9pQsMpQcpyCu3Qw2Iqx1etx154N7gYEqwwlxym4SweDrRhbNcYojeY0irt5916OZrWhYJWh5DgFd+lgsBVjq1fi7uyeDe6GBKsMJccpuEsHg60YWwV3BQhWGUqOU3CXDgZbcbYK7vIXrDKUHKfgLh0MtuJsdWzuasWb3bPB3ZBglaHkOAV36WCwFWer4C5/wSpDyXF6ce5C0OU0KxOzY7b1BYIgqJXQ3u0nOVaHczofE56mL9q7QcEqQ8lxevH2bvNgsJUcq8M5BXcrCFYZSo5TcJcOBlvJsTqcU3C3gmCVoeQ4BXfpYLCVHKvDOfVw1w/haA1ntZ1glaHkOAV36WCwlRyrwzmN4G4edsez2k6wylBynIK7dDDYSo7V4Zwe3J3B3VzBKkPJcQru0sFgKzlWh3MK7lYQrDKUHKfgLh0MtpJjdTin8/7pfTYkuBsSrDKUHKfgLh0MtpJjdTin4G4FwSpDyXEK7tLBYCs5Vodz6uOu9yUJ0RrOajvBKkPJcQru0sFgKzlWx3M6bx/gbrZglaHkOAV36WCwlRyr4zmdtQ9rvuunOI1ntZlglaHkOAV36WCwlRyr4zkFd8sFqwwlxym4SweDreRYHc8puFsuWGUoOU7BXToYbCXH6nhOwd1ywSpDyXEK7tLBYCs5VsdzCu6WC1YZSo5TcJcOBlvJsTqeUz9358XzU5zGs9pMsMpQcpyCu3Qw2EqO1fGc+ri7PzgyE7sDWm0mWGUoOU7BXToYbCXH6nhOwd1ywSpDyXEK7tLBYCs5Vsdz6oXr7P8pSuNZbSZYZSg5TsFdOhhsJcfqeE4J7r7ngrtBwSpDyXEK7tLBYCs5VsdzCu6WC1YZSo5TcJcOBlvJsTqeU6ozGdyNE6wylByn4C4dDLaSY3VApwRcwd04wSpDyXEK7tLBYCs5Vgd0SnJ3BncjBKsMJccpuEsHg63kWB3QKdWona3XA8ZrQKutBKsMJccpuEsHg63kWB3R6byAu2WCVYaS4xTcpYPBVnKsjuiU6EsGd6MEqwwlxym4SweDreRYHdEpeQ13BnfDglWGkuMU3KWDwVZyrI7olOZudrIjWm0kWGUoOU7BXToYbCXH6ohOwd1SwSpDyXEK7tLBYCs5Vkd0Cu6WClYZSo5TcJcOBlvJsTqk04LBU4SGtNpGsMpQcpyCu3Qw2EqO1SGd5o+dojSk1TaCVYaS4xTcpYPBVnKsDukU3C0UrDKUHKfgLh0MtpJjdUin4G6hYJWh5DgFd+lgsJUcq0M6BXcLBasMJccpuEsHg63kWJXjFFZZSo5VOU7BXToYbCXHqhynsMpScqzKcQru0sFgKzlW5TiFVZaSY1WOU3CXDgZbybEqxymsspQcq3Kcgrt0MNhKjlU5TmGVpeRYleMU3KWDwVZyrMpxCqssJceqHKfgLh0MtpJjVY5TWGUpOVblOAV36WCwlRyrcpzCKkvJsSrHKbhLB4Ot5FiV4xRWWUqOVTlOwV06GGwlx6ocp7DKUnKsynEK7tLBYCs5VuU4hVWWkmNVjlNwlw4GW8mxKscprLKUHKtynIK7dDDYSo5VOU5hlaXkWJXjFNylg8FWcqzKcQqrLCXHqhyn4C4dDLaSY1WOU1hlKTlW5TgFd+lgsJUcq3KcwipLybEqxym4SweDreRYleMUVllKjlU5TsFdOhhsJceqHKewylJyrMpxCu7SwWArOVblOIVVlpJjVY5TcJcOBlvJsSrHKayylByrcpyCu3Qw2EqOVTlOYZWl5FiV4xTcpYPBVnKsynEKqywlx6ocp+AuHQy2kmNVjlNYZSk5VuU4BXfpYLCVHKtynMIqS8mxKscpuEsHg63kWJXjFFZZSo5VOU7BXToYbCXHqhynsMpScqzKcQru0sFgKzlW5TiFVZaSY1WOU3CXDgZbybEqxymsspQcq3Kcgrt0MNhKjlU5TmGVpeRYleM0mrvf/Mkvte+///FX+/T/938mA9MpcLef5FiV4xRWWUqOVTlOs9u7CndNJGcL3O0ntlYncwZbp7ZglaPkWJXjFNylg8FWXK1O4K4IwSpDyXGa0s/8zZ/8z598+PD54/HdZx9+9B937n7zcebPvvzpx6mvf/rNn/zHDx9+8pvH44cvPnxQeqLB3dHE1epkNXi5OnUIVjlKjlU5TpO4+8lHon7946++++xnH9Grt3efzd8fvvj8m09+/NUPX/z08fz3+PoJYHB3THG1Cu7KEKwylBynadz9/PX56mL+Wufud599/vjmT7/SFnnOA3cHFVOrk32Bl6lTl2CVo+RYleM0rZ/5l6/PVzv2I2RV7j6+/unz/9fkR95+/eGln4G7o4qpVXBXiGCVoeQ4rcbdb/70//ri84O7qV3M4G5nMbU6LRZ4mTp1CVY5So5VOU5zuPvqRDbHM//wxX/3kcTvfuY//er3P8oZ4gzu9hNTq+CuEMEqQ8lxmsPd7z77qTau6n0d9+sPP32Obd7GVX1s8CbDF9ztJ55WJ+XvJp5OnYJVjpJjVY7THO4a9xE9Hl++kfsaUvUfPzy/vO4jSm7zgrv9xNMquCtFsMpQcpzWez7z64Jv2SM0wN1+Yml10j5WsXTqFqxylByrcpzW4+7Xz8HL4O5VxNIquCtGsBqU9eS24SV6o8Yy7/mcqqde3cmvZ2qAu9cRS6tMuRtdgV7farRgNShwd2BVa+9WELjbTyytgrtiBKtBgbsDC9wlg8FWLK2Cu2IEqyHZbwgZXqI3agOgRgrc7SeWVsFdMYLVkMDdkQXuksFgK5ZWJ+Pzpes7BXdtwWpI4O7IiuXu/+tWIWl1gbv9xNIquCtGsBqS/Wau4SV6o7oJB+7yEkur4K4YwWpI4O7IAnfJYLAVS6vcuRuqSK9vNVqwGhK4O7LAXTIYbMXSKlfuTvqnV9e3Gi1YDcjxRszhJXqjugkH7vISR6vuduH1ne7cDdWk17caLVgNCNwdWuAuGQy24miVOXfDNen1rUYLVgMCd4cWuEsGg604WgV3OxRmEMFqQODu0BqSu9999mGT8rpBcLeiOFplyt2te3laQlXp5a3GC1YDCu8t40n0Rh2Au099/STud599Tq7RPBhsxdEquNuhNIMIVklN4O7YqsPd18t39w9FP3xBg9PL3ZW4v0d7t404WuXH3en9Z1KmKV3ZaqJglRS4O7iqctcWuDuoOFqdHFOXdjpN7xoU3LUEq5SmKWJvGU+iN2oed//dhw+fP/H7zb/8yx9/9d1nH969xB/+6C8zubv1M/+MXKN5MNiKo1Vu3J2Waf+zKJ3NXl3XarJgldLkPUsbGsWiN6qPu3dLCnc/+dnj9z/5zZO7n3wE7Zc/e3z909fH7z/kcvfjqh8+hNZuHgy24mgV3O1RqjEEq4Qmf+/I0G9LEL1RfdwN9TM/ofv6//Hdv/nl47u/+Orj//n9zHFqHgy24mhV5+727bpO38h91ZTTBO5qglVC4O7wasLd521AP/rl66Lvl+DukOJo1eDu+vW6TsFdv2DVL+p53kM/tVn0Rq3A3b94DYYqae9+vd6+i37mRuJoddImtxrmuk7fJrYhMuCuKlj1y8vdCdwdRS24+7qw+5PfFFzf/XIdxvzdZz8Fd5uIo1Vm3H13loO7TsGqX2q/z2T8AO6OoSbc/e6zDz/65fMmoszxzMfjMrb7iL7/209//rvX1D9/+um//jW4WyqGVidten9O3mWdrtxdL9U537Vk6LJW0wWrfuncVW5CU46KISV6o+Zwt4783P3Dr37x+O2fP6e+/atfr1PgbokYWrW4+55zWafgLiFY9Uvh7hO1ap/J2E/TEL1RB+Du48uf/GYF8Luf+fu///WLuG8dU82DwVYMrbLkrnWtDtx9CVa9Ui+3TO8Tt4234O4oGpO775t3j3FV3/717x7f/90/rj++27t//FFVs4eurUn7MplzLqeXg0n9pn5CkFvKHvJx95n2mROLo0KYOnPX0D///ODut//+X20ARns3Wwyt6kNI0N5lLVj1Smvvbt8mtHeH0qDtXUN6e/eYah4MtmJo1Ry6Ce4yFqx6ZQ7rV6fA3UE0Jnd/+OLDj375vId3fTyzfn338U+/AHcLxdCqXZ+Au2wFqz5Nzml1IPOw4BW9UUfg7pc/fXzzyfNWpC/f4P3Dr/5mvaqr9jiDu/liaBXcvazVdMGqTz7uTs4lhpLojToAd1/3Eb2Qq9+/+7qJ6NNPcX23XAytsuKu9xG74O5LsOqTewfRnpcx6kOaRW/UUbj7fKMR3r/bSgytcuHuxltwlxCseuTbPyZ3O3goid6oA3B3v3/32eFMqXkw2IqhVV7cnTzPhQR3X4JVj8DdS2hM7q7g/eYTGrvgbrYYWmXD3feFXXCXEqx65OVu1FLnSvRGdROuM3cj1TwYbMXPqqMqYcBd+1dizctZzResehRHVHD3ZI3P3fWtgk41DwZb8bPKh7vvJxyAu5Rg1a1IoIK7JwvcJYPBVvyscuHu+mQhX9UI7r4Eq26Bu9dQvfcA2vrhiw//9Rfboy/A3aHEz6qrKnnOu5rTDbrgLiVYdQvcvYZacnd7HS+4O574WWXEXeoGS3D3JVh1C9y9hupx95tPnq8P+vLzxzd/9pvvPvvw468+/vmo51OnwN3hxM8quHs5qwWCVbfA3Wsonrs3Sxp3v/s3v3x+/P5nj4//f/nx709+g/buuOJnFdy9nNUCwapbsUAdEryiN6qPuxH9zB8R+d2//c3//ssnKj9yGNwdV/ysgruXs1ogWHWrmLtnAln0Rs3m7pcfPvz4qx/+4X/5t8+G7uOHfwB3BxY/q+Du5awWCFbdAnevoWrcfT5T+UnZr//bnz2qtncpNQ8GW3Gz6r7f9YLc9TymyvjdrYtZLRGsbtLfMwTuXkPVuPsaWvUnv3z9q3J99+sPHz7/entOM7hbWdys+t7CcimnR8UJ7gYEq4v15ozJe9O3Z9WkHzpI9EbN5O6Tk3/0l58/fvgfv3q+UOjDj78qu4/oy5/8P599/sMXeC9CG3GzOjR3b5HLxTRYwN2XYHXZ36BxfIt/wZ/vud/T5F+kuURv1BzuKvrmv4wHLcHd7z77/NlzjfcANhI3q1y4G67siCUGsNpLsLrsT/LevoG711Ft7n6dcL8uuHueuFkFd5chrPYSrC5vSB77TBJ3rd1oT2TyLdFeojdqGXdLpPUzf/3sZ/7uM/opk82DwVbcrHLg7hTPXfdiA1jtJVhdHNxNYGWQuwkXi5OE88anhuXu4/fPp10FHu7cPBhsxc3qyNy9xXM3oqoDd5+C1eU4UZv2faeMu1MX7vqTFb1R3YTrz90YNQ8GW3GzCu4uI1jtJlhd3mic9s807pqL7m1ncLeHRuXu8+LuR+H6biNxsyqNu84Fz7faTbC6GNxNpWQ8d2vxd7tFzpue6I3qJhy4y0vcrLLgblTluVW0Dp1vtZtgdTm4mzikalvZSsrN3eSUqvu6oAAAIABJREFUvTlOWrq2RG9UN+H6cvfrD5tw/24bMbPqOZQH4W7kwCpwN16wuig7TGIX876OltTa32JyN2qwX1Q2036O4FlW9EZ1E+6k9m5AzYPBVsyscuBuZAUH7j4FqyZtk+E4qR8HdxcD5dW4ewy+BneH5W6cmgeDrZhZFcdd56LnW+0mWK3G3b33d+PuPnKvOncDo79Eb1Q34bpz95tPXv3MzK7vthkimCFmu7gvrtMITsHd+oLVvN5ldfVJ+Vipq7MR3G2mUbn7wxc/++GLz0O9zc2DUVvgbhuNzN1b5IMzwN0EwWp5ZaKOL57UwVk7d/UHc+Rlsq887V/B3WG5+yTu+61G1BrNg1Fb4G59UUfyk7tnxxzcbSBYrcPdycVdZf86Op1zMznGaQXTK92oZx/pCRqZu1//lN19RMPsGYzqrQB3q90GkasE7kYu5nPMaKOGBKsVKhNlCLNKRXXcXil3rbuAwd2XWnA39f1/Lu4+vnxBN/AC3ubBqC2lI+dcMaq3mHA3tpjg7lPSrRZe210TmTbuaq1be+Iq3D37UI9Xo/ZuOXd/+OJnjy8/BN5u1DwYlaXcE3eyGNVbIe6eHe3bEgVecDdF0q3W4e56dEwaFF8TxlXZgiwM7q7JOxGZt1GVkVvn16uxqsTd7z778C/+4ZdP2r4au//5s8BA5DB3o9Q8GJW1PV7m/P2DT71FjtT4GPAHuMtQ0q1W4e6yHz0md/WMCrLyPm0S3DXneLg7WTq4+2ycfv2jg7vl/cw/fMHxuRngbn1pD9lx/AjucpR0q1W5q46n8iyWnX5z7irH/wD1aqzqtHe/+4uvHt/9m5rc5fm8KnC3no7jmeDux1CDuxwl3Sq1z6dIv37rTzI3s6OcPbh79qEerzrc/ebPfvP44R9qcvcRGFF1Ze7WOmZKdP16K467L6enRvum/KUE7qZIutVqdUjk9dti7poJVOTuMk1CuduivfuB4fOqwN160u55uD53o8s4+avK62/UaEm36h6YlKHIZKpz15ViLncXqdx9PuLi6x/98iN6H1//uE57N0rNg1FZ4G41KWNBwN1Vl9+o8RJuNeN9ux5dnbuT9vf0ejVW9cYz/xdP6H748F/9xRO6P3yB8cwOTcr/5+ry9Ra4a+vyGzVewq2Cu2si6gMRRqhXY1Xv/t1nY7dMQrhbayhikS5fb+mDKWjunhruttzVVrv8Ro2XcKv1WnYjcTc9k0mdAHfzBO720+Xrrek4yaVrIXCXo4RbPYe7GXmCu26N+nzmODUPRl29hwCAuzWkcZcK58vpiXduNeKuqzq7/EaNl3Cr3a9kFnDXsy64a8xxCtytoMkxdZIuX2+lcffEgAe5O6VVo+DuU8Ktdt+dg91K5HpLJHdT09crVHA3T+BuP1293lL6mKO5e07Qo7ibUuNM4O6VrSbvheAumbqWz2XQC+6SwagrcLeaLsPdm/bh0usVqNncVVe8+kZN0HWtXpO7qb0yx1oUd/WZU/KrsidtEtzNE3fuTvpucqquW2+9lcrd047Im/FpKzQg215e+QB3R5Vvi4K7x0+F3J0s7va/8J0pcJcMRlWBu/W0t/mCAz4U7p4R9EjuJgjcXS5g1buz1eDuCTty6tnhttbi62uqwV39y3oKPvmWGEngLhmMqhpph0izenZpbW3cdVzlNATuctTYVomdLb1BxpS77+sr2oyK3NXfszSewF0yGFUF7tYTH+4mP3pI5a5ec40No6oa2uq0d8q6mnng7pGiwd28M9Dtm8LdyXV4jCRwlwxGVYG79aRzl9IFuJuWIri7DG512pliHfJT6ig6l9Uz9uPxufuetZVzzXS8mustcJcMRlVdmLtnF9dSBnfPOQrrc3dfz1p5aBjV1dBWV7IeYDkGIUjkrmfNYu66Ft67GjbYD1dzvQXuksGoKnC3nsBdcHdYTcflRYO7a0sY3F127h6/VOXu0dU8pMBdMhg1NXm/nCAe3I0p2JjcVWobcDdDQ1udTOCsHDiAkLIvDsLdLIqR3H1fj52OZWtwdzmKKp6769t4Qy/lBXf7iQt3w0tuTqdhuZsncHdYqXua3tQFd40UG3J38i40gHpyNyRwt5/A3U5qzV11/aFhVFcjW52sb9qFxnVHFMVdX5ew+lM17mo/DFdzvVWJu7//8OH5ovvvPnt9fPPJhw+fP775l3/5468+zvnRL7/503/3mvGnX33zZ//Tc+q54B/9N+Z7A8HdfgJ3OwncbaKRrVrcNV5BNi1J13jH4G5er+3KXcpsXe7mLdRf8dydLR3c/e4vvnp8/dPH48ufPT+eb+J9MvaTzx8/fPH54/c/+b8/+dnHv795zXtNPRf8/Y8kc/fs/SHJ6jnEIgXugrujKoK7KW/CuD5345Z5cjcpAxncpdq76zvvnx9PBL9J/Oxdfvcwr1Pv/59Tz4V++Adw9zxdnLsJxdmdnuLiZk28pV7WyhO4O6Qms1OVC3ezck7g7rRcibulyVbqZ/7mkw8fm6/fffbhw/Pz8eWz2/nF2D/7jYu7z9ng7pkSyN201SqpHXe3i4ZKBT4sjOorwuo5u6zVg/zuVVZLY1zXDMmyeuKxCO5WSrbeuKrf/+Q3W1v3s88fB2Nd3JXY3rUPxzMF7vZRkLv5RZqUf2+Bu6qG5e7xQ5SG4258/ilkbMRdeynfamlZF26EOtx9XrLdLtu+ruM+vvmTXz4/ntd3v/nT/8PkrsTruxP5tbdSuXt2eQ2x4W7BiLXJqgbBXVXnDAa0zlF5cTdtlERT7kYu2oi7hVuhUnv3y30885OmX3/48Ed/+fmrrbuOZza5+3H2v5DW3iW/9ha420c3x9RT4G6ZwlZPeia+q5rnw91E4iRw9/n3ZO6m5T0EdzNk39TLmrvmZgJ3S5TJ3f4uPNy9VeDuYj2RB9xVdA53HXlOIe4GyjkWd+2OdHLZ6IUux90yncPdH754j7/SBe72E7jbR025az7LANxVdCHu0gUFdwsSd1S8nvWS9peLctctcLefwN0uurXk7ipw16le3LWu5roKAu6GFlq5W7sTG9wNC9ztJ3C3h27+9u7tqG4KBe46NQ53J3dlr/QzkyUVyV0rD/uG53LuTsZy1ZnvF7hLBqOers7dswusK5u7XV3cvF+m5cndW5WgFnB3qG2apKDV4pEvsarGXV9xx+NudAniltvdH9y1s3DNySqDyt1JX67u+QQpcJcMhkOZMY++vN9HsaGb9D+jqIS7/YyAu820P/3T8du+u3axl83dfdn19YBX4W7CIRTP3deS4O4p4sxd4vLOKQJ3O4ji7gLulsjB3UmbOIO77p1r8hXl4O7iQ/NT5lY9eaOdxl1zVjF3tSST9hdwt6rAXVNKnTFUHT0Md8nEgty91ePu1k+XseoVtVpVYbVjbN9ne9gzSpDC3W1mHHf104rzFHcIpcSf5q4WJDOHyNS1r+CuIXC3nzK4O9LLAAu4W9cGldjN/+0J3ak+d1OTG2mTpknjrn5ieLxVvgt31brb86JZ/7rbB3XR9LGlHUquk+K4m8AxkruTGiRzrdjUta9O7qbtL+BuVcWllxX063P37BJrAnfNIni4S2Zw0iOdasjF3b2G3rnb+LxiWvQYpuaXwN1pnKMwsr0b37PUmbtaJLWogruRKrYfCoZLorhr7qeDKJe7S3XuEqkFuLu8B1dVKMP2x1F38+buNhJY+asyrKm/qQZ396qfoJTO3fO3WAxQp0g8bwt7uav6bsjdybVodJoZAnfJYLjEm7uT8YUZd2u3gfK4++LtrRYWpqMGF8ldjb5627Exdyc9hsn7ln4p2rOyBO6+l1S5awO4Nncn629umhkCd8lguJQTdNc6px5BBHcn9cuzLgF3iXJEc1f92oy7VoqkWzbcfX8oNfRJ3E3NT78Kyo27Cc3Hg7v7Gcik/K/MVrOILa5ZMpu4OopDSVfYBuAuGQyXhHFX+zaKqnC3gp8i7j6v8JYXYavk3E2MAHdH2qZJUqvoaWvjGm2lZXzuxhRW4+4A26sBdycndyelH17nrgVhuihmydbklZ/B3SSV+w8Ew6WhuJubiM+qfv1zMn4bRgXcrVopD8PdrQYHd7MaRRlycjc5DfV4uwh3l+rc3aRz9yCkOtv+Ei6KWbL9gHnPmIzOBHA3pHL/gWC4NBJ3sztN3Vb1esCxyw6ilJIMy93njErcnV5Vx+R4n4sU7k4ncHeKa6+GUonh7pbNKDd+BYqhNigTFM/dpE5s8+s0LXq3l8ndGHuFAnfJYLjElbv7Oaq3IsjNrHplUchd9SgrKxt1iJpMtbjrWCa3ENK5+65He3J30rmb0gLTkonmbnYWLRQDpvS6yby+q+ZVk7vmsz/A3USV+w8Ew6n0sLvXKN98+QNjwF3t3s/8cozB3cXLXcogN+7aaBqeu+oG8oBK4e4wW+ts7ma/E2na147gri8PcLeuhHN3MlFUzt1J+VtHybB0PFb+TO6+lu/GXbquHqkFlSilila2pm2omb2Du2WN0fD14ctyNznVbZC6j7sKDxOgbp2IWbWmMfwd3A2p3H8gGE7x5O4xvqAWdyftmKmkcu7u9xEYZ+V5m3Uw7trYAXebyOTulHmDGrh7aH8ImYVKi7sJCnNXr/GOnQjc9ajcfyAYTiWH3bNC8eYrOBJ7cbe8Tekqw9W5O3kXylEud6tvm46yuLu5sRv8baRz1xiQmJumc6447jpQqYOwkLvEIiR3C2oKS+AuGQynUsPe7LSpMnf3xMzPxfM9oGm/Aa9ifVGFu0odffQxXZe7W8UP7lqNznbc3ci7B7nCWGNXCkpDfpxt1Zi7vsRO5O5kLFUocJcMhlNSuGulncHdrTFQTSkvOnmJ5u5RtvRqM1C7eLh70+BQi7uvv8K4q7dwAzVqbSncXcx+ooJE7e/TY+P6QNuKLomztRihIHezUq7CXW0kFrhbV9K5a0wWc3evLupVGMaI6whFcXeqz12LqAd3qaUytD/3Dty11Mree4epOERvS9X6flnupmtI7m6TyoUEcLeuwF1tspC7SnUxGHeVGlvhbuZ29a1lE/U1Z7pNN3KpDJHc9dtiwd2Frgzbcrf2cywc3H1uVfW6yBg6i7vJR7+5eGBdjbvTcTr+rh/A3VXl/gPBcGoU7mbsg7tI7vrO3/POM1Nuco9ItBZ3J4W21h19kWU5/trqyN2tODp39XN3fVH9RTgX1AjcXdpzdwJ39Z24N3e183Jwd1W5/0AwnCrZ7gXpONe/Andr1n7TsiTesEFxd3vuQT/uTmNwV61cLimbu25dmrvvB5GBu0qS7bl71H1KraBxt8ZmAHfJYDiVFHfiaCncfskjjFTR3PXUKXncTV4xlGg97ipv8RHH3WqDgU7RydwlYluarDL9/vqIc9pVZ3I37zB1fXEtOx0T4K5PFQJAB8OpyLi/Nxh1llq2AVty13O6kHjGkbdeONFa3N2TzKvXBuPucXPNWrCtTWYvyIm7tC7M3e0QBHcX7WhtyV2FrdoRAu5qqhAAOhhOxXJXf99UfkLU2s2460w4l7v1qoz0hJpwV0kgkbtP8pJLFUjjroOsk1JzWA9JuZZ4cndRunP2et79NImTRZalKXeTE0+qhxTuTgZ3s8/PXQJ3yWC4FRX4aa3giR2laAOW7QPh9q4/z0gNzN2DtYsyncLdI4ErcVcpsxDuNvLXhburatdyVcSWu0c26knqAu6qqhAAOhhuRR/wgUMzfwOGq/2AHG8LiMs2WkndO3mpRukk7jqAOhh3y3agkzUAd1ukzoK72UGJ62dOVS531YNF/QR3wV1wNyjnRlW5u+OoJndvPu7epqU1d49bDnXuGlUJuJutAgqEEwZ3HemVBHpyTgaWVauH4/y1aEyNKnCXDIZbtQ54Vtw1fwtyN6vk1birHozJrZcpuAFiuVsVvOt71JRb/dUCmh1l4G62WnLX6qUYmbu2/6kgKO24qx8RkSvZq5eXZRO4SwbDrRG4W9jT1Zy75lfHEZpTdHCXUJi76gn7mdwtzjSau038NePu4rg6MDB3XUf1mNydpim7aOoWAXefqhAAOhhu1eNu5iachuOu9Ro0a1FHezij7Ay4e7Nm1tJDKZ1+wv76YMbdyDSacrdBytfg7lpI+yhvwN0ilu+rT9lFA3dNVQgAHQy3wF3HL9flbnosI7jrmdmDu2btoBZ0DO6WP+aJM3eNzTcudx31V9HT2JtyN/+UQDsTKizLpmtz9yRNlRaa4lJyrjjtk3VU6GkyvdiLTtbX9LLXcztp3xJTnx7HBnCvdXPPvD25G16wVNNDLdak/tV/Mr90kbL3liWTuVx57u1iNm3HRf/NkqjJeQhX2rZmqkWJbhHNqnEee2WxH0bDb5pEob0bq/JndFdv7xpeHEtO1tf0sme4bdPeVZpszrU87d1bt/au2o+u/LXj3r+9a/WNZOgRf+zYHS3FuaO9u/feWnMLtm0rp/prknNX376gvTswd6O2cfZOqqQ+AncnuxPnUtxNTX3rtSJWc3P31q+fmT13o9O4FHd35l6Tu9oJabJG5a5RsYG7FQJAB8OtGKTGbJzMCki7hnI+d/encoG7h/zcXaRzt+gS4JHIie3dliG7EHf1Yq4zS6LTjLvbEZDdvahNg7sVAkAHw61a3M3cE4bk7mLtnoGVB+RubPKG2XjuLudwV7vb32wo9ubuVIu7uYtmPCYlP/OstK/N3Xw15m52UxzcNVQhAHQwPApHvjV3E4riVE3uTvYxGNGa5Mxd111Ez9nL8+bd7tylmyGncLc015Qa1ObuUliEDtxVsgB3SwXukgJ3I3MPNCxjVJm7k/FrHHfDmTrqzFTV527YrIe770WlczctV/eCU8Kh7+LuZDX7U9Q6ZJfgrn3QW99SNSp3tbTqbH1wlwyGR2FenMXd2PRMqwnEseaJ5C611m087vr3NHA3WeDuU9fh7lasKtutBrzB3UAwPIrgBbgbWPtU7ha9X9haypwxIne91jpzN7EK9AxfK+Xu4tsDslKsrYtwV/mrzcoWuHuKJHI3Y19w33vq/upVTe46Tn3H527C3OBS4G68srmrn22WcTepCOEUawvc3XQvS3ATuEtJHndjkgqk3ZW7rsUyuevopIrI7yLc9dLU5m5N8I7NXa2ePo+7k2d+gsDdp8DdAoG7ZDA8Opm7xPqxe0Vd7lrHoGju3vwwdWTQhrvmThLF3bY8KeOuMYj/TO42P1PRN9+o3F1FNAJS1Yy7NQXunsfd4A4G7pIrT9pqVH6ZzXlF1blrL3QF7npX6sVd/XXu8YfHpE+s9yJX4G623fY9BNpufwnuOhq/6boEd+tsfnCXDIZPYe7WSim0Rhp391+vyd2cXX587lYjbxZ31c3Skiincdd7wIC7NfQ+kNtw9z4id6sI3CWD4dOJ3CVRFGpn+7hb0Do32ksET8FdcLeAu9vuNYG7I+m9Vdpylx9+wV0yGD6dyV3qa3fuWvc0xXHXerm3L7+Lcjd+3SbctfvnY7hb6ZEAvmy0LQ7uRucwOHf3TVIeGB93GTZ7wV0yGD6FTu/AXXLlyThB9mVvt9vSBe6687V/G5C7k7qLgLtDqiV3Xy3dO9q7TcWHuwk7YGfubj+3467/AAR3R+duS6QUcFep1sHd4TSpG6dI4O4puhB3A92kZ3HXfPu8vbKbu9GFCHLX+bR0a+Up8mrfiNx1LFPGXe9DNpJVxl3zVY6VlcvdRX3f1f7Bm7uawF2GF3jBXTIYXu1NO++vCQmlyCafMhmsOk/lrtajGebunlpGORXl19DRyxRx1/8ShWRV4W4rquh7Bn3eqqzk4u5UslXB3cpqzd0VvbwE7pLB8KoadxcNQLGLu2eEX29Wm7tW9f4uQpi7mm3vw5IN7mYd1+CuJ1/ztxWF43F3O5uszd1Mq52xOzx3j54McDda4C4ZDK8mR2tM+TUh06rcDaVUg7tGC1f/OZq76gTBXSq3OHXgrj6Pwmg37kbka/y27YdNuas3NgNZbcsb3H19z96qxfsTuGtqr8HA3WiBu2Qw/KrN3dhVxuYu/VJzcNfJ3WoDq2pwt9k9vOBupi7D3eLAmE7vC7jbQeBu9OLOGREt58bcfc/ypmZz96hInen05m5EDr5ThEOJ3cxjcbfZszPMsyiiW+RYZNImdu4u4O54AndTBO6SwfCrNndj1xmAu2YL21wkyF2riS6au/Ue0cyVu/sVxGMPr8LdnB2q7U3OLl2EuxX2HAd3jyHNvATuksHwK65DNSqhxepQDS3unnFd7vrSAXeTVIO7rdpz6dxVXqK0jX4v4K5j3wN3q6oyd+/gbiddkbvufW1c7m4/Z3LXqC7dEErjri+Mk/3b+dz1bPCq3M2nsJ+7lAbm7j6pcfcpcHc41eXufePuC7ngbkNdirvkiOaa3FWqKuftuRaW6LZNMXeDIEzjri+M22xwN155x4N5utaPu5HniMeenc/dyXlwgLs1Be7GC9wlg0FofSBiuB4OpbP+ieCuc7EU7h7rl3A30DRKbu86zdvczazxrsbdgmFWmceD1h7szV1/bpM1WcJd6/TC/haXWG/syuTufX86JLjbWuAundbkzs6kWTR3c6raGO5S2dtLXIa70+J/DqdaG4O7nkxc3CUw5uDuMSd1q4K7F5DG3f1lRPsfTgJ3yWAQolqXFbmrcmcA7upP8U0174qZn7taQ2UA7k7E86+P2dRjMOK4mw3ewbmrbcEgd4k9fanF3Qyv4G47GdxVf+IGXnCXDAahWtzdCHMid5NOE6ZQTonc9TyPf+PucWVuBO56F1C4m568GO7qTVjiPMZ/PKxK3KrH3mSXKk3gbjsdTq0xzOBuO12Su85DN5G79Et8wN11sbwarwZ31yqboEExd2/KlxG4Wxsv4G6upHJXE7jbTtfi7qZy7k5l3DVpFs/diDWoNNJrLTd3F1eKSk25guBk7tI4KuXu3jutMThRBdzVibhkbNuYTCzuevf6UOdGBndduWVwN3mNUoni7spXcLejpHI30N5VaBXLXV99pnFXI3qanPzMXc/P3XViAO7ugQtyl2Smb+3bMZjqFkzErytxd9vtfdwN5A/uMhS4e4rYcDf12NRfCW6ldVSEUdwlXsNbl7vZlRbB3clYlKo041TC3b28wdyvzF3TnYXIGrK56zt5o1/1teos7vbHrjDuKoOYVYG77QTuepJS/vgXUrm7eAaKVuVuRtXsbSdb3DU5cDJ3gyAo5O5icDcPvNnHw2TE27n7FKHYPlNTuatt9agBdOAuMz3B+njetOu+bwjcbSex3FXA6v8lgbvL2NwlInY6dyfX1+bcPdZ7f5zMXfeAp27cjckpzeqWu+0pKZmcFcrFnrv3bfTyY799CNztKHCX+MWLLPu3aVk8Pc1HQjW4m7oWtaJZM57EXSOTjtx9D6jSWr3Jyj8eHK7BXX9KXSWMu9atu+9leheqscBdMhgx8veapiVRjbvrF3D3pdSNque8RSz8zrpVZdyNSsWrWty1Zy3hM4+EDN5zdO4ee0bUls7hrmMjgrsD6L6hFtw9ReAu8Ut17irtjKzy5tVAvkp1dO6GMr84dx1qzV1159u5q34hldc1VX6ogrv1dd+eCvnYOpnB3Z4Cd4lf0rnrKVgN7uZTMIe7BZhfenF3/x3cjUpt0Xa+9RZ26n46Q6cNgczJt0zcubu+dejJ3W0wM7jbU3K561/NaOtFc9dfMJu7eQOkcrkbsOAyOgJ3I1ejgXkl7pqFzd7ki2erG9xd6PvYDYG7bATuvuecpqtyNwJ4cQl5Z01OHClLOesrkrtKIy6juN25m1/fFXB3Ssga3CWTIladVu4uW6M3RrWspvX49H/57jI6d8uBuHP3Du6eInDXNys4mvYy3PWtZnB3Mn+Ux90M9I7LXWrN/XUTF+Bu/6czD87dex3uvt+3uz+sCtztqYtyd1EQpszITMc5qyl3c0qbf+Kfx92C+u4q3NVevDsCdyv29cdxdzmNu1tzO7g0uGsI3M0TuEsGI0rbybo+IzMd56wY7ropa89RuZtdm7bh7qRO6Ln1466SeW3u0ilJ5q6Sy1ncjdml0c9sqh53P/6/OXUkCu6207W5q3RZ8edu9fqH5G5RO6OUu7FdkO+PStxdbjmPrLomd41T1r7cPU6a47h7gsbl7t3dNk1PZf18GHNcSzERuEsGI07vOqmYu350hp/a4Ko13B3PF+Cuo+DgboRac7d2J8f26wjcjTpswV1N+wMvClPZPsHdUwTuvlaejq9VuTupdWcpd6tLbesOxN3oHu5y7mpPZWbD3Yg97FTubhcTwN103e/gbqbAXTIYcdK5W3LtUwOoUhUEU+TN3RKBu7myuZuxZWL2sJO5O21nuxFH2QkalrvvkVDVuLuAu+cI3DW5qyI4vKqzXMq3Sak7D+6OgV1wV195BO5q5e3E3dh4V7S69TSDu4m6e56lnJ7MKsopuNtMV+au2iecfXTq3E0CeDZ3z7gzwqX4TvVEZXBX7WXoyV1Fo3F3suYkpNFgF2tiFdxNkucV9VmpvATuniJwV3vwVA3uTo5vahUD7rpK4npFXXitl6pxd4D7iMq5O12Tu97yjszdCiOLE7Xdblt2LxG4u845TUy4W3B06txNIVCYu0efdW4eTTVFVHtZymrvHmcop3E3A7wDcjfhURhJAndNFeIvQ/tjLoq6m8Hddc5pujB3pzG563yYh8HdjGI2Uaui5PUz7/UwuKtOpnI35dGPSWrS+Rri7jnHSnR7tzObjnHI4G6ywF0yGJGaDu4WHZuT/jchrUzuDtPcbVeSrtwteEykrsG4m9kVcTHubkcRuBuZ4TGd39iO5C4z8IK7ZDAipdQuFY7NxtzV+3SH4W6rWi19o07Kv7O4G0zLpeowsvYStv3Mb63vRfIVeFzuVhpanCIts3v+1eVm3B0a1OAuGYxIJbwfPSq1jIRcAHVf3214LbVIY3I3aS223LXmxK5/Me5rLgLxAAAgAElEQVQul+ZuV9TcjW/jcXdk8IK7ZDAipZAS3B1M4G6+yrmb2m8Tq1Y316zcdZd4VO7et3f5dCSNlVVr7qadWNzB3Whdl7tvDcfdxVNjgrukwN1NhdxdD4gW+1izm1on4kxheO52BO8FuDtyTzO4SwYjSedyNzR70uaCu36Bu7usXRHc7a6gVeXdteDuvnD3cWZJAnfJYCRpaO5O+lxw1y9wdxe4a/x2giK4u1yXu+pqQe6qXcd0fuBuvMBdJZ1KBzm4m7dRwd2XwF3jtxMUxd1KD22MliOjjLzv+dyle5ErvbKhncBdMhhJGpO7k5qoOVeAenH3tTg37lr7NHvurgMlnGUGd/U8g7OCidybcrcgHK0DCe6SwUgSuDuixuFuYnpMuNvmFvEzuHvSve4hq3fPdFPV4K419gncPUXgrpIOuFtJmRvV29lIrQHu2itfjbv+wxjcJTNKzfsNxnju6g/noLuR72onQI7AXUrNg5GkqtytdIyDu9ncTQ0RW+5OxveklRv1zoK7u+7eLw11EnePxUPczSqSlUAzgbtkMJI0KHcdtd80DftSz+rqxt3nCjW5mw7eFht1Esfdl5zcbZynR1ncbc2NStzVVxqHu83v/QV3yWAkqRovMy4u+pNycXcBd0MCd98Cd8l5HeSxercm1C8ncDc1z3TuLrHcLYqC3Q5vIHCXDEaSquES3K0ocLdI4C45r4PcVu/DczdQBMcA7ETu+nMAd1ME7tZO6HVNCtzNEbi7asrjbvq4tCSdwN2zhkSkcbfTAzSc3L0HF6F/jtioGlErclcZsAXuBtU8GEkakbtbtWkkB+6GlDGIxsXd7LbiAu5Sar7/2oUfibvqpU6jvduFu87k73f/t6gkKnD3bi8VFQtwN0XNg5GmWnUNuFtR4G6ZjIZ/rAlwt5YcVu9e7i4bk9tyw536KNy9G18j7inSrxvTg7ZqCNwlg5GmMbnrSg7cDSnnppHJwd3ce1+XYbhrXKGIXwvcrSLL6l0jgwWIDtz1MHUE7urXfdfF7oHi7O+VOIIH7hJqHow0eV/cmZwOuFtN+c/NyFgH3N0Xa3u3q2juat2nzkaf9oSJ6gi5+5JUoBckfzvu3o3Fk7i7xLWPSwXuksFIU62qZsoZ1eNNy4lxcDcgcHcTuOub00eO9q766ePuSqB7/abv3QuxLtw9mrR2EnejcNuigSg4uVv/fEURuEsGI03VuDvVq7TA3X5ZTTYplQ2ZvEkvzt0GRTnUfqta5R+Fu/pAZicd7vedQA26TMPcDfV0653Bu6K4e19I7prDzPR/nkTvextX7aIGd31qHow0VWujVqy1wN1+Wfm5O2Vt0lTwgrsVZTm4EHfXn4vfDuBL2Jfk1lq8h0Dn/jVmo95D3PVmRHN3XVRdCNz1qXkwzlHlMSngrq0mnUg2d4/R5Nflrq5o7pYobLwLd7Vep7Owm83d46pm3X2dQOrWpduSu4uTu76L3fcU7hpdy+CuT82DcY5qH+IOjo9itb2cTtt0IknjLuGIBXeL7gKrJpK71I5MtAtLNA531V7hd9YZ3L2/tDi42xK84C4ZDB4Cd0214q55q+u0dzbI4m4hpG5B5x2sqkdNzSs/qcrmrr1GFQWv297vrl5bdW1j1PGmyI16rKwS2BOJe4C7annMJFp00q8Cd8lg8JBdaTQdqzeWnI/7aXQ87R2TRyt3G9nLhbuKDWLwX2lzF9w9ZFjVO1eH467SELWbn/t11CLuHqa1lq+7Tgtw97gny83dVhUluEsGg4fAXUPtuLsGWufu+wu4G6vhuNv6rihSAe5GaBzu3u8732pylzj7ULlrD5pSmOwoFLjrUfNg8BC4q6tZ/9EeaJW7k/5TgkRy97b9T6rPoap0X0jn7t0x5VpK5a616Hrg+TqFc7lL3Z2bxl3Hum1qSnCXDAYPgbu6enF3Urib02IakrtqIzC4TLpuI3FX2ZxjcjduL67C3cDwpO1HjWdduLvffeteVrkcbodONeVIpN0FXnCXDAYPgbuatCOuqibtdulpUu/gYs1d01sBd9+9zENx9zzmPqVavZ/F3dDwJGsx57J7M7gfdxeVu2qj/a7/5q0TwV1bzYPBRFadL5m7eg9TVd029K4jqTTuZiWXpK7c1dqA1bh7W8bi7nbB4ETp3L17vxG6WxOpOlBXhbvuZHK4G3z4ssJajbvaOQzRsAV3bTUPBhNZ2F0eYsB7Cncdd+zmVN6J4O3F3R1Gx3hfa5k8PQ2/biICd3f5uRu9E9fg7nbcFHB3S6GYu9Zl2TjuLuCuS+BuK01G3yq424W7mthwV4FRE+4u4K6mEbi7cymUAPnkCeXIK+LuonE3UCyCu3GPp2pSU4C7ZDCYaLrrFzDA3SaH0xMW07Q96Ugwd0u6mdU/fvU6VDOfNFZTilX6SqZfVbibM8rIS+F+3FXX0rib3ElfU+AuGQwmmtb97Nhf5XI3anxInkju5iYYM29VRxiZ3J3sBTJ0c0661O1Qjb91N32HiltD525yJmpG+40xiW079XJqVsbWt3O4qx/8yb0FFQXuksFgou14A3ebc3eZ1pcP1XjSwqDc3ZkL7iq6CHfNV9RGlOg+GneVFBMKZHI3Yb3qAnfJYDARuHtIPfQqB2Hj7pJ115AvQXOen0g9uatf+AR3O3E3Twp310FNHsC65x/d1KkF8F/trcTdlALlcrcFeMFdMhhMdFe6mN7f5XDXNKr2UbXhbuUEzXn2zG0OuFtfDblLPWZJUVXu0inx5u4C7joF7raSdO7e9a/bRBPutk5QHnddUehnNdrL9bl7X9zHRP5h0py7mcuXcLdKrQHuksFgIoO7Hz/AXU7cXWf1238nk7vl9yo/dWXupu9MgQctberLXdcvNbjreQWRpg4b9a59JK61fgF3KwSADgYTbdxddyBwd9nGmFRVH+7ac0/nrjl6uwJ3j2nnBe2eVuOUwV3Xi9ptHVazd1dHM8/RhvMyqQJ3o14x0I27Rd3lVaoNcJcMBhNJ5e5q+e7kbswZeJKqYzeSu/tjFTvuv/qDiw3ult2+a04PzF2t4zSHuzE7YAfuag99asTdiAD14m7ZZWpwF9yN1L7XH9xtMVhgOK0XrNzc1b7VkCTuvuXg7m2pzF33w5oH5G5Mi85YOZFGrbh7X9Syg7vutY5pcLeuZHD3NSWEu3eFuy7QDs5dV5KDcnebLuHuzfUF3HVmlyZH96rO4LvOSMfKBfkuY3E3vcEK7uoq9x8IBhMJ5u79sQ0bvSR3rU5WB4Z4cnf7djZ3KekdKYlPcby7d0lL1+fu/ah3SHXjbtZqx6Qc7n7/t5/+/HevqW///aef/mKbXe4/EAwm2ve2faeRxN0F3G0kF3dvQrhroiSHu9qnT424a15xuds/FGe7ty/jLupchbsVqo1rcPcPv/rF47d//pz6/u/+8fHtf/jHdX6x/VAwmEgsdz8e8Y9FQa5ZMV6Su2ZG+yxwt5+s9762525Ru9OBi5WG9/bcjWvYd9moec1VF3eL6o5rcPf7v//149u/+vXHqX9+0veftgZvifOoYDDRcdBtdy5I5a61QEU1ub47OneP+4netP3I3SrDqq7BXfMC5qW4q81zjj0szjetdTg8d++LLO5++9e/e7V033pP/fFHdSnW9XXf/6x/9Sm2+mjxfni/P2zTVYNwq5nYnuTNmvO43exZ9fOO0fTxv9fH9udZtik3NdvWwxWCIXR/7V3HDvTe11L2p7vxGb1Chu53197/tmAnfreWys94tIombRsda20f3qrkuvJz959/rnD3D7/6m21+yRlH1EkIDznOzES0d19tkG7t3QbNXUdjz/Fy2vPau9rzM6a1LLeq7V1H+/6p0w9VR3t3Sdmf1Jdy0qrS3r07G56h5zEX55vWvOzT3s2xc7R3vVVJmq7X3v3+b3fsgrtxEszd5cVdvYPIXKSSOnLXvtH1dR34BO5OCndXRNbnriO0px+qK3X3CjmZu/7rqYbq9DO7Cei+IF2VuwnXvMfl7rF59WEy2boGd4/ru49v//0vjvll3iOCwUPg7lW5ayfr4e7rUjBD7t5G5q4ybEK9AuhZXP9+Ancd67uTrMjdpJW7bNS8xyvvY8+M7Z2ra3D32bX8Hs+sYRfcjZNk7i4bd309bdXUk7uu1wbcbg9Pp2w76dy9vTCZzV1nj/qg3H3tTOpwRWW+b3nte1/uLkmoqMndFJ29UQmtzdy7LO6u9+9+bPL+9tOnMJ45SU7ulu87wyuGu/VicDZ3P7Z3byv6uknl7rPBW5O7y8sMF+5aLBuYu+qSPWuJszcqIZO7pUG5CHc9KjQfDgYPeblb+0V4qWqcvc5d51WZ8bnrvrtGmaty9w2+RgVxaFKfzTy9b3t6cjerCDZ3b7eq13cr7m4md0NZXJW7ifdGlWnk+ve9rbfNCO7W1MjbPUNUZfDQhoWcpNbYj+BuxQiczt1t7O9J3L0d3M2jv6O9W3dcVQvuGsMGIrl7j1lnFbg7gnTuFgcF3CWDcWmNxt2WjU1/hip3o0eWRKWsqxnt0rjbsiS2DO5u87K4a63g6kvfNBJ3I9qu5q53He72rCJGrn8N7pYK3CWDcWmNz93G+cdwN68Ie3/TMUskdxeVu/tl3nezN7UYl+OuedGPyMLsavF/sXUmd51dRM00cv3rHB2SL3CXDMalRXWKjMDd5gd1M+66bhvpw92bPffC3NViT3HX+jGPu/V2N4W7WiuI4q42WslKzKtH1FJhpbiv1Z2apqHr37q1FbhLBuPSAneff1py934edw+uHbMejUvilMLd436iJW5cNc1d6sdM7lbb3w7uLsnctfbDTtzNWBbc3VW3sgR3yWBcWhHc7Xpg9ebuO/E23N3bOrvkcvd48676/Az7lQ62NA7Sixu/5rZ3K+1wd+WvOsGGu4bBPhq7/q06GgXcJYNxaYG7T9Xi7l2f3q/tbWpHu5vyx+aukm8P7lqJq9x9vxBwXO6aWWbLm4ifu++nHd1d9B+PuxVDlaCx619wd1fFQLiDcWlRD697LJ4HSTQsjqu2adnV3Yy7e+D6cXd9fsTtfO6a/cc2d99fwty9n8HdOvtbEXddJ6CEzuNuYYbJGrv+BXd3VQyEOxhX1t6cdO0vw3DX0/dXo1wad50Vnjsn9xyDu2t497kNYadw15y9nNDejeNuxJ1E97sW1ebcrdh3msjd/aLE3dnJBO6+NXj9C+5uqhgIdzCurOG4a2RGcZc8t0xroR7cdad6t77YxVz/3Y2lenPXeUeRzd2m4LWbsQp2S7gbWPr63F17XJLPMmtxN0ngbluBu2Qwrqy7EyOrHkv3Y8vNXTcNyTvUs7kbrvP2hok+63Tu3habu+vX7ty1G7xKplMr7hq/53O3YleK5wdvD8r9Otz1FLSteNW/pMBdMhhX1n5NyfVjd+7aVc5OMbscBufslCKzfOpxZEIspZXlbs3RIrm3m8DdpwzurjcVXZ27dHHSuKvs6eAuIV71LylwlwzGlbUixH349OeuVZS7OuHpgnamFFnodalS7m6AVR6KrpZjW1Yud7VM1au9sdy9K+uTGdu3TCWpB3e3nhq7F2UBd0PiVf+SAnfJYFxZQ3HX7ua9q5P2Y+P9R34ed0OLrV/uZvr3Dbr7ecCB327cve1/9flGxt24e1O+6ZPaKKsIdo3K3cBo7Ezu+nZecPclXvUvKXCXDMZldQ/A63TuqqQ1uXs3Ps2kIgp9nHCEuLtXx1utqPV+Ho3dPUmtf7wHd7dBVaNw9/2CPjOnPO4e254Ld809SNlfr8Td/nfvsqp/QwJ3yWBcVMrdCp7DZ+OuUUc0LNGiZxTDXW8d5b2CpiafxV01dOuPo3DXyuE87h6DqW/aD8t+tZfgrn5WtW37YJkJ7kb6pU/nzNyKuKvt3druHB5Tb+oRsQwPsal/wwJ3yWBcVMp1JM/hypy7SgCCG3Wv/z3cfV/a3fqbzdJ14e7rzxDc3W8jXifSuWs8RW07m4nh7q0nd21rjqQcmRDc9a9J7dDgLkOBu2QwnLIY0kJF6R8XIynu7ouWZBVdokVn/Fjc3bjq5e6ytXvP4657vjq7F3eVMrmu9NoLqzqNu+ReZeSlRdY+4wn0nhhvSgB3IwXunqIrcbc5rErSV19NFsHdJ3Ua29nalO42RzJ3zR+s4is5xXF3X0fn7l1J/b41ZvTSrd9bcteXwRW5ezd2gS36Udw9llK3auSbflO5u2dWyt2IVcHdp8DdU3QZ7m4tn5bHQil3A4vo3DWzq+5r78vtwV19oHEMd5XWuJ+7StqOwjbnrkMDcPeAE7n0IZO761S4yKXc9ZLQldfas799+tPyZFXKXXWXA3cZCtwlg+GSQqp2x0JRAzSi+apxd1kMQ7256+uL83LXPE8o4u79roRAWXkH8vW426w0+kXPdO46uzyiuLtsr1p4LVrC3fDu7W3VxyVwV7tIolYFd58Cd08RuLvnUMjdcMEOq1oNsSGotrGN557u7wTuOs8MXNzdlNjeVdrTLu46u7SfOoO7+ugf9ty9LU7uxrm9e6bdWWkTydzd90DH4Akvd80z0V3BAflsBO6eInB3zyEGndT62dxV/lbUXtWqLQH9d2e96OcuBcNE7hqr2dxd/FkdPw7G3VbFSeOujaxjS+vtz3ju3q7EXXtBz6p3/y4M7jIUuEsGw6W1NdqSu77nycWun8LdbRXlWU21uatyNIK7d8fU9k2/GXKf9jYWCrh7DKJyN8a1Gadg10TCmNzVfjmOmjzubtdcH/sqt7jgp3D3pk9mctdsw9JrGA8nBXd5C9wlg+HSwdxWo4ALuRtzwFtW7xp36x7mNnfv1gJl3CUoHL+TKEVbs7KbZq7Vnn+G4q79cvqKGSpT6vVlL3e1oigbP52768fB3S3/VO6G9m6duw6wh7nreB55YA1wF9w9R9fg7v3414677qZW7OpZ3F3P0etzV6lSfNxdzGrYnrn04q5a0rgoPJcajLvNyqMhSbnbxpOf+VqiCtxdbO4qTV+f7D0pIqfFxd3Ig+PuuLZLr+DL42H+ylbg7im6DnfXz/bczcohZh03d4/esZrcNZoa7uSd3NWIfZwXOJaqz934BsuI3G1VoETuOqDl4O7tnlTc57KPJ9JvNz33ZtxV57Tirr1DrzMeS7uaZiyBu6foGtzd1JK7B/16cnd7HFNT7vqwHstdz1JGa0FRHneNxjW93nIed7V8Ne62KZGa6q0ad9MKu3JXuXjcjrtqq3pfN5K7iQeRuUNvex+4y1DgLhkMSs2esHhXMZORRQ3uVgRvLe4aNVlj7jpneNZbTuPu4uVumxJpicZw1/itMne3s4sgdx27YCCDY9rkbtzJcCl3j3weS82jcWSBu6foetxtczzc94+O3N3b78Nx974mYsS7AXeDM/zrSeRuTD+z8du2LRctuLd7NnfVHPz0tk6owhkcX/K5m6a7PrXv1OAuQ4G7ZDAopZ/Rxia8fWR2+OZxd9m4e2C/jlyVnoO7zuHD6snAsNx9LjcWd+2fWmSXzt21pWvuATnc1TqwtzL4kinhrt3ejdot0g+fuz31mgB3GQrcJYNBqQ93iw5gv9xWz+TuTlUDoetrG+5mv76Xu0ba4G7cyunZqbNSuGvtAbe0fW3jrl0GTykSN6zX5HvdVtw1cLtPPKRgF9w9R1fj7tKWu9nvXhifu8603dzdeybNAaLgrqXm3HWtMAh3bzet51kTeVXDnb5/VuTFJXA3XeDuKQJ3j4SPz4LrRIQirLrSyfGbwF0rpDqLjZ+0SUcv3VsdDuaLcjd9yLNzhZv3F30t4z5ubYFk8Jrc3f8r567/5GJdFdxtJHD3FF2Mu0815W5mFg25W+d2Yl9PneOCtvUYH+c3cPctL3fdhL0yd41LsDdwl4HA3VME7roSvTp3HZVePHcpM0cbGNx9y7B6OybcLDEHJgUVwV3HBnv/dvdy95a8k7tuPFp7mR1FdO3IVOKeeWnXX6pw9zX1EHL3Lrh7ksBdV6L36FNs5+oeJXBX69BNN+xqbBDcvZvzAgkfj/byrALuVuOue6kgd98/3nWcFHHXVZTt6q79S+IJZB3u5mg9f9SvoNwfUpq74O45AnedaSY+Yb02d9UXCLXmblIGI3F3COx6uGs+I1n5+WYsGpCfu8rQKV+Dty53HVtVu5dXlbO968/xZO7qN8t91EMKdsHdc3RR7tY+LMbirjKiuBZ3yYUzuKucGDgyBHfzuXsjv7oS8nJXm61v5hbcVROswF2ljH25+2zvgrv8BO6SwQhpPVKqyuJuIu9qcVdr4vbibqpPx22/4O4qBUTW6N9Fw6VvhFU6d517iA3Wezvubq1rJTNnCt4svdw19rP6encDGMcAuMtR4C4ZjKDs46RM9hXOIbi7vySwMXeTfarcdTdIwN1FZck26PcWwV1zts/lTeWuYxOaYL114K7eaHTIl6WvM911e3ll3Z0daFJGVYG7J+ma3HXWNNlyk+087h5VwfbQqFQ1qzW2q7r7gz7AXeP7bf+rcHdt60ZxV7sXqYS7d/O7wd3kvSSBu56kM7nbFILO40sMdsHdc3Rl7tY5OPxkG4K7WVezwd1usri7DzU2Ry5ncddrUnm+spu7xqw23FWSu4O7VxS4e4quyN1tPG2Fg4N81fop3L1r3HU8TqpacXJ038q389bZEQju7n+Oz9tNe82O70Yjs4Pao2TuvhrA2qCuity937Y9Yy+SczHP6mdy19PZJUXg7im6JHffWKpxDYbkbvzRF7dglNUduuvfwbi7OLlr5gfu7n/Uz1Tu3gjuKu3lWO6q69Tl7n1tTlfm7s198bWD5NBIjlNwlw5GpGpwN3Cl+HTuLpn1TsOKyjxLOY27Y2DXtkpwdyG463qhPc3dPerufdi4NuzgbupuQnP32FPv3mFJdyVzo6wOPbl7U07yOkoOjeQ4BXfpYESLJXePlu6R9EjctW65cF0h63EwX4+7WmvWHDLl5C71OOebenHdyV01yWM8tZJDK+56003k7vM/cLet5DgFd+lgRKv4cAwlEJNBwuDqbtxtOw4F3FXl5K6JT/s3N3dvi7EiYfK4QBLD3ds+rkvNIW1H8W7V+2K0d4kFldzVsrr14m6VC0qJkkMjOU7BXToY8So9HoPrR2SgjychFcndra/uKMJQ3LX7me16EdxVpm6u36xuYHWOB826jv3OuYvc107qWx/uqi1oItX3T1Yr3mPzowdwt7HkOAV36WDEq/B4DK8eht7d19xwKIu7WzFS1LWecl3NA3eVqdbcdbPuvuVel7vONXTuUom+y3qzb3LyLP3irrl0B8mhkRyn4C4djHj14G7gZNvZzepRpNXrcdeaJ5m7By7fzU1P447irtFP7dZg3N1GatFHg5u7PqP3V0czuNtScpyCu3Qw4tWcu0ugE/nejrt3c068+lZT4K4hg7uu3xeLstqop2juEtdUVxbelq7c3Z704i30a3+J5+7yvE8Z3G0oOU7BXToY8Sq88hPDXXqxe2D8pi5wt6bW9tXZCnHXXuNm/ratcEvj7vYnmrv2iK9k7rp3dY27gfbuc4GbcXcxuHue5DgFd+lgxCvn0cXq2unLGes04a6SsjvX4LppixfqPO767xPtKAd3b07u7kU1ubvD0eBuoEEfy909sZ27tyzu3r3cvR9lDqX4wvKrLOpzT8Dd8yTHKbhLByNFPbhLXGm9JyWUZPXu/RJaqXMt5aqKu3D3Pix31Wuqm+6VuXvsegR3j2xu2r+bvlSUQtyN6oC4Lyp3jV5vZ8K3BdxtKTlOwV06GCnqzF2z2gF3x+Duifh19TOHuavfWmvdp5vC3Xsqd28DcPfZ0byPOPMafXF37ZTuezlfDo3kOAV36WCkqDd39+k04r4F7tbUba3FX2XokJ9HxPVdvWGpc3efskY27z/Ecddz5qF8t7jr6vwO6mNOj2UbSOjMK5KM93Wk9X1v5ZPcXcNzMxrqjSWHRnKcgrt0MFJ0FnfvzbnrKUFgucA4sCYCd31yvyPX4K5z9JVnSJYifUfsxN37QnA3Eoobd9Web2+ei8pd8nHVdSWHRnKcgrt0MFKUV+F6uubCuRjcTcy9lLvE8O299VM21CxL53F3GZC7alE876bfZ/ubtfHcdWRrfNfS0l4BnMtd59WW+Aavxl1qJSXh283VH99Mcmgkxym4SwcjRVkVbvJbPZXKTeve681dV4Z342//oUbnc/fM4VXNuBsznDmTu+7SBvPb71Y32rwWdwNnDAp3iU5mLeGDvH0kh0ZynIK7dDBSlMnd0O391gp79X4MZ0nPvZC7jh6+RSmQslhfgbtHSYxoeN6Re6vHXd/3jtxVfBmfnpTWy7rhvHXukpeCK0sOjeQ4BXfpYCQpqcZVWoVJdbXCXQ2BQ3BXge05+DmHuzcl8zOHNRvc9fTzG3uLwl03SXpxNzpke1fK+zVI6tHTj7vUaxHrSg6N5DgFd+lgJCml3tDplMFd9Q+4S6gfd7W+9ctwdxVxFTfYpXoCdx/7wneKu+Rbg5ds7moTrSWHRnKcgrt0MJKUfL6exV0Fbudwd33Zqp2hVhJwt782q3dtzzDlvgJAcTfUtKvE3diYGdyl+plDw47vW/d6MOudu0dDGtytLDlOwV06GEnyH7tK3XB/V81Zg5CVtM7j7lYEP3czitNQ4K4hz57n50iQLzR3tW+3WtxVvvm5e7sZY6Yt7Ze1A3m7OrDB3cqS4xTcpYORpLs1sc+4q78d7cUK3L3vaSapjLvusoO7i8LdEyLQiLtB9eTu6u2hzXJM3rYcIrkbyNzmbvS9SqWSQyM5TsFdOhhJUi452b/clcn63E1OqMLQbfvsYv0f3F0c+0AH6dz1bYaTuXtzTjvTcWVFcldNYL9D6Nnm9XWV35S/5FHk+gncrSw5TsFdOhhJOtDquMC1zbxvdwB5WiOR+dy3qXctOgp3F8ctlSerI3dV7+dy19lTVR4AACAASURBVH9i573dO5+7zh3B843kbni32d9l/9DnOtbfLyVTfc36jUzg7rmS4xTcpYORJLVJa/+wjaRSLgDmc9dIIz2hCqFztnK8g65OkzzuKmd153BXn+PnrpVhBHfXZaK4u4+tWqK4i/buyZLjFNylg5GkAHe39uC+WHbNrD6BfhjuHv2r4O5yOne9rwbyPs07835U50Nf/NzVsknm7nEqYXLXdmXcQhTDXSJ/cLeD5DgFd+lgJInm7mJyNx9O4G6CxHFX2dtcXcA+7uZhxL2t757pUI4x3H0rirtkXq654O6pkuMU3KWDkSSFu+4z/ruvnkrOqLivGtytKAd3+7wTwsjjYc+zLwbc3T9kYcTn8rLc9Z4tgbsdJMcpuEsHI01au9aeX427S/k14srcvasmT3gPEaGzuNsjCEbTuj93PR5zufsKG7GCl7uuQfQ34pt3bgp3O4FXDo3kOAV36WCkycNdtWO5TmUM7sarJ3eP11V05O4R7sdi5Wpsi+NLjX5wbxIF3I28myeZu05IOsEfyDmQZH3JoZEcp+AuHYw0KZ1dbbmrQS5L0Vb9dYvatae8a1c2d5fRuHtvx93wK5j1LC0lcNdMqwZ3XTf1+jIHdztIjlNwlw5GmkLcrUekHXK56cVaJUa5rr3m+5thlB/A3TG5q24kazdNz92/9n0vF5WDY9+6uw8daxS2xV074mHuusrkKi+420dynIK7dDASpdRld2PuOlW5Mj6Tu69G7lbh6dU7uNuJu3ctq1A/s930LeMu9ZO7Daorkrv3SO7Su10ud+9ab46RQA/yyqGRHKfgLh2MVB01jQzu7g0NcPelte3faUy3ct7zUgZ3SwpJc/euHg256e4NepK7UecQOdzdTmso7jZHrxwayXEK7tLBSJXOXQeBa1fGzbkbvMDr6OOTy91VPbmrwM3BXf2sz5qfvaUC/o5e7CLurtcwttyUtBzcDcjaSO4d281ddwbgbl3JcQru0sH4/9s7257pjfIMP0GVImg/JRD4SosoE1D40ApSIVArIRIJstokbXjI/v//0XtfbM/rNe/jmes6D8hz74vX9jlj+/CMZ73Z7McjX+dYByGd6d1jFQJX5aagolJTD6me4TmjvGv8+pPXu8crrnfLzwNDTcDj7YvjyuR573+vR2vzDO9e9zKCd0cgJym8SxdGNgK96x6ZeHg3/epd/DplH6q86zlfyll0RNnbpl8y+60fJd27KZR4d+9RoLzbW7xybCQnKbxLF0Y2V/2Q4152Gm+kwFGhuXfNFyaitFJVlXcvY7x7MYRU6N2iJmmSUtt4d4842LtX7cwmMMvH/0I/MtgIOTaSkxTepQsjn2MIiFzvToUE776WNZ93izp4Nu/u0p3cu537muXYSE5SeJcujHyu5lHjfO/6jwm53qWOLFMNo3IorFTlva1CYFI/3Yvlaj26eZcZ825J9SW3d4vYTiWaeteppkC1GYUa8e52bgbvNkFOUniXLox8bO+aO+1QQz1+Ca3Ou8ePmBITTeZda1WLvZt85W5p70av1IaW3DHdVd99TvPuc4nkeYkif9y3EXJsJCcpvEsXRj7Gz+v2PTxFUEc/mEu6d+2eNP/g3YkQ690r4V3PlngIbTbvarIzfsehqXejtbZ7l5qlip+W1iLHRnKSwrt0YRQwkXdf6vAdFDK9qyjvTnZ5t513Ew+nE3j3saVlezf0TtKSu3r3auxGryWe4N1ISni3KXKSwrt0YRRw1f6eOeLo2QGW6V1lPUjz7lTYrdRy76ZmncO7V6q96/0+8VXfVLMX3DWd3YPumL7Iu8p8Gll0mnf1mfXZNeTYSE5SeJcujAoSdttuHLYV6V1jFfl61xyxN9q7g9A0OM67x3lFjnczhuLlIMdGcpLCu3RhVHBm5+vxlcIW3jVHZ3W/T0Al9liyskrNacDM4d379V1v/4o2QCkwg7wVHXvxpJ13rS23h3cv2kjEZsixkZyk8C5dGBWc6l2rwerij6r83tXbkGN+g6UCod69PLzrHeJ2DXk3OKfYYhl4N1i114txDzB6jtpuAe9WIycpvEsXRgUne5d4eifg3eM4oonHGNC8hHf1dRTl3cB0D5c08+4549fNpXb3bm5Idews8G4hcpLCu3RhrEnCNxWLvKsuk3rXOKA29G5a1lm8G3JFvPmW2d5d1LuXJO9erv6r4dGZb5sMvFuKnKTwLl0Ya1LvXes2Verovp3Ru/qRTtkjqyR5NzBddEVy1vSsfhxzuVW1aj20F1TQ2r1o3kU/cylyksK7dGGsh/JcYPKcgad51zhOPU7kfbM/Hf2ytLIvsdUdoVOyUl2WPUn2bsqckteVh3eJei30rn3K2gwOR6U05CSFd+nCWA7l3fHLvKsuVvsg9W60g8WsrafRJf4E3k1YjYybRZ45buGgp3cvlSHh3ULkJIV36cJYBON40sq77g/yWN4NLuY076pW3rXHdadNbDOJd1Nmld7ihXczFtOCZY9K2chJurh3wROlP1LaU+f92HzU8UC5M1JKn1twMamLa8Sxns9VVlWrYERMmk9wmivxrAHODOuWkPjp5jEGojyPui4GgOlBe7cUo3lW1d49xlMpt71rjTZyLhtvbc2x7d2jeav9Gmpxe9e6s2Zte1e/4WHrlqIzv7rtV1J7t+8W2nYMxLJHpWzkJF28vdu9MBYhOBrKmuAgwbt+sR5/vFpe3LuqwLtkl6Vxo+GmyvIM/YF3IwzzbstdYNmjUjZyksK7dGEswks7zb0bmE3Auyd81Ugd/6nd+WYh5HnX+tHDeu/qt9k3b7lfyUnenUO78C5H5CSFd+nCWITXr293964xmW/Y1fne1d95cKp3rxfXu40avvBuPoMG/lV82c7zsWWPStnISQrv0oWxCLvuKO8aL8e965+RNplzcOHg3Yu9+vEo1BR+7za50WIn78ZWDd5NWAy8W4ScpPAuXRiLYHrXN4F9MPBG1a+UkosjvVt+0MnnaOLb5xxF3t26DeyX4h8KoP1++2UJ70ZXDd7NW1Tux9zPLXtUykZOUniXLow1UNvg4+DO/moPHoOGqr3rLk/rfYZ3dzzebfPDAs29+1xFeLcN8G4+cpLCu3RhrMHeOxrx7jH0qIF37a5rvbv3FO/ua2E+mNC7ba7vui/BuzHsraQfZYvw7TurHpXykZMU3qULYw12mxLe1bRIejd4idiam7IlvR3SyPVojeNd7a3X3/RKVQrejXl3Eu3CuxyRkxTepQtjDXZVNvFuQntVTeNdY7HmW6+Xkio1fLJR693NVPr13Xm9G103eDdzUdkfgnclAO+ShbEGqd59PHru2lR7Nz4eeXOz3j40DmmDxKsuhHcvmnejgYLTRJPEJoB3e1Ds3WGnhaXedT646lEpHzlJ4V26MNYgpWvYuhTbzbsX90kzfH3JVAvm8eJE3j3k69dXltTg3QLcYQndgHezkZMU3qULYw0SdnHbimHvXnyNR3vCfcrL2d6lFgjvZnF9/fQstRrwbvKiij+kjGfLHpXykZMU3qULYw1O9a6yjxaJa1RAsXdjgYhB2AO9GxSef2r3pdrt97VqnL07dz+zdQYL77IF3iULYw1yvfv2rNK72gO9yzlnjQogvBv8gLqpKu8mNZUpMrwbstoo71KLS3hvJMVR4d15kZMU3qULYw0aeTfSevRNefTbTepd9byFVo13Ix8e4V3f6/BuGeGabkvWcpTvD7zLF3iXLIw1yD6OeL2rvA8jM6K8686l8oAX+l1C8gMqYaQY3d6d0ru+SeHdBFby7jFAQQRyksK7dGGsQQvvlv1y2dEx5vNudvs0trRc7965JXwjOXKTLfLD0XXQfm9gDe9ScuXg3SHa1TpK4suzptxHKsK7XIF3ycJYg/wDiers3ddLJZ6kllbm3XjTI3ZzS+rTad495Bv0bvg7PPCuwxLeDZ1+upN6r+zCu3yBd8nCWIKC44jHu5Ur4HrXo7K6I16Zx28JU8Z6os/2rueNc7w7i3aX8G6w28czqXVhBt5lDrxLFsYS1Hu38liU7t3KxXga1VFW8m7we73wrsVK3o0v0P3h7G1kwmXZo1IBcpLCu3Rh5DFoh26wWNO7qlKIHsX2827u8K9bwqJV/P2i9x7kedf/DrxrURF14F6a6N3D0NZr8C5X4F2yMPKIfeWkE8K8e8wkx7sxd07i3cBXhsZ6N6xXeDd/USnD6X3e3U4y5dhITlJ4ly6MPLz66U8D71ZfeR3a3vXdmTJIgndVdNUKx1w90TqQr5qAPVP527veC7/wbimDvXs0XGOTmVMpeJcx8C5ZGHks6d0W17sSvVt9GXk/ODnNgzBLeTf4jvNyV+8G/crBuyNRyRuX693tn0WiNkBOUniXLow8TNM4e1IvShZyfKZF57ivadvDu8c805voe6WGp5/bu1d412WRQ3SWd30TqWWiNkBOUniXLoxUfKesCR1MTShaxBjvWq8WFocyDk2dvEvPrpV3t6/izu5dZ/bh1vg5LHKI9l25DU7h9677lT+2zJ206aEc3iULI5WVvduln/l1im97t6xtrtTWeu7oXXoVit56Uefd6wzefa42/ROBQ5n7EL0T9e4+6Co0tlHBu3PQdswsvEsWRioe76bcF7gJ1d5tsgo9vXv0Wh9zSC7aw7vEwS9hFYo/a46LinnXbWlO5N12869l6kO0hvvNXOd9pU/omWKVqPVMnRTePWhZEt7CSOX4Oe29dhbwbrx/NX12/byrLrp31f5qrnepg1/SSpR+1jNKOdu7KXOAdydEaf96343exXnAIWQSZq3U56EM3t1pWRLewkgl6N0Be80U3nXn0tq7qtq71NEvZSVKPxv3rt4idic937tX6m5apzDrITpEqDF7vAXvTlup+5l/O+BdsjBS8XtXXbxGKsc/8qJ0Tkrb6ysJeldZL1V419z6OXn3Snh3e2uwd/X5X6/wbi3wbgKzVqp2085WwLtkYSSitWw1717m9q5q2B4PpWzg3f3yV713Ax9JmVGddyNXZ6+6mSfyrj7Uy3vzjvOY9RAdQjkPnCfRj7Jnukp9fdej5ZHyBbxLFkYi5mWavd1LX9spWExb75Y2QH2zW8O7/s8s4V3P6w7NvasZH96tYt9s8717EyPe6Sp1+zKk70uRdcC7ZGEkoglFOSOKGnrXM6/Cue9bVF/vOqf35d61Oq6TV7yNd2v6qKO3ebzqag75dbx3r/s/F3i3Eng3gekq9bgz7fNZO+BdsjASUfpDZyRv7AJOxmKW866xfiXetbsRlvSui+3dwBP7C0i7nr0O7OLdq/Z8HqY7REfYN2N4N8xslbpdKjy826w1Be+ShZGIKZc23nWvCPm0VVr9t+3KRaOdOsW7RX01VuFVete3/LQZNfeuPnDJfCfw7Kp/qrt3X4O99OY2vFvO65gA71LMVqnKPGbBuxt12RMKIwVLh55vyhddHtgvGOsdrc2926rzZJh340u0mNa7ST3I53lXu8K7L30eZjtExzjOcpX9aoxb0w7OmelXqWUlqDd2zYfVB054lyyMBOx9yXMxYPsOTNF8jfvZ2PMorvybPtcG9PZuxhsW8G4FxuLh3XKU+Y/+agwm3k0IMb13jzYVvNuQUu/6bKisaTJ6RreZbL/zri/FY/giWndeRfS4n3ic7V3Px87xLjmC2f9E/5ovvLsWhneV8WoMLt6Np+hWqYVX0yzv6vfuqa0SeJcsjBj+m0G6gsn3rjKqWfeu1YIsY9hFI8u72ass0LtXs5Grf2a0d/Wlw7s17DuuPpYR3jUIVaqqHf9Z9unX8Uq7tKX032ipAt4lCyOGevnRftXj3bSeCWOXNE6vtr1W3w6y13dn3HFra66XeTc8OVvvGq9M5N2ZtLuwd7WxjGnbzvreTXVVoFLru3UbeXd/pf7yHLxLFkaEwIApdxtL3XTsU2H69++W8a5WTvDug0TvuoObr743XsC78+LrXk717uriTb1Vfdi7uWXmzKDwY77DdnXr+w68SxZGhGTverujfTNU5gPP799pdb6Qd/cEzbybip3UV1tFK6ICryehtV09Posq2e9AeHditP1fmHcfR4Bc7zpHOWW/nrf8/I+FvHuBd2vTRwuDhrg7YoV3le5WBe9W0te7peu3nnenurwL7y7EtqOke1d5euNLvev7QVL/hN4X4F0PtemjhUETLP1S77qXi92fwsgclRHgBO8WtQ/7ezdxCe7eV+fdy96CzPfuNdD2hHdnRjkPJXn3kpBC865yPvY6fOR7N23ZWd6trxB4lywMAtKj7lCrpGvxyttWtueWd7rsZ+Bxa2vscvNucf/VnRrvXkN9vgvKqJQFo0ryrvI9zvSut6Hbz7uB2/v6D9vwbktS5xc6EdKm8B3dU70bm9uS3tXuu5X54Uom9u5F+70f923/e1fi1lELyqiUtaOq1APCnVvylPNwuDbnuthWqUrft0xtV3s30keZ6N1q4F2yMLyk3GLR+160BgM9GMr7tGp7GHncMoy7qnc9lVDj3TtXfYCy/Zb51/6Qn7VllMXaUUu8u5J6A9fCEr27DRj2eje7HOy5hD7//G4uvJtC98LwUvyTAlaz1Z0Ba+++nuR9tH7pTlJ/aeauSgPvXuDdYtaOqtLG9z657R9YhirvHkNhzJ7fKu9qfwIzUBfri7nbJ+Bdh+6F4WO7c1R+fdgbYVWXZ93mMPS4xde7tesX6jKGdyMsHjVtuMeTlb3rv0AW4rZPpfbZWB7M9q6+JuQ+68y+RfMmCLxLFoaP/adrs+fv965T02mzWci7OrN5N/l45un1qu+DyvcuNax4cRnlsHrUTO+u1dGsAtJK8q7eyPXeLCpvTQzvEt9BcM8U4N0g3QvDR3lLp5F3L+GtJ5nzjluZ+001Me/mrUpz7/o1Cu9GWD9q3g9Iq/Ydnv08HvRuZJGHd/cZWd7NPPAqw7v+Rrj9ov0A3nXpXhgeCqpf/6g9n0voYkh8FWo40bvpx48mYxo6erf+UBjsNU64p4bL+jJKZv2oyZuOfjeJlssf791YhPbeNXq84V0/a3j3Tmmvjz2m3jh4Z1imvtfpzOMWH+92a++St6UKsr6Mklk/Kl/vHs0CdxHkQqfyLjl1NfAuWRgBir1nbZK6d7N+5KLaSCt4t80QfjepCjyOrY0xfZvdEd4tZP2o+d5tqoD6U3dq1o286+yqeWtt9Aual3rDKwbvxuleGAHKN9r9DMzj3ZwtqnZrWMO7LQh5N7fBup8d6U+rCf3aALxLIzJq3Tbn9PN0965nAVHvhnujlPZf+opoT4hzZmIcM7zr0r0wQpQ3xZzvpqn9cV4PSh3wbp13W+2NQbNew7elCiJSRuxp5l27JdnTu0FDUgulvbsdIZt5V3nf9LzbAXiXLIwQNe1Nj3dV1/3Ax6nHrUjQtmeaQe+qvHMd8+QI3j0XkVGrNjrrADPAu3R/roe+3qXMCu9m0b0wgjT17mjpXqb2buMmJendjPMneHcmZEat2eoGezd0Tlvj3cwuKmtWtln1L/Oa94fM680uAt4lC6MLWrUqeNd+r7XaPEk3hWYtYbR3r/AugcyouaeJ2l9LJpktxxz2PaSBd82PVnnXadFut/u92OuqzKLqArxLFkYXXO9mdXg2YV7vtu7omdu7YYK/9hdGpoy4o0cd593yDXx+714O43q9O6AdBO+ShdEFZRy+tW1gIPBu7uzh3ZkQGjXDu1Zvr96perF3AfdB4Qau/aRPmXdTTgVSVy08nW1ceDeP7oXRBXXRNk5tXxjJyd4ld4nu3tXPfJI5wbu5HxEqI+YYUdMbew+fKK93lfH04jv9L+yAU4HHsVeftPVu9Oxe9679fu/9G94lC6MLxuC50cJ9cbZ3PbGfB4rLEO9m3aRk+9Bl8HkSvBtGatT0tt5+bqn2HUtr4+3e3SY5TiuV9kImKvgk+vKdiHcT5pA6mXL+b70P71J0L4wuzPCTXmd717Op7/0Abc3mTbqEd7ORKiPelHvX7lQ7xHr0Bb+8uw3uVbqEs0nybni+jbybcN4O72pI8e4MB+0ZvXscBvZ/GuBPWvjryU4P3VRIlRFvCr2rXxMxOpSVPtV2oruf8Kp9kjO8m7TMyEQp30O0OpndSeFdiu6F0YcJjtrTeVffWeDdMqTKiDfl3t0f658ytnxlbNLKfLtsF4lPE9yDEr0bmSqpuW4MqoJ3M+leGGw5N6pnU1/KuzNcKfCA7Zcjpd4NfSjo3cAumUGOdz3TNvFu2qmxFnn4dzjvwLtkYbBlVu8eb0/n3eP0eNLmLrZflphREze9RO9eNE81aPSleTe4fw/07mvS4ClAb+BdsjDYMrl3C8dT+ggkrfHupNrF9suS1t51pwx5Knc7z+oE93m3JJzvzcRzY32Q92DgXbIw2ALvFsxKG/Q5Jdh+OVLv3dikwYkzN/TVvGtc3BoLvEsWBltO966nu+t4nHsPRwp4lyNio7YYeWRNG554kHe3h828m7mPwruZdC8MtpwflfKu+3Y5Db1bsk+P5PxKHYbYqO29S02ct6Wne9fs8Mr1LrmgyffRF/AuWRhsOT8qOdhjZu/Ou0ufX6nDkBs1aeub27vHnSrNz7Xz7rz76At4lywMtpwfdUXvVn+0L+dX6jDkRm3v3VbzSb82ZHs39zprszOF04B3ycJgy/lRI95tRnvvTsv5lToMwVEzBgxV06rd7JvymBzevcC7Mjg/6sne5QiicoS5dxW8+3zlNODdcZwfFd5tDqJyZBXv5i5z//Js/o9rwrstgXfHcX7UbbfrPQ7i/KTDQFSOOFET9pVlvKu0wc0quVLh3ZbAu+M4P+rmW3i3GYjKEc7e3b7Jm+ldYlnwbjbw7jjOj7pf47EGWbTm/KTDQFSOFHi32d40wLvH4GZ49xzg3XGcHxXebQ6icuRM7+bMKdu7yvSuyqhUeLch8O44JoiqLvBuWxCVI27U6N2YzvBu/jJN76qcSoV3GwLvjmOCqIZz4d0GICpHPN6NiXcN7+o32ng8hHdPAd4dxwRRD90qeLcJiMoRX3uXn3fv/zTw7iLahXfpwmDLBFF173bcXSZIOgpE5Yg/Knl1ZhHvXoq9OyB5X+BdsjDYMkFU7ay95y9PT5B0FIjKEcq7gf1mPe8+KPRu6PHMwLtkYbBlgqjwbmsQlSNB74Z/pfoE77ZYZKl3lf/1mYF3ycJgywxRFbzbFkTlSNi7weu8Lb2bOK/zvGuUArybD7w7jhmiavs0vNsCROVIyLsq6N2Ge1O4Td1hmfDuKcC745ghKrzbGETlSCDq68tEvj2npXcTv2vQZJHF3h1yIGkKvEsWBltmiNqzd/lghqSDQFSOhLwb/uJ7y/1qUu9aTVx4twJ4dxxTRIV324KoHAl7V/vje6sVCbNrs8Qs7xqqVdrjJYB3ycJgyxRR4d22ICpH6KjuPtT82/ALePfS/edEGwPvkoXBFjlR5SRFVJZEojqqaX/5Jj7D8737fAHeLQDeHYecqHKSIipLsr3bfA0U+bTdIrMq1b2k2/V2s42Bd8nCYIucqHKSIipL4F0/zgVueLcMeHcccqLKSYqoLMn0bgf1BLzb/Fuz1d5dRrvwLl0YbJETVU5SRGXJ+d61v6rzGsM0m3cHfTGxCfAuWRhskRNVTlJEZUmKd9Xx4/GdvKsI77ZaZLZ3raFU62h3Fe++//TjT756Pf7uF19sL3cvDLbIiSonKaKyJMG7L+Oq180j26Mm9O7FuWEXvFtE2Lvff/7Z7W8/fT7+5uOfwLvVyIkqJymisiTdu/3Eo4x7um7Ca323ilrvLsQa3n3/my+2Zu5ffvwHtHfrkRNVTlJEZUmadztf3Dw6sJ/LUnqX9lneNVZiLdbw7ne//Or2/td/fD15eveHbwxZLQAAmBX19r/7H9V9OY8Fvf5Tr6e3/c941E2duHQ2hL37zSeud+90Pwlhi5yocpIiKktiUZVxp8R+aMO2tnFWanvWhtxKRXu3CXnt3TvdC4MtcqLKSYqoLEn0bn8BmcO2DAG3Ib9S4d0GJF3fhXebICeqnKSIypKod4eZxzNwq+nCCyp1pXtl6Kzh3e8//9U+nhnebYGcqHKSIipL5vFub0q8u2j4Nbz7+v7u07jwbgPkRJWTFFFZEu9n5gK8ewq4X9U45ESVkxRRWSInKrx7CvDuOORElZMUUVkiJ2pJUni3Gnh3HHKiykmKqCyRExXePQV4dxxyospJiqgskRMV3j0FeHcccqLKSYqoLJETVU5SeJcuDLbIiSonKaKyRE5UOUnhXbow2CInqpykiMoSOVHlJIV36cJgi5yocpIiKkvkRJWTFN6lC4MtcqLKSYqoLJETVU5SeJcuDLbIiSonKaKyRE5UOUnhXbow2CInqpykiMoSOVHlJIV36cJgi5yocpIiKkvkRJWTFN6lC4MtcqLKSYqoLJETVU5SeJcuDLbIiSonKaKyRE5UOUnhXbow2CInqpykiMoSOVHlJIV36cJgi5yocpIiKkvkRJWTFN6lC4MtcqLKSYqoLJETVU5SeJcuDLbIiSonKaKyRE5UOUnhXbow2CInqpykiMoSOVHlJIV36cJgi5yocpIiKkvkRJWTFN6lC4MtcqLKSYqoLJETVU5SeJcuDLbIiSonKaKyRE5UOUnhXbow2CInqpykiMoSOVHlJIV36cJgi5yocpIiKkvkRJWTFN6lC4MtcqLKSYqoLJETVU5SeJcuDLbIiSonKaKyRE5UOUnhXbow2CInqpykiMoSOVHlJIV36cJgi5yocpIiKkvkRJWTFN6lC4MtcqLKSYqoLJETVU5SeJcuDLbIiSonKaKyRE5UOUnhXbow2CInqpykiMoSOVHlJIV36cJgi5yocpIiKkvkRJWTFN6lC4MtcqLKSYqoLJETVU5SeJcuDLbIiSonKaKyRE5UOUnhXbow2CInqpykiMoSOVHlJIV36cJgi5yocpIiKkvkRJWTFN6lC4MtDxEwbAAABElJREFUcqLKSYqoLJETVU5SeJcuDLbIiSonKaKyRE5UOUnhXbow2CInqpykiMoSOVHlJIV36cJgi5yocpIiKkvkRJWTFN6lC4MtcqLKSYqoLJETVU5SeJcuDLbIiSonKaKyRE5UOUnhXbow2CInqpykiMoSOVHlJIV36cJgi5yocpIiKkvkRJWTdHHvNuaHZ68AaA8qlSOoVYagUk8B3gXtQaVyBLXKEFTqKcC7oD2oVI6gVhmCSj0FeBe0B5XKEdQqQ1Cpp3C6dwEAAABBwLsAAADAOOBdAAAAYBzwLgAAADAOeBcAAAAYxxne/e5fP/74s9vt/acff/LV4/kvvni8+JMvTlgZ0AazUu0qBmvirdXXHgsWxVupe92CEZzg3fe//uPtu3/74/eff3b720/fnn9zF+77T9+e4Ri9LGal2lUM1sRbq689FiyKt1L3ugVDOMG739yPxH/57P1vvnicN//lx394+/e7X3712ATAmpiValUxWBRvrb72WLAo3krd6haM4aTru2+KPUz7HbzLAqNSrWdgVZxavaGfeXl8lYpddSDnePf7z391++YT3buPfuYfo94XxqxU8xlYFbdWb/Du6ngr9fUHjOAU777/9K2Gzfbu/br+v/8XDtHrYlaqVcVgUTy1eoN3F8dbqVvdghGcM575fh3huPi37cX3V8CimJVqVzFYE1+t3uDdtfFW6l63YAQnePdVw/dujedg10c/89uZF4a+rotZqU4VgyXx1uoN3l0ab6VCu2M5wbt/+/jOZ9b3d7/5GF/1XBizUp0qBkvir1V4d2m8lXrULRgB7lcFAAAAjAPeBQAAAMYB7wIAAADjgHcBAACAccC7AAAAwDjgXQAAAGAc8C4AU/G//2M+//oHf3ae29MAABYC3gVgJr7959+bL3i860wDAFgIeBeAmYB3AeAOvAvAaP7x23fvPnxT7L/8x7sf/Pn+5K7Wb3/07t27j+7/fnTbXvv7z9598J+ad5/P//sxDQBgUeBdAAbzj99++GbQn7+Z9sPnk9uX//TX+wu3L59t2eO1j94mPLy7PUd7F4CVgXcBGMymzW9/9PNXN/KbdP/vr8937m9urz3+fnl4d3sO7wKwMvAuAIPZrtg+9Pnluwcfvb389ueDh3e3196avPfe6N2723N4F4CVgXcBGIzp3btLb/fm7Qe/39q722vwLgAcgXcBGMzez3z/+/UHzydf35369bO9u792F/TXVj8zxjMDsDjwLgCDuQ+buv/30Oc/fvsm3DfR3l377Y8++P19fNX22t9/9qE1rur5/DEGCwCwKPAuAKPZvkf0aLben9zbt396+/O7N6H+6d2H+2v+7xH9+TENAGBR4F0AAABgHPAuAAAAMA54F4DJedzJ6t2z5xkAsDzwLgAAADAOeBcAAAAYB7wLAAAAjAPeBQAAAMYB7wIAAADjgHcBAACAccC7AAAAwDj+H15OLLHLSFeCAAAAAElFTkSuQmCC;" parent="rJtn-HCqNBm__StW7rE7-1" vertex="1">
                    <mxGeometry x="850" y="40" width="1911" height="959" as="geometry"/>
                </mxCell>
            </root>
        </mxGraphModel>
    </diagram>
</mxfile>